<?xml version="1.0" standalone="no"?>
<!DOCTYPE svg PUBLIC "-//W3C//DTD SVG 20010904//EN"
 "http://www.w3.org/TR/2001/REC-SVG-20010904/DTD/svg10.dtd">
<svg version="1.0" xmlns="http://www.w3.org/2000/svg"
 width="566.000000pt" height="800.000000pt" viewBox="0 0 566.000000 800.000000"
 preserveAspectRatio="xMidYMid meet">

<g transform="translate(0.000000,800.000000) scale(0.100000,-0.100000)"
fill="#000000" stroke="none">
<path d="M1689 7598 c-58 -22 -141 -134 -180 -245 -13 -36 -21 -85 -21 -129
-1 -69 -2 -71 -35 -94 -72 -49 -117 -175 -111 -310 l3 -80 -30 -12 c-52 -21
-116 -69 -136 -101 -63 -104 -77 -497 -23 -650 37 -106 61 -523 44 -792 -17
-270 -14 -691 5 -970 9 -126 18 -241 20 -255 2 -14 13 -126 25 -250 21 -226
37 -356 64 -531 18 -111 48 -351 75 -609 25 -233 28 -265 46 -545 24 -382 38
-455 85 -455 34 0 61 19 75 53 14 35 12 199 -5 397 -5 63 -12 232 -15 375 -3
143 -8 326 -10 408 -3 81 -2 147 2 147 5 -1 22 -13 40 -28 29 -25 32 -34 42
-122 12 -109 18 -173 26 -285 4 -44 8 -96 10 -115 2 -19 7 -80 10 -135 3 -55
16 -217 27 -360 18 -217 21 -347 22 -780 0 -359 -3 -528 -10 -545 -14 -31 0
-144 21 -176 33 -51 129 -33 159 30 9 19 15 53 14 77 -1 49 17 304 33 449 35
331 52 442 154 1040 62 365 79 490 96 700 15 180 14 849 -1 1025 -22 255 -61
583 -95 790 -19 116 -39 253 -46 305 -27 220 -10 679 37 987 13 89 24 164 24
167 0 3 17 6 39 6 l38 0 2 -213 c0 -117 3 -242 6 -277 10 -143 15 -270 25
-605 6 -192 15 -415 21 -495 5 -80 14 -208 19 -285 22 -322 32 -1287 20 -2026
-5 -345 -5 -349 50 -349 27 0 34 9 64 80 13 32 -5 -170 -24 -260 -11 -52 -20
-107 -20 -121 0 -58 60 -62 85 -6 22 52 103 327 115 392 8 43 8 146 1 360 -47
1352 -53 1615 -46 2030 5 358 9 453 20 585 3 30 7 96 10 145 2 50 10 174 16
276 13 215 7 826 -10 964 -7 50 -19 146 -27 215 -65 530 -103 640 -264 747
-93 63 -257 104 -329 82 -12 -3 -15 16 -18 106 -6 180 -27 245 -86 270 -36 15
-111 16 -148 3z m425 -453 c153 -54 228 -135 275 -295 26 -90 82 -458 113
-745 19 -178 17 -778 -5 -1115 -38 -604 -45 -1338 -16 -1890 12 -245 34 -1021
33 -1185 0 -109 -5 -145 -27 -224 -31 -110 -42 -128 -30 -51 10 70 10 236 0
321 -10 76 -43 143 -58 116 -5 -9 -14 -54 -20 -99 -17 -130 -20 -150 -24 -147
-2 2 1 150 5 329 20 754 4 1645 -39 2215 -5 66 -12 206 -15 310 -10 314 -16
458 -31 715 -24 419 -27 577 -11 583 7 3 18 1 24 -5 11 -11 68 -2 78 13 3 6 3
16 0 24 -3 8 -7 110 -10 227 -3 172 -8 229 -25 296 -21 84 -51 152 -80 186
-24 27 -86 56 -122 56 l-32 0 5 64 c3 35 13 79 22 97 20 40 20 39 -3 39 -40 0
-69 -59 -74 -155 l-3 -40 -59 -7 c-32 -4 -61 -6 -63 -3 -2 2 -1 92 3 199 l7
196 57 0 c33 0 84 -10 125 -25z m-611 -200 c3 -44 9 -106 13 -137 l7 -58 -63
0 -63 0 5 103 c5 104 26 176 66 220 16 18 17 18 23 -15 4 -18 9 -69 12 -113z
m665 -231 c55 -38 101 -159 116 -304 9 -80 9 -357 1 -370 -4 -6 -126 -10 -313
-10 -169 0 -350 -2 -402 -5 -52 -2 -156 -7 -231 -10 l-136 -7 -7 80 c-18 207
-4 448 30 514 34 65 132 108 249 108 l54 0 6 -47 c15 -107 58 -289 76 -325 32
-63 50 -45 64 67 l8 60 23 -88 c25 -91 39 -127 52 -127 14 0 32 66 33 121 0
30 3 72 7 94 l7 40 24 -65 c39 -107 70 -162 89 -158 15 3 17 18 13 143 -3 77
-5 171 -5 210 l-1 70 35 12 c53 18 181 16 208 -3z m-401 -116 c-3 -7 -5 -2 -5
12 0 14 2 19 5 13 2 -7 2 -19 0 -25z m103 -58 c0 -5 -4 -10 -10 -10 -5 0 -10
5 -10 10 0 6 5 10 10 10 6 0 10 -4 10 -10z m-116 -585 c10 -41 7 -461 -4 -575
-15 -158 -27 -251 -81 -652 -27 -202 -49 -387 -49 -412 0 -25 -3 -46 -7 -46
-5 0 -7 152 -6 338 1 185 -2 472 -7 637 -5 165 -12 395 -15 512 l-6 212 33 4
c18 2 56 5 84 5 48 2 52 0 58 -23z m306 -7 c0 -18 -9 -87 -20 -153 -52 -315
-62 -827 -21 -1090 11 -71 29 -189 41 -261 59 -387 89 -739 97 -1144 10 -557
-13 -777 -176 -1685 -11 -60 -34 -222 -52 -360 -18 -137 -34 -252 -36 -254 -1
-2 -9 2 -18 9 -8 7 -25 10 -37 7 l-23 -6 -2 202 c-3 197 -20 652 -28 712 -2
17 -6 75 -10 130 -3 55 -10 150 -15 210 -5 61 -12 162 -15 225 -5 101 -46 491
-60 560 -25 132 -39 331 -39 585 0 351 13 514 89 1110 78 605 85 687 85 988
l0 247 120 0 120 0 0 -32z m-670 -10 c0 -15 -12 -88 -26 -160 -42 -212 -39
-334 14 -574 98 -447 106 -575 123 -2049 6 -522 15 -995 18 -1050 4 -55 4
-104 0 -109 -16 -19 -27 36 -33 164 -8 151 -21 312 -36 440 -39 324 -73 592
-81 630 -15 76 -37 271 -64 565 -14 154 -27 291 -30 305 -24 140 -34 670 -18
985 15 306 12 501 -13 735 -8 74 -14 137 -14 140 0 3 36 5 80 5 l80 0 0 -27z
m135 -96 c11 -191 12 -268 19 -857 4 -297 9 -570 11 -607 3 -38 1 -68 -3 -68
-5 0 -10 51 -11 113 -1 61 -4 135 -6 162 -21 236 -51 434 -98 640 -35 155 -41
195 -40 290 1 126 14 228 45 362 22 88 24 93 49 93 l27 0 7 -128z m46 -2077
c-1 -222 14 -468 38 -647 10 -71 14 -128 9 -128 -4 0 -19 17 -32 38 l-24 37
-5 480 c-4 337 -2 470 5 445 6 -19 10 -120 9 -225z"/>
<path d="M2570 1390 c0 -13 5 -20 13 -17 6 2 12 10 12 17 0 7 -6 15 -12 18 -8
2 -13 -5 -13 -18z"/>
<path d="M2684 1270 c-34 -46 -41 -49 -50 -16 -10 42 -36 41 -71 -1 -17 -20
-34 -35 -36 -33 -2 3 -10 15 -16 28 -14 27 -37 28 -53 2 -15 -23 -28 -26 -28
-6 0 8 -7 22 -16 30 -19 20 -51 6 -63 -28 -5 -12 -17 -28 -26 -36 -15 -12 -18
-12 -26 2 -14 26 -39 48 -53 48 -7 0 -26 -10 -41 -22 l-27 -21 6 30 c5 23 3
32 -8 36 -32 13 -64 -49 -52 -98 8 -33 39 -33 78 0 31 27 48 32 48 15 0 -6 11
-22 25 -36 24 -24 26 -24 55 -9 17 9 36 27 42 41 l12 25 12 -31 c14 -33 38
-39 66 -14 14 14 21 14 32 4 18 -14 69 -5 86 15 10 12 15 11 31 -8 17 -21 19
-21 48 -5 26 14 32 14 42 2 28 -34 183 3 226 54 10 12 17 11 43 -12 32 -27 64
-34 75 -16 9 15 -70 90 -96 90 -13 0 -37 -14 -55 -31 -23 -22 -49 -34 -94 -43
-68 -14 -82 -7 -61 32 12 23 5 52 -13 52 -7 0 -25 -18 -42 -40z"/>
<path d="M2564 1038 l-82 -30 -21 21 c-27 27 -57 27 -123 -4 l-53 -25 -18 25
c-22 29 -61 33 -95 9 -22 -15 -30 -44 -13 -44 5 0 21 4 35 9 21 8 27 6 40 -15
21 -31 69 -32 130 -2 43 20 47 21 64 5 35 -32 72 -30 152 7 72 34 74 34 88 15
15 -22 59 -25 143 -9 71 13 109 29 109 46 0 17 -45 18 -143 4 -56 -8 -72 -7
-90 5 -27 19 -26 19 -123 -17z"/>
</g>
</svg>
