<?xml version="1.0" standalone="no"?>
<!DOCTYPE svg PUBLIC "-//W3C//DTD SVG 20010904//EN"
 "http://www.w3.org/TR/2001/REC-SVG-20010904/DTD/svg10.dtd">
<svg version="1.0" xmlns="http://www.w3.org/2000/svg"
 width="1024.000000pt" height="1024.000000pt" viewBox="0 0 1024.000000 1024.000000"
 preserveAspectRatio="xMidYMid meet">

<g transform="translate(0.000000,1024.000000) scale(0.100000,-0.100000)"
fill="#000000" stroke="none">
<path d="M4644 9226 c-74 -17 -110 -35 -146 -73 -58 -60 -62 -86 -66 -355 l-4
-247 27 -59 c15 -33 43 -76 63 -95 l37 -36 -51 -413 c-29 -227 -57 -442 -63
-478 -26 -148 -45 -220 -60 -233 -16 -15 -350 -218 -591 -360 -211 -125 -255
-155 -305 -208 -91 -98 -106 -163 -112 -501 -5 -259 -6 -267 -26 -270 -60 -9
-79 -115 -53 -293 8 -60 103 -976 211 -2035 222 -2194 217 -2155 245 -2235 42
-123 144 -229 263 -273 112 -42 158 -44 1132 -39 812 3 939 6 1003 20 236 52
320 162 367 481 8 56 107 985 220 2066 113 1081 212 2027 221 2103 18 154 14
171 -46 202 l-30 16 0 237 c0 130 -5 266 -11 302 -20 125 -72 205 -183 285
-129 91 -687 427 -809 486 l-45 22 -16 101 c-8 56 -31 243 -51 416 -20 173
-47 378 -60 455 -24 140 -24 140 -4 165 93 118 104 163 95 400 -14 350 -34
401 -176 438 -81 21 -888 27 -976 8z m931 -429 c0 -261 4 -253 -113 -242 -121
10 -168 -8 -196 -76 -14 -34 -14 -39 7 -80 25 -51 61 -68 143 -68 l51 -1 12
-107 c7 -60 30 -238 52 -398 21 -159 43 -339 49 -399 15 -146 35 -251 57 -290
25 -43 165 -134 503 -326 327 -186 369 -212 427 -258 87 -70 105 -159 96 -464
l-6 -188 -1534 0 -1534 0 3 263 c3 256 4 263 28 312 30 59 69 86 397 275 237
137 490 299 545 352 28 26 38 47 51 103 14 60 157 1074 157 1110 0 9 21 15 63
20 105 12 137 39 137 114 0 86 -29 103 -181 105 -71 1 -112 5 -120 13 -14 14
-27 407 -16 438 6 13 58 15 464 13 l458 -3 0 -218z m1150 -3164 c-3 -27 -12
-115 -20 -198 -16 -157 -33 -289 -41 -316 -4 -15 -35 -17 -272 -21 -339 -6
-376 -15 -680 -157 -253 -118 -357 -144 -587 -145 -239 -1 -357 29 -609 153
-261 129 -370 153 -713 155 l-232 1 -5 35 c-17 105 -46 405 -46 468 l0 72
1605 0 1606 0 -6 -47z m-2608 -768 c96 -21 171 -50 333 -129 139 -68 268 -115
400 -144 58 -13 123 -17 285 -16 202 0 215 2 327 31 112 30 198 64 434 172
146 66 233 89 379 101 148 12 336 13 353 1 11 -6 8 -55 -13 -267 -15 -142 -39
-383 -55 -534 -15 -151 -29 -268 -32 -260 -3 8 -18 69 -34 134 -64 274 -171
390 -373 403 -115 8 -238 -18 -501 -107 -129 -43 -307 -100 -395 -126 -260
-77 -356 -124 -415 -205 -60 -84 -63 -199 -11 -414 20 -79 26 -122 19 -126 -6
-4 -61 -15 -122 -25 -83 -14 -160 -19 -301 -18 -173 0 -199 3 -289 27 -78 21
-361 127 -371 139 -1 2 -12 120 -24 263 -21 250 -58 600 -101 944 -11 90 -17
168 -13 174 10 16 432 1 520 -18z m2060 -741 c40 -25 54 -60 130 -327 130
-459 147 -536 147 -667 1 -123 -31 -449 -45 -464 -5 -5 -50 -22 -101 -37 -51
-14 -264 -77 -473 -138 -209 -62 -399 -114 -423 -118 -36 -5 -47 -2 -68 17
-13 13 -29 40 -34 59 -6 20 -85 314 -175 655 l-164 618 16 39 c21 52 51 75
137 100 39 11 265 78 501 149 237 71 439 131 450 133 28 7 76 -2 102 -19z
m-2320 -914 c100 -36 250 -74 358 -91 167 -25 488 -5 642 40 18 5 35 6 37 2 3
-4 50 -189 106 -411 59 -236 112 -425 127 -457 32 -66 98 -128 149 -142 53
-15 136 -13 214 3 36 8 246 69 468 135 222 67 405 121 408 121 11 0 0 -152
-36 -506 -45 -444 -47 -457 -67 -504 -26 -65 -99 -124 -178 -145 -47 -13
-1909 -6 -1975 7 -101 19 -144 89 -169 281 -6 43 -40 371 -76 730 -36 359 -72
708 -80 777 -14 120 -19 190 -12 190 2 0 40 -13 84 -30z"/>
<path d="M4524 6746 c-84 -40 -243 -136 -456 -275 -179 -116 -195 -136 -184
-225 13 -110 103 -236 169 -236 32 0 77 21 96 44 19 23 15 84 -8 138 l-20 47
102 64 c56 35 147 90 202 122 115 67 240 149 272 178 49 44 35 130 -27 162
-43 22 -68 19 -146 -19z"/>
</g>
</svg>
