<?xml version="1.0" standalone="no"?>
<!DOCTYPE svg PUBLIC "-//W3C//DTD SVG 20010904//EN"
 "http://www.w3.org/TR/2001/REC-SVG-20010904/DTD/svg10.dtd">
<svg version="1.0" xmlns="http://www.w3.org/2000/svg"
 width="2048.000000pt" height="1536.000000pt" viewBox="0 0 2048.000000 1536.000000"
 preserveAspectRatio="xMidYMid meet">

<g transform="translate(0.000000,1536.000000) scale(0.100000,-0.100000)"
fill="#000000" stroke="none">
<path d="M10150 11860 c-145 -16 -305 -76 -362 -137 -19 -20 -30 -47 -38 -93
-6 -36 -17 -78 -23 -95 -12 -31 -14 -172 -17 -1172 0 -332 -4 -505 -11 -509
-6 -3 -39 -12 -73 -19 -34 -7 -111 -32 -171 -54 -60 -23 -112 -41 -117 -41 -4
0 -72 -37 -151 -82 -151 -87 -253 -160 -302 -216 -16 -19 -49 -55 -71 -81 -41
-45 -69 -87 -98 -146 -9 -16 -27 -48 -41 -70 -27 -43 -26 -41 -45 -100 -13
-38 -13 -93 -6 -610 1 -38 5 -76 9 -82 5 -7 6 -17 3 -21 -6 -10 -6 -239 -1
-1857 3 -718 1 -1244 -5 -1263 -6 -24 -5 -45 6 -74 11 -32 13 -84 9 -247 -2
-113 -9 -235 -14 -269 -6 -38 -6 -105 -2 -166 8 -95 12 -108 60 -201 87 -170
93 -178 239 -336 56 -60 168 -142 237 -174 22 -10 57 -29 78 -42 21 -13 111
-53 200 -89 137 -55 190 -71 342 -101 178 -35 182 -35 445 -35 286 0 398 12
590 67 47 13 101 27 120 31 19 3 49 14 65 24 17 10 65 30 108 45 43 15 80 32
83 36 3 5 13 9 23 9 10 0 24 7 31 15 6 8 45 32 85 54 42 23 76 49 80 61 3 11
11 20 16 20 21 0 117 82 186 158 113 125 157 205 189 347 15 66 35 128 43 139
14 16 16 116 14 955 -1 515 -4 1217 -7 1561 -3 344 -5 675 -4 735 1 61 1 124
0 140 -1 17 -4 251 -7 520 -3 270 -7 515 -9 545 -7 123 -96 288 -244 456 -129
145 -273 256 -457 352 -75 39 -170 80 -212 91 -24 7 -47 19 -52 29 -4 9 -11
58 -15 107 -6 86 -21 1014 -19 1140 3 120 2 182 -5 302 -4 68 -3 134 1 148 13
38 -18 118 -59 155 -19 16 -41 30 -48 30 -7 0 -23 11 -35 24 -29 31 -53 40
-171 65 -106 22 -272 31 -370 21z m360 -92 c156 -48 250 -112 250 -171 0 -35
-77 -117 -131 -140 -37 -15 -189 -52 -254 -61 -74 -11 -303 14 -372 40 -35 13
-70 24 -78 24 -21 0 -111 92 -118 121 -5 21 3 35 51 86 48 52 68 66 129 88 40
14 98 30 130 35 91 14 317 1 393 -22z m-666 -323 c20 -8 36 -20 36 -25 0 -5
12 -13 28 -16 15 -4 44 -15 65 -26 114 -57 367 -80 497 -45 41 11 93 23 115
27 22 3 63 19 91 35 79 45 84 38 85 -107 2 -186 2 -414 1 -503 -1 -44 0 -278
1 -519 l3 -439 27 -22 c14 -13 45 -26 69 -30 24 -4 54 -13 68 -20 14 -7 41
-15 60 -19 19 -3 92 -35 162 -70 140 -70 194 -112 357 -279 107 -110 194 -239
242 -359 21 -54 37 -375 42 -831 2 -251 -2 -311 -17 -234 -3 17 -12 43 -19 57
-72 134 -99 176 -155 243 -36 43 -96 105 -134 137 -69 58 -212 160 -224 160
-4 0 -52 22 -108 49 -147 70 -354 138 -486 160 -228 37 -633 47 -745 18 -33
-8 -92 -20 -131 -26 -91 -14 -302 -79 -333 -103 -13 -10 -35 -18 -49 -18 -28
0 -136 -49 -197 -90 -129 -86 -161 -107 -190 -125 -59 -36 -200 -193 -240
-266 -44 -78 -61 -97 -76 -82 -6 6 -11 137 -13 335 -6 527 26 705 155 860 21
26 39 50 39 54 0 12 141 144 229 214 45 36 110 77 144 91 34 14 89 40 122 57
33 18 67 32 76 32 9 0 42 9 75 21 32 11 93 27 134 35 41 8 80 20 87 27 11 11
34 237 34 328 0 98 8 838 12 1056 4 221 8 273 21 273 2 0 20 -7 40 -15z m611
-2705 c79 -5 172 -19 212 -30 40 -11 85 -20 100 -20 14 0 34 -6 42 -14 9 -7
59 -25 111 -40 105 -30 228 -86 305 -139 28 -18 66 -42 85 -52 19 -10 51 -32
71 -49 20 -17 53 -44 73 -61 92 -75 199 -236 248 -375 29 -80 43 -251 28 -341
-17 -100 -94 -251 -169 -332 -32 -34 -70 -79 -84 -100 -23 -34 -124 -107 -148
-107 -5 0 -14 -9 -21 -21 -7 -11 -40 -34 -73 -51 -33 -17 -71 -38 -85 -48 -36
-25 -213 -94 -290 -113 -36 -9 -103 -28 -149 -41 -46 -13 -89 -22 -96 -20 -7
3 -41 -2 -75 -11 -51 -13 -111 -16 -309 -15 -240 1 -297 6 -451 37 -41 8 -93
18 -115 22 -80 16 -192 55 -290 103 -229 111 -311 165 -409 265 -185 190 -257
349 -259 573 -1 192 92 396 247 538 32 28 55 56 51 62 -3 5 -2 10 4 10 5 0 38
23 73 51 69 56 336 191 428 216 239 65 330 86 433 98 65 7 120 14 122 16 6 6
242 0 390 -11z m1340 -1277 c4 -21 6 -137 5 -258 -2 -121 -3 -231 -2 -245 5
-313 3 -522 -7 -557 -6 -23 -27 -61 -46 -85 -20 -24 -41 -55 -47 -71 -7 -15
-20 -30 -30 -33 -10 -3 -18 -9 -18 -13 0 -16 -61 -85 -95 -108 -19 -13 -35
-30 -35 -38 0 -8 -28 -33 -62 -57 -35 -23 -85 -59 -111 -80 -27 -21 -59 -38
-72 -38 -12 0 -40 -12 -61 -27 -40 -27 -138 -67 -209 -84 -22 -6 -47 -16 -55
-23 -8 -7 -35 -16 -60 -20 -25 -4 -72 -15 -105 -25 -111 -34 -139 -40 -286
-57 -105 -11 -184 -14 -285 -10 -76 4 -157 7 -179 6 -78 0 -254 21 -294 34
-21 8 -60 18 -86 21 -25 4 -81 21 -123 37 -42 17 -106 40 -142 53 -199 68
-435 239 -548 396 -56 78 -122 212 -125 257 -2 20 -8 46 -14 58 -8 13 -13 98
-14 240 -3 278 -3 247 0 469 1 105 0 197 -3 205 -8 20 9 45 23 36 6 -4 11 -15
11 -24 0 -32 192 -278 249 -319 20 -15 59 -44 86 -64 69 -51 232 -144 324
-184 75 -33 168 -63 286 -92 33 -8 80 -21 105 -29 126 -38 502 -54 685 -29
169 23 332 53 353 64 9 5 37 12 62 16 25 4 102 31 172 61 70 30 131 54 136 54
5 0 15 7 22 15 6 8 35 25 63 38 29 13 75 42 103 63 72 55 234 207 234 220 0 5
14 23 30 39 33 31 102 152 114 198 10 42 42 36 51 -10z m-3053 -1224 c8 -30
42 -74 117 -156 123 -133 216 -207 373 -297 106 -62 339 -145 448 -160 152
-22 210 -51 130 -67 -34 -7 -81 -17 -208 -45 -75 -16 -216 -64 -287 -98 -27
-14 -71 -34 -98 -45 -26 -12 -55 -28 -65 -37 -48 -42 -109 -87 -141 -104 -46
-23 -183 -166 -236 -245 -42 -63 -56 -78 -65 -69 -3 3 -5 119 -6 257 -1 139
-3 439 -5 667 -1 229 0 421 5 428 13 22 25 13 38 -29z m3065 0 c7 -7 8 -21 2
-43 -5 -17 -7 -51 -4 -76 4 -36 19 -1062 19 -1303 0 -79 -15 -90 -44 -30 -73
153 -96 191 -144 242 -24 25 -55 58 -68 73 -36 41 -146 135 -212 181 -150 105
-541 256 -703 272 -17 1 -37 6 -43 10 -19 12 8 34 49 40 20 3 74 14 121 24 47
11 112 25 145 32 33 6 76 21 95 32 19 11 56 26 81 33 26 8 52 21 59 28 6 8 18
12 25 10 13 -6 158 74 260 143 141 95 263 207 307 285 35 61 38 64 55 47z
m-1580 -711 c4 -7 8 -139 9 -293 2 -578 5 -706 21 -712 8 -3 18 -2 23 3 5 5
11 231 14 501 2 271 7 497 11 503 9 14 231 1 274 -16 18 -8 50 -14 70 -14 20
0 56 -6 81 -14 25 -9 86 -27 135 -41 86 -25 140 -45 233 -86 23 -10 47 -19 53
-19 6 0 52 -25 102 -56 191 -118 310 -232 405 -389 73 -119 99 -194 107 -306
6 -84 4 -109 -20 -210 -15 -63 -31 -121 -36 -129 -5 -8 -21 -37 -35 -65 -15
-27 -37 -63 -50 -78 -13 -16 -24 -33 -24 -39 0 -14 -115 -128 -175 -174 -133
-100 -361 -223 -463 -249 -31 -8 -82 -23 -112 -34 -55 -20 -285 -61 -340 -61
-16 0 -41 -5 -57 -11 -28 -10 -287 -13 -373 -4 -25 3 -90 10 -145 16 -55 5
-122 15 -150 21 -67 15 -345 106 -359 117 -6 5 -36 16 -66 25 -30 9 -85 36
-121 60 -36 24 -83 53 -105 64 -21 11 -103 81 -181 156 -107 103 -143 144
-148 169 -4 17 -19 52 -34 77 -15 25 -38 87 -51 138 -23 88 -23 99 -13 220 9
103 17 141 42 200 40 95 100 202 117 209 8 3 30 27 49 53 20 27 58 62 85 79
27 17 54 39 60 50 5 11 41 37 78 57 37 21 74 43 82 49 8 7 29 16 47 20 17 3
37 13 44 21 13 16 154 84 173 84 6 0 54 13 106 29 96 30 249 62 370 79 103 15
257 14 267 0z"/>
</g>
</svg>
