<?xml version="1.0" encoding="utf-8" ?><svg xmlns="http://www.w3.org/2000/svg" xmlns:xlink="http://www.w3.org/1999/xlink" width="1024" height="1024" viewBox="0 0 1024 1024"><path transform="scale(2 2)" d="M227.831 94.1477C224.458 91.4883 221.133 86.3736 221.505 81.9163C222.797 66.4256 215.917 50.6403 237.719 50.087L264.53 50.0848C291.05 50.0792 288.764 52.1545 289.928 76.4435C290.313 84.489 289.568 88.2884 283.943 94.1477C287.929 112.452 288.314 131.443 291.653 149.86C302.397 155.129 315.158 163.226 325.434 169.503C341.962 179.599 344.233 181.716 344.234 202.677L344.221 216.759C350.19 218.648 348.299 221.884 347.797 227.006L327.045 425.107C324.075 453.565 322.043 461.009 291.316 460.931L274.348 460.914L229.106 460.915C217.874 460.923 204.021 462.932 194.797 455.712C185.257 448.244 185.88 437.2 184.705 426.349L165.565 238.099C165.05 232.699 161.056 217.064 168.499 216.759L168.482 200.971C168.426 175.685 175.765 177.165 195.164 164.819C203.245 159.675 211.639 155.02 219.706 149.86C223.828 133.744 225.122 111.287 227.831 94.1477ZM232.751 61.2428C232.388 61.9824 232.315 80.6766 233.213 83.5252C236.689 86.1112 247.965 81.0571 248.684 88.7519C249.313 95.4849 243.15 95.2904 238.712 95.3037L233.219 135.4C232.346 141.548 231.584 148.737 230.004 154.657C228.896 158.808 199.198 175.474 194.306 178.351C180.915 186.225 179.406 184.825 179.427 200.88L179.455 216.759L278.921 216.759L333.106 216.759C333.14 182.255 337.179 189.09 306.819 171.427C301.977 168.61 285.34 159.61 282.554 156.302C279.493 152.669 279.072 139.768 278.431 134.983L274.995 109.481C274.405 104.872 273.921 99.8347 273.263 95.3037C267.904 95.3669 264.164 96.0619 262.692 89.7235C265.002 78.9378 277.855 87.9555 278.539 82.5726C279.264 76.8761 278.933 67.2211 278.921 61.2428C276.263 61.071 273.486 61.2188 270.809 61.2327L257.765 61.2392C250.277 61.2372 239.844 60.8796 232.751 61.2428ZM175.914 228.005C175.46 233.509 177.769 250.617 178.495 256.761C198.863 256.734 209.005 255.361 227.15 265.223C244.575 274.694 266.15 274.903 283.792 265.863C297.473 258.853 304.965 256.667 320.69 256.761L333.106 256.761C334.564 249.693 335.766 235.6 336.42 228.005L193.797 227.998C188.47 227.993 181.058 227.757 175.914 228.005ZM179.455 267.755C182.218 290.094 185.214 314.365 186.576 336.793C208.46 346.717 217.919 347.68 241.481 343.105C236.038 321.601 234.066 313.547 257.935 306.739L270.206 303.149C284.044 299.043 304.542 288.362 316.602 297.801C323.451 303.744 324.809 314.323 326.601 322.876L328.849 299.371C329.968 288.727 331.238 278.448 332.04 267.755C310.401 267.719 307.103 266.591 288.052 276.167C267.581 286.457 243.246 286.238 223.012 275.466C205.444 266.114 199.155 267.774 179.455 267.755ZM303.866 304.78C299.493 305.871 294.784 307.427 290.442 308.753L259.293 318.06C253.487 319.771 250.5 319.548 248.553 325.935L264.136 384.346C265.048 387.85 265.326 392.116 268.734 393.767C271.655 393.591 279.236 391.131 282.506 390.165L307.53 382.86C310.717 381.923 317.595 379.679 320.69 379.055C321.041 374.799 323.503 356.391 323.052 353.132C321.391 341.705 315.212 322.328 312.045 310.467C310.916 306.239 308.178 304.259 303.866 304.78ZM188.247 349.82C188.7 355.259 189.417 360.66 189.991 366.088L196.225 428.164C198.618 451.109 199.53 449.708 224.395 449.692L286.684 449.698C295.201 449.701 305.899 451.847 311.654 444.757C314.894 440.767 314.489 434.162 315.225 429.059L317.627 405.892C318.07 401.29 318.732 395.962 318.719 391.406C308.081 394.292 297.442 397.797 286.819 400.836C272.779 404.854 259.296 411.231 254.256 391.64L244.766 353.616C223.73 358.808 208.381 357.69 188.247 349.82Z"/><path transform="scale(2 2)" d="M202.535 211.724C196.66 210.734 190.25 196.964 196.847 192.724C204.188 188.005 221.999 175.815 229.906 173.022C235.726 172.182 238.561 179.306 234.537 182.27C225.662 188.808 214.988 193.778 206.069 200.185C208.782 205.496 210.303 210.408 202.535 211.724Z"/></svg>