<?xml version="1.0" encoding="utf-8" ?><svg xmlns="http://www.w3.org/2000/svg" xmlns:xlink="http://www.w3.org/1999/xlink" width="1024" height="1024" viewBox="0 0 1024 1024"><path transform="scale(2 2)" d="M105.923 136.11C92.8141 137.597 80.9734 128.197 79.4474 115.092C77.9214 101.987 87.2855 90.1179 100.386 88.5521C113.542 86.9797 125.473 96.3928 127.006 109.554C128.538 122.715 119.089 134.618 105.923 136.11ZM100.845 98.9258C93.5065 100.245 88.6285 107.265 89.951 114.603C91.2735 121.94 98.2954 126.815 105.632 125.489C112.965 124.165 117.836 117.148 116.515 109.815C115.193 102.482 108.178 97.6072 100.845 98.9258Z"/><path transform="scale(2 2)" d="M315.461 152.843C310.241 152.021 283.98 150.566 281.564 149.034C274.836 144.768 283.726 137.737 286.769 134.557L315.999 103.247C319.204 99.7924 323.943 92.8534 328.795 92.0845C343.638 92.9636 325.53 108.572 322.639 111.635L304.345 131.267C301.535 134.305 298.538 137.267 295.869 140.4C299.551 140.53 326.902 143.11 328.507 143.88C337.066 147.985 324.879 158.149 321.872 161.52C318.241 165.589 314.451 172.335 308.787 173.507C295.056 170.92 311.984 156.94 315.461 152.843Z"/><path transform="scale(2 2)" d="M182.589 149.676C179.216 152.759 176.512 156.408 173.653 159.936C169.999 164.445 157.812 162.285 169.638 148.099C194.721 118.013 234.314 99.9323 273.43 99.6969C284.683 99.4427 291.427 100.391 302.32 102.584C299.329 105.543 296.931 108.564 294.079 111.614C259.025 105.191 205.424 120.742 182.589 149.676Z"/><path transform="scale(2 2)" d="M327.29 122.147C329.642 119.876 332.498 116.922 334.621 114.473C374.67 137.28 401.32 177.773 403.682 224.173C404.13 227.902 403.197 234.64 404.765 238.037C411.807 253.243 419.619 268.225 426.853 283.32C430.045 290.08 434.744 295.221 431.304 303.053C425.946 315.247 406.254 311.591 394.29 311.682L394.301 338.581C394.302 369.529 390.116 385.701 356.806 385.726L339.564 385.692C336.085 385.655 332.864 385.443 329.226 385.702C307.47 387.253 320.696 421.748 306.354 422.494C300.138 420.741 301.753 415.281 302.963 410.456C309.764 383.326 307.086 375.116 338.383 375.216L355.519 375.239C384.705 375.242 383.684 361.378 383.682 336.348L383.68 301.068C389.138 301.071 417.057 301.689 419.828 300.56C421.025 300.072 421.451 298.584 421.885 297.485C420.095 292.194 415.912 285.166 413.352 279.916C406.867 266.616 399.956 253.146 393.827 239.691C393.333 238.606 393.327 227.656 393.196 225.415C390.565 180.28 366.057 144.438 327.29 122.147Z"/><path transform="scale(2 2)" d="M112.866 169.322C107.869 172.29 97.7767 167.707 111.023 157.043C120.875 149.111 131.365 145.767 143.774 144.854C157.033 143.59 152.78 154.436 150.181 154.66C132.467 156.186 126.655 158.125 112.866 169.322Z"/><path transform="scale(2 2)" d="M162.028 234.377C115.222 235.979 115.548 175.206 156.126 171.349C177.895 169.403 192.751 191.09 188.098 212.018C195.898 213.521 198.585 218.217 201.114 225.062C215.876 230.416 215.855 238.242 215.78 252.339C230.339 245.39 238.738 227.13 236.563 211.501C236.183 208.769 236.077 205.287 239.597 205.359C246.156 205.493 252.748 205.464 259.304 205.466L329.532 205.452C335.444 205.45 344.532 203.712 347.706 208.933C348.422 218.497 339.968 216.068 333.28 216.062L247.793 216.053C246.974 225.466 245.538 233.403 240.997 241.842C229.183 263.797 204.9 273.501 182.589 261.38C175.443 266.199 167.564 268.636 159.251 270.44C164.1 297.583 180.035 322.811 200.565 340.875C214.273 352.935 228.487 356.961 225.421 379.334C223.752 391.602 219.909 405.675 217.396 418.05C216.263 423.628 204.107 429.327 208.565 408.437L211.823 392.577C216.886 368.025 218.772 368.387 199.101 353.26C174.607 334.425 153.104 302.003 148.948 271.088C94.1249 273.942 76.6649 205.441 88.7191 199.809C94.7824 196.976 96.0798 204.337 96.0482 208.421C95.7477 247.278 135.872 271.554 170.794 256.131C177.537 253.153 178.422 248.683 185.067 252.339C183.043 234.932 173.817 247.975 162.028 234.377ZM155.163 182.088C128.353 185.654 129.996 230.745 165.475 222.581C170.947 224.677 168.77 227.538 173.001 230.469C178.311 234.148 192.84 227.95 195.55 249.131C195.744 251.654 195.653 253.468 195.55 255.979C199.004 255.759 201.979 256.181 205.059 255.979C205.088 251.59 205.397 245.77 204.804 241.561C204.071 236.362 197.091 235.856 193.783 233.441C191.009 231.413 191.242 226.37 188.935 223.929C183.91 219.041 179.231 223.854 176.081 214.743C176.714 212.5 177.633 210.262 178.147 208.033C181.456 193.682 169.897 180.257 155.163 182.088Z"/><path transform="scale(2 2)" d="M96.6288 189.371C93.5216 189.626 90.7909 187.326 90.5143 184.22C90.2377 181.115 92.5189 178.368 95.6222 178.07C96.6694 177.97 97.724 178.162 98.668 178.627C100.958 179.752 102.214 182.268 101.738 184.775C101.262 187.282 99.1717 189.162 96.6288 189.371Z"/><path transform="scale(2 2)" d="M292.349 194.597C289.564 195.31 286.716 193.676 285.927 190.91C285.138 188.145 286.693 185.254 289.436 184.389C291.278 183.808 293.291 184.274 294.691 185.605C296.091 186.935 296.658 188.922 296.171 190.791C295.684 192.66 294.221 194.118 292.349 194.597Z"/></svg>