<?xml version="1.0" standalone="no"?>
<!DOCTYPE svg PUBLIC "-//W3C//DTD SVG 20010904//EN"
 "http://www.w3.org/TR/2001/REC-SVG-20010904/DTD/svg10.dtd">
<svg version="1.0" xmlns="http://www.w3.org/2000/svg"
 width="2048.000000pt" height="1536.000000pt" viewBox="0 0 2048.000000 1536.000000"
 preserveAspectRatio="xMidYMid meet">

<g transform="translate(0.000000,1536.000000) scale(0.100000,-0.100000)"
fill="#000000" stroke="none">
<path d="M11887 10832 c-9 -2 -15 -7 -13 -11 3 -3 -4 -42 -14 -86 -10 -44 -18
-87 -18 -95 0 -8 -5 -44 -11 -80 -46 -295 -52 -404 -26 -500 8 -30 15 -79 15
-108 0 -29 4 -51 9 -48 5 4 7 -4 3 -16 -4 -16 -2 -19 8 -13 8 5 11 4 6 -3 -3
-6 0 -42 8 -79 32 -147 68 -390 68 -450 0 -29 3 -53 7 -53 3 0 6 -34 6 -75 0
-57 -4 -79 -18 -96 -18 -20 -18 -22 2 -43 18 -19 22 -37 23 -119 1 -53 5 -91
9 -86 18 30 -7 -104 -29 -154 -14 -32 -25 -65 -25 -73 0 -8 -4 -14 -9 -14 -4
0 -8 -26 -8 -58 0 -32 -5 -63 -11 -69 -13 -13 28 -46 44 -36 6 3 7 1 3 -5 -3
-6 -2 -13 4 -17 5 -3 12 7 15 22 3 15 10 42 15 58 5 17 12 51 15 77 4 26 11
46 15 43 16 -10 32 194 27 341 -5 164 -15 276 -25 284 -9 7 -11 18 -28 215 -8
94 -19 194 -24 223 -6 32 -6 61 -1 70 12 23 8 161 -5 170 -5 4 -11 25 -13 47
-1 22 -8 47 -15 55 -26 32 -24 311 4 445 12 59 18 80 21 80 1 0 3 17 4 38 1
20 -2 37 -8 37 -9 0 -5 112 6 157 6 23 -7 32 -36 25z"/>
<path d="M9275 10813 c-11 -3 -40 -11 -65 -20 -25 -8 -94 -23 -155 -33 -60 -9
-150 -29 -200 -44 -49 -14 -108 -31 -130 -37 -22 -7 -76 -25 -121 -40 -44 -16
-88 -29 -98 -29 -12 0 -16 -5 -12 -16 4 -11 1 -14 -13 -9 -11 3 -25 -1 -34
-10 -9 -8 -20 -15 -26 -15 -6 0 -19 -8 -29 -17 -9 -10 -42 -26 -72 -37 -30
-10 -75 -30 -99 -43 -50 -29 -216 -190 -252 -245 -13 -21 -27 -38 -31 -38 -5
0 -8 -7 -8 -15 0 -8 -5 -15 -11 -15 -5 0 -7 -4 -4 -10 3 -5 1 -10 -4 -10 -6 0
-11 -12 -11 -26 0 -14 -4 -23 -10 -19 -9 5 -11 1 -10 -20 0 -3 -9 -15 -20 -28
-31 -33 -63 -86 -65 -110 -1 -12 -3 -28 -4 -35 0 -7 -5 -10 -11 -7 -5 3 -10
-3 -10 -14 0 -11 -5 -23 -10 -26 -6 -4 -8 -11 -5 -16 4 -5 1 -9 -4 -9 -6 0
-11 -11 -11 -25 0 -14 -4 -25 -10 -25 -5 0 -10 -13 -10 -30 0 -17 -7 -33 -17
-39 -10 -6 -15 -11 -11 -11 4 0 2 -13 -3 -30 -6 -16 -15 -27 -20 -24 -5 3 -9
-7 -9 -23 0 -15 -11 -48 -25 -72 -14 -23 -25 -50 -25 -58 0 -8 -6 -27 -14 -41
-24 -48 -36 -76 -40 -104 -2 -14 -9 -35 -15 -46 -6 -12 -11 -33 -11 -47 0 -14
-5 -36 -12 -48 -11 -20 -18 -130 -18 -307 -1 -34 -4 -53 -14 -68 -4 -7 -10
-70 -12 -140 -4 -141 -13 -300 -19 -349 -3 -18 0 -33 5 -33 13 0 11 -72 -4
-144 -14 -69 -24 -75 -139 -77 -37 -1 -69 -5 -72 -8 -2 -4 -20 -6 -39 -5 -20
2 -36 0 -36 -5 0 -4 -13 -6 -29 -3 -33 5 -181 -24 -214 -41 -12 -7 -38 -24
-58 -39 -20 -16 -40 -28 -45 -28 -5 -1 -20 -15 -34 -33 -14 -17 -51 -58 -82
-90 -32 -33 -58 -62 -58 -65 0 -3 -11 -20 -25 -38 -14 -18 -25 -41 -25 -51 0
-31 -12 -63 -21 -57 -9 5 -11 -19 -11 -136 0 -125 2 -145 11 -131 7 11 11 4
16 -25 4 -21 9 -47 12 -58 3 -11 1 -16 -5 -12 -6 4 -10 -2 -9 -13 0 -11 5 -17
9 -14 5 2 6 -8 3 -24 -5 -21 -4 -24 4 -13 8 12 11 6 11 -26 0 -32 7 -49 29
-73 17 -18 29 -33 29 -34 -2 -3 55 -90 69 -104 6 -7 14 -13 18 -13 3 0 15 -9
27 -20 12 -10 25 -17 30 -14 4 3 8 1 8 -5 0 -6 6 -8 13 -5 7 2 31 -8 53 -24
59 -43 178 -82 261 -86 39 -2 77 -7 83 -11 7 -4 16 -2 20 5 5 8 56 16 150 22
134 9 145 9 169 -10 25 -18 26 -23 29 -133 4 -200 8 -253 24 -309 9 -30 20
-88 24 -128 3 -40 12 -79 18 -85 6 -7 13 -21 14 -32 2 -11 9 -23 15 -27 7 -4
12 -11 12 -15 1 -23 40 -133 47 -133 4 0 7 -3 7 -7 -3 -20 2 -34 11 -28 6 3
10 -5 10 -19 0 -31 10 -57 20 -51 4 2 8 -7 8 -21 0 -15 4 -29 10 -33 6 -3 13
-18 17 -33 4 -15 13 -29 22 -32 8 -3 11 -10 8 -16 -3 -5 6 -25 21 -44 15 -18
28 -45 30 -60 1 -14 10 -33 18 -42 9 -8 16 -22 16 -30 0 -8 4 -22 9 -32 5 -9
20 -39 32 -65 13 -26 31 -56 39 -66 22 -25 40 -53 46 -73 3 -9 12 -19 20 -22
8 -3 14 -12 14 -21 0 -8 5 -15 10 -15 6 0 10 -7 10 -16 0 -8 5 -12 10 -9 6 3
10 2 10 -4 0 -13 94 -111 107 -111 11 0 27 -29 25 -42 -1 -4 7 -10 18 -13 11
-4 20 -12 20 -20 0 -11 11 -19 32 -24 4 -1 23 -17 41 -36 33 -34 187 -140 187
-129 0 3 14 -6 31 -20 17 -14 36 -23 41 -20 6 4 8 3 5 -3 -3 -5 17 -21 46 -34
29 -13 93 -47 142 -75 54 -31 114 -56 150 -63 33 -7 70 -17 83 -22 13 -5 37
-9 54 -9 17 0 40 -7 49 -16 12 -10 48 -20 96 -25 93 -9 462 -10 658 0 77 4
147 4 156 -1 9 -4 21 -2 26 3 7 7 25 6 57 -5 56 -19 68 -20 85 -3 9 9 81 12
284 13 309 2 316 2 452 20 55 7 127 11 160 9 93 -5 365 -7 645 -3 140 2 267 0
282 -4 15 -3 45 0 68 8 34 12 61 13 138 5 109 -11 296 0 331 19 19 10 31 8 70
-9 50 -21 91 -19 91 6 0 8 4 12 9 8 11 -6 18 3 25 36 15 68 25 102 35 112 15
15 14 54 -1 59 -14 5 -15 38 -9 368 4 180 -2 301 -14 321 -4 6 -3 14 4 18 6 4
9 22 7 41 -9 70 -10 390 -3 570 4 102 7 204 7 228 0 24 4 41 9 38 9 -6 23 152
25 274 1 41 7 85 14 98 7 12 10 22 7 22 -3 0 4 9 16 21 20 20 27 21 150 14 93
-5 133 -4 143 4 8 7 59 15 113 18 54 3 107 10 117 15 11 6 46 17 79 25 56 13
187 91 187 112 0 4 11 13 24 20 13 7 31 30 40 50 25 56 42 82 49 74 7 -6 11
12 8 30 -1 4 6 10 14 13 9 4 15 19 15 36 0 16 4 27 8 24 4 -2 9 7 10 22 1 15
11 52 21 82 18 52 18 104 0 115 -4 3 -6 12 -2 20 3 8 0 15 -6 15 -8 0 -9 13
-5 41 7 42 -4 76 -38 114 -9 11 -24 36 -33 55 -29 65 -47 87 -110 135 -22 16
-51 41 -65 55 -37 37 -174 103 -223 107 -72 6 -91 9 -120 21 -16 7 -37 12 -47
12 -10 0 -21 4 -24 8 -3 5 -78 8 -168 7 -101 -1 -182 3 -213 11 -44 11 -130
11 -235 0 -66 -7 -605 -7 -625 -1 -17 6 -18 5 -5 -5 12 -10 12 -11 -5 -4 -11
4 -74 8 -141 9 -105 0 -123 2 -139 19 -34 34 -48 70 -51 131 -5 82 -6 89 -15
96 -5 3 -10 33 -11 66 -1 34 -5 60 -9 57 -9 -5 -19 21 -19 47 0 11 -4 17 -10
14 -5 -3 -11 0 -11 7 -1 7 -3 20 -4 28 -1 8 -3 25 -4 38 0 13 -5 20 -11 17
-10 -6 -14 12 -10 54 1 13 -3 21 -8 17 -5 -3 -12 16 -16 44 -4 31 -11 49 -19
47 -7 -1 -12 7 -12 18 0 11 -2 22 -5 25 -13 12 -39 94 -33 103 4 6 1 7 -7 2
-10 -6 -12 -4 -7 8 7 20 -2 49 -13 42 -4 -3 -10 4 -13 15 -3 11 -1 18 3 15 4
-3 3 11 -3 30 -6 19 -14 35 -17 35 -4 0 -7 12 -7 27 0 15 -5 29 -11 31 -6 2
-9 9 -6 17 3 7 1 16 -5 20 -6 3 -11 15 -11 26 0 11 -4 17 -10 14 -8 -5 -15 8
-8 18 3 4 -65 122 -74 128 -5 3 -9 10 -8 15 2 18 -53 142 -87 194 -13 19 -23
42 -23 50 0 22 -36 91 -44 83 -3 -3 -9 8 -12 26 -4 17 -11 34 -15 37 -5 3 -9
14 -9 25 0 10 -3 19 -7 19 -5 0 -19 18 -33 40 -13 22 -28 40 -32 40 -4 0 -8
10 -8 22 0 12 -3 18 -6 15 -6 -6 -44 35 -44 47 0 3 -9 15 -20 26 -12 12 -18
25 -15 30 4 6 0 13 -9 16 -8 3 -25 22 -39 42 -34 51 -265 282 -282 282 -6 0
-23 13 -56 43 -10 9 -19 15 -19 13 0 -3 -21 15 -47 40 -27 24 -54 44 -61 44
-7 0 -15 7 -18 15 -3 8 -15 17 -26 21 -31 9 -88 65 -81 78 3 6 3 8 -1 4 -4 -3
-27 12 -51 35 -68 66 -79 73 -132 91 -28 9 -59 23 -69 31 -31 23 -75 18 -107
-12 -25 -24 -28 -25 -18 -6 6 12 11 24 11 27 0 9 -85 36 -125 40 -22 2 -51 7
-65 10 -52 14 -384 28 -425 19z m-40 -123 c64 -8 124 -7 207 1 65 6 126 8 136
4 9 -4 58 -7 107 -6 50 1 106 -3 125 -8 19 -5 89 -24 155 -42 l119 -33 121
-116 c143 -135 203 -186 265 -222 25 -15 72 -54 105 -87 33 -34 67 -61 76 -61
18 0 62 -46 92 -98 12 -21 52 -67 89 -103 37 -37 68 -73 68 -80 0 -8 18 -47
40 -86 22 -40 36 -73 33 -73 -4 0 3 -10 15 -22 11 -13 30 -49 42 -80 11 -31
30 -68 40 -81 11 -14 20 -33 20 -43 0 -9 32 -64 72 -122 39 -58 72 -117 73
-131 5 -64 18 -102 32 -97 10 4 13 -1 11 -17 -5 -47 61 -217 96 -246 10 -8 16
-29 16 -53 0 -37 38 -130 59 -142 19 -12 91 -271 107 -386 3 -25 8 -52 11 -60
12 -32 1 -95 -20 -118 -20 -22 -24 -22 -195 -17 -95 3 -172 2 -169 -2 3 -4
-58 -7 -136 -6 -77 1 -144 0 -149 -3 -7 -4 -183 -6 -418 -5 -105 1 -345 -7
-410 -14 -110 -11 -110 -11 -109 -108 1 -45 4 -93 8 -107 4 -14 4 -36 -2 -50
-5 -14 -8 -191 -7 -405 0 -209 1 -391 1 -405 0 -14 -6 -63 -12 -110 -7 -51
-12 -286 -14 -585 -2 -275 -6 -563 -10 -640 -3 -77 -5 -165 -4 -195 3 -55 3
-279 0 -520 -1 -69 -7 -151 -13 -182 -12 -60 -19 -65 -83 -73 -16 -2 -55 -8
-85 -14 -35 -7 -136 -9 -275 -6 -121 3 -245 5 -275 5 -30 0 -80 7 -110 15 -30
8 -72 15 -92 15 -21 0 -38 4 -38 9 0 5 -10 13 -22 17 -44 13 -105 43 -117 57
-6 8 -32 18 -56 22 -25 3 -45 12 -45 18 -1 13 -123 107 -140 107 -5 0 -10 4
-10 10 0 5 -35 34 -77 64 -120 84 -333 312 -333 357 0 5 -4 9 -10 9 -5 0 -10
11 -10 24 0 13 -4 26 -8 28 -36 15 -174 258 -187 331 -4 21 -16 42 -26 47 -11
7 -20 27 -25 56 -7 51 -16 72 -53 122 -13 19 -28 52 -33 75 -5 23 -15 49 -23
57 -8 9 -26 60 -41 115 -26 94 -28 115 -31 364 -5 297 -2 285 -82 310 -50 15
-153 16 -180 2 -9 -5 -100 -7 -201 -5 -174 4 -275 18 -264 36 11 18 -26 7 -39
-12 -16 -23 -27 -16 -27 17 0 14 -4 21 -10 18 -5 -3 -10 -1 -10 5 0 6 -10 14
-23 19 -13 5 -52 34 -88 65 -50 42 -69 66 -78 98 -7 24 -24 56 -37 72 -50 59
-57 90 -56 247 l2 146 44 89 c53 109 144 219 206 251 85 43 194 64 406 77 167
10 207 16 235 32 46 27 50 70 13 150 -23 49 -28 74 -28 141 -1 47 3 79 8 75 5
-3 7 2 3 11 -3 10 -2 17 3 17 5 0 12 36 16 80 3 44 11 83 15 86 5 3 9 77 9
165 0 108 4 166 12 179 10 16 9 25 -5 49 -22 38 -22 38 13 56 29 15 30 18 30
84 0 65 42 255 74 333 8 18 17 54 20 80 4 26 13 53 19 60 21 22 54 81 66 119
7 20 42 86 78 145 72 118 112 193 113 210 0 5 40 45 90 88 49 43 124 118 165
167 72 83 152 148 202 163 12 4 31 18 41 31 14 18 58 37 153 69 156 52 282 86
318 86 14 1 37 7 51 15 30 17 129 19 255 5z m2273 -2694 c71 -13 104 -32 124
-69 9 -18 26 -96 53 -242 21 -114 31 -153 45 -170 17 -21 51 -175 57 -258 2
-37 11 -80 18 -94 8 -15 12 -30 9 -34 -2 -4 7 -31 21 -61 40 -85 30 -147 -28
-180 -14 -8 -89 -15 -212 -19 -104 -3 -198 -9 -208 -13 -9 -5 -19 -18 -21 -30
-2 -11 -11 -60 -20 -107 -9 -47 -14 -94 -10 -105 4 -14 3 -15 -4 -5 -7 9 -11
-4 -16 -45 -14 -116 -48 -309 -57 -320 -5 -6 -5 -15 -1 -19 4 -5 1 -5 -6 -1
-18 11 -52 -70 -45 -106 4 -20 -2 -39 -19 -66 -14 -21 -29 -53 -33 -72 -4 -19
-20 -62 -35 -95 -16 -33 -52 -112 -80 -175 -28 -63 -69 -137 -89 -165 -54 -72
-114 -168 -114 -182 0 -7 -4 -10 -8 -7 -5 3 -11 -7 -15 -21 -3 -14 -10 -25
-14 -25 -4 0 -17 -25 -29 -56 -22 -58 -70 -128 -106 -154 -31 -22 -84 -80 -90
-99 -3 -9 -30 -31 -60 -49 -30 -18 -55 -40 -55 -48 0 -8 -9 -14 -21 -14 -11 0
-99 -40 -195 -90 -242 -124 -258 -118 -248 85 3 61 4 155 2 210 -1 55 -2 145
0 200 1 55 2 138 2 185 0 47 5 95 12 108 8 16 9 32 1 55 -11 35 -10 113 2 193
6 41 4 57 -9 75 -21 30 -20 44 5 96 17 35 19 49 10 74 -7 20 -7 47 -1 81 12
60 13 132 3 142 -4 4 -5 44 -3 89 3 45 4 137 2 205 -1 67 1 122 5 122 14 0 19
764 5 896 -6 55 -7 116 -3 135 4 19 3 50 -3 70 -8 31 -6 44 15 83 l24 48 194
1 c139 2 195 5 198 14 4 12 31 10 130 -8 40 -8 65 -6 115 7 48 13 114 18 277
20 118 1 235 5 261 9 25 3 57 2 72 -4 19 -7 39 -6 70 3 24 8 45 14 48 15 3 1
38 -5 78 -13z m1513 -6 c249 -1 378 -28 478 -100 22 -17 50 -30 62 -30 33 0
54 -16 93 -70 22 -30 41 -48 48 -44 7 4 8 3 4 -5 -5 -8 3 -16 23 -24 26 -9 31
-18 37 -57 4 -25 20 -72 37 -105 26 -53 29 -65 23 -121 -9 -90 -30 -151 -76
-222 -23 -35 -42 -72 -43 -82 -1 -10 -5 -16 -9 -14 -4 3 -8 0 -8 -6 0 -17 -53
-67 -80 -75 -13 -4 -30 -14 -38 -21 -7 -8 -19 -14 -27 -14 -7 0 -15 -6 -18
-14 -3 -9 -20 -14 -43 -14 -20 0 -40 -5 -44 -12 -4 -6 -10 -11 -14 -10 -16 4
-66 -13 -61 -20 3 -5 -66 -9 -152 -9 -222 0 -335 -5 -359 -19 -32 -17 -48 -85
-51 -222 -1 -69 -5 -141 -9 -160 -3 -19 -7 -66 -9 -105 -2 -38 -9 -137 -16
-220 -17 -200 -18 -640 -2 -725 15 -78 17 -157 3 -165 -5 -3 -7 -64 -3 -153 3
-81 6 -208 7 -282 2 -125 0 -138 -21 -172 -17 -28 -30 -38 -48 -38 -14 0 -25
-3 -25 -7 0 -5 -62 -7 -137 -6 -79 2 -152 -2 -172 -8 -23 -8 -35 -8 -40 -1 -4
7 -51 12 -116 13 -140 2 -249 5 -400 14 -78 4 -136 2 -165 -5 -25 -6 -51 -11
-57 -11 -100 4 -126 2 -133 -9 -5 -8 -19 -10 -41 -6 -19 4 -59 6 -89 4 -30 -1
-77 -1 -105 1 -53 4 -77 4 -218 -1 -49 -2 -91 0 -93 4 -2 4 -26 5 -52 2 -26
-3 -124 -6 -217 -9 -94 -2 -177 -7 -186 -10 -9 -3 -28 -4 -43 -1 -15 3 -53 0
-83 -5 -46 -9 -58 -8 -71 4 -13 13 -12 18 4 41 11 14 32 30 47 37 15 6 36 22
46 35 10 13 21 21 24 18 3 -3 8 4 12 16 4 13 12 19 21 16 7 -3 36 6 63 19 27
14 54 25 60 25 6 0 11 5 11 11 0 5 5 7 10 4 6 -3 10 1 10 9 0 9 4 16 8 16 11
0 60 38 105 83 21 20 42 37 47 37 5 0 12 10 16 23 4 12 33 55 65 94 33 40 59
77 59 82 0 5 6 14 14 21 8 6 12 19 9 27 -4 10 -2 14 4 10 12 -8 36 40 27 55
-3 5 3 18 15 29 12 11 19 24 17 28 -3 5 10 26 29 48 19 22 31 44 27 48 -4 5
-2 5 4 2 13 -7 47 30 39 43 -4 6 -2 10 4 10 5 0 15 16 22 35 7 19 17 35 21 35
4 0 8 8 8 18 0 26 75 170 100 192 10 9 29 63 36 105 4 22 14 56 24 75 10 19
21 53 25 75 4 22 11 46 17 53 6 6 8 12 5 12 -11 0 16 76 34 95 11 12 22 47 28
85 5 36 21 132 35 214 14 82 26 163 26 180 1 38 18 62 56 76 32 13 223 13 351
2 82 -8 130 -1 118 17 -3 6 2 14 10 18 14 8 13 16 -4 69 -30 89 -92 349 -102
425 -8 66 -33 135 -56 154 -6 6 -14 49 -16 100 -3 50 -11 117 -17 150 -7 33
-13 67 -14 75 -5 36 -28 100 -36 100 -4 0 -7 10 -5 23 10 79 28 84 340 80 143
-2 267 -3 275 -2 108 5 272 3 276 -3 12 -19 214 6 210 26 -2 6 -1 8 1 4 2 -4
90 -7 194 -8z m-6434 -612 c-3 -8 -6 -5 -6 6 -1 11 2 17 5 13 3 -3 4 -12 1
-19z m3383 -1558 c0 -5 -4 -10 -10 -10 -5 0 -10 5 -10 10 0 6 5 10 10 10 6 0
10 -4 10 -10z"/>
<path d="M12467 9523 c-14 -4 -16 -12 -11 -46 4 -23 11 -53 16 -66 4 -13 5
-45 2 -72 -4 -27 -3 -49 2 -49 16 0 10 -153 -6 -178 -14 -21 -13 -24 3 -37 16
-11 18 -32 20 -166 l2 -154 -33 -72 c-23 -51 -32 -85 -30 -117 0 -25 -4 -51
-11 -59 -9 -12 -5 -20 23 -41 19 -14 37 -22 40 -17 4 5 12 40 20 78 8 37 21
88 30 113 21 61 40 259 33 345 -4 39 -9 106 -12 150 -4 44 -11 96 -18 115 -16
52 -17 58 -23 150 -6 98 -11 130 -22 129 -4 -1 -15 -3 -25 -6z"/>
</g>
</svg>
