<?xml version="1.0" standalone="no"?>
<!DOCTYPE svg PUBLIC "-//W3C//DTD SVG 20010904//EN"
 "http://www.w3.org/TR/2001/REC-SVG-20010904/DTD/svg10.dtd">
<svg version="1.0" xmlns="http://www.w3.org/2000/svg"
 width="2048.000000pt" height="1536.000000pt" viewBox="0 0 2048.000000 1536.000000"
 preserveAspectRatio="xMidYMid meet">

<g transform="translate(0.000000,1536.000000) scale(0.100000,-0.100000)"
fill="#000000" stroke="none">
<path d="M10160 11140 c-74 -4 -269 -13 -432 -19 -296 -12 -346 -18 -538 -66
-36 -9 -86 -30 -111 -46 -25 -16 -50 -29 -55 -29 -5 0 -32 -23 -59 -51 -28
-27 -66 -60 -85 -71 -56 -34 -90 -68 -138 -143 -58 -89 -88 -159 -97 -221 -4
-27 -12 -54 -17 -61 -5 -6 -6 -22 -3 -36 4 -14 -1 -46 -10 -73 -10 -27 -19
-71 -20 -99 -2 -27 -4 -50 -4 -50 -3 0 -2 -515 0 -680 2 -104 1 -263 -2 -353
-3 -89 -2 -165 3 -168 4 -3 8 -30 8 -59 0 -63 -8 -71 -101 -103 -81 -28 -184
-94 -230 -146 -23 -25 -75 -73 -117 -106 -73 -56 -111 -97 -252 -268 -72 -87
-190 -317 -190 -370 0 -18 -8 -54 -19 -80 -28 -72 -61 -186 -61 -213 0 -14 -7
-34 -15 -45 -8 -10 -15 -32 -15 -47 0 -15 -7 -44 -15 -64 -12 -28 -17 -97 -21
-292 -7 -272 -8 -400 -5 -441 1 -14 -1 -79 -5 -145 -5 -100 -2 -149 19 -290
16 -109 25 -214 25 -292 0 -67 4 -128 9 -135 4 -7 8 -101 9 -208 0 -107 6
-287 13 -400 7 -113 13 -232 12 -265 -1 -33 -2 -163 -2 -290 0 -185 3 -241 17
-285 18 -62 21 -107 8 -120 -14 -14 -197 -14 -324 -1 -187 19 -231 35 -335
116 -33 26 -79 55 -102 66 -24 10 -43 23 -43 29 0 6 -24 37 -53 68 -30 31 -64
75 -77 97 -13 22 -31 49 -40 60 -21 24 -42 97 -65 219 -9 49 -24 103 -33 120
-14 27 -17 87 -19 506 -2 261 -6 565 -9 675 -5 177 -5 349 -2 610 1 44 0 215
-1 380 -2 202 1 315 8 345 17 64 -4 134 -40 138 -14 2 -31 -3 -37 -11 -7 -8
-13 -91 -16 -233 -2 -120 -4 -226 -5 -234 0 -8 2 -76 5 -150 6 -150 6 -151 1
-405 -2 -100 0 -193 6 -210 7 -23 5 -40 -7 -69 -12 -29 -13 -42 -5 -52 8 -10
12 -116 13 -342 1 -180 5 -332 8 -338 4 -6 8 -125 9 -265 1 -244 3 -259 30
-369 16 -63 29 -136 29 -163 0 -94 51 -193 161 -312 25 -27 56 -67 68 -87 12
-21 39 -50 59 -66 61 -48 273 -149 338 -161 32 -6 72 -21 89 -33 27 -20 39
-21 165 -20 74 2 153 5 175 8 25 3 54 0 76 -10 31 -13 75 -14 290 -9 233 6
330 7 377 3 44 -3 310 28 331 39 14 8 37 10 58 6 20 -3 140 -9 267 -11 127 -3
265 -7 306 -8 133 -6 463 -6 545 -1 112 8 113 8 185 -5 36 -6 97 -13 135 -15
39 -2 79 -5 90 -5 46 -3 368 12 464 20 58 6 134 10 171 10 36 0 92 5 123 11
46 8 63 7 86 -4 21 -11 44 -12 105 -5 49 6 126 6 205 0 83 -7 144 -7 181 0 38
7 72 6 112 -2 31 -6 69 -8 84 -4 14 4 63 1 108 -6 65 -10 112 -10 236 0 85 7
283 11 440 11 337 -2 781 -3 830 -2 36 1 147 -2 416 -12 l151 -6 16 29 c34 58
16 116 -84 265 -104 156 -169 260 -169 271 0 6 -13 30 -28 55 -16 24 -36 67
-45 94 -10 28 -39 88 -66 135 -27 47 -76 139 -110 205 -33 66 -68 127 -77 136
-22 24 -104 189 -104 210 0 10 -10 30 -23 46 -13 15 -32 51 -42 78 -10 28 -32
72 -48 98 -16 27 -40 82 -52 122 -14 43 -37 90 -55 112 -17 21 -46 70 -63 109
-18 39 -45 85 -60 103 -15 18 -27 39 -27 46 0 26 -42 111 -81 163 -22 28 -48
81 -59 116 -11 34 -30 79 -43 97 -13 19 -29 49 -35 67 -6 17 -25 52 -42 77
-17 25 -43 71 -57 103 -13 31 -33 66 -43 77 -9 11 -20 32 -24 48 -4 15 -20 49
-36 76 -17 26 -30 53 -30 58 0 5 -9 18 -20 28 -11 10 -29 42 -40 73 -18 46
-167 336 -190 367 -11 16 -85 154 -183 345 -49 96 -101 190 -114 208 -27 36
-143 260 -143 277 0 5 -10 21 -21 35 -48 60 -120 173 -173 275 -32 61 -79 137
-104 170 -46 61 -68 102 -61 109 10 10 192 8 267 -3 82 -12 86 -11 190 19 110
32 129 41 172 80 14 12 69 61 122 107 106 92 246 265 272 336 8 23 36 98 62
167 25 69 54 148 65 177 24 66 42 187 34 234 -4 20 -7 51 -7 70 -1 48 -49 106
-97 119 -56 15 -490 31 -558 20 -52 -8 -150 -13 -515 -25 l-116 -4 -39 37
c-168 160 -202 197 -233 247 -41 67 -274 281 -317 291 -16 4 -43 24 -61 46
-19 21 -39 38 -45 38 -7 0 -44 16 -82 35 -39 19 -95 39 -124 45 -57 11 -67 11
-281 0z m-100 -111 c0 -10 -18 -35 -41 -56 -56 -52 -87 -108 -104 -188 -8 -38
-18 -71 -23 -74 -12 -8 -32 -114 -32 -170 0 -25 -6 -80 -14 -121 -15 -77 -19
-242 -10 -410 8 -133 8 -150 -1 -470 -4 -157 -9 -402 -11 -545 -5 -376 -8
-460 -16 -462 -17 -5 -39 11 -59 43 -22 36 -250 194 -280 194 -9 0 -39 15 -65
33 -27 18 -62 38 -79 45 -44 17 -243 52 -295 52 -25 0 -62 5 -82 10 -29 8 -50
7 -92 -5 -56 -17 -138 -13 -163 7 -6 5 -14 41 -18 81 -3 40 -11 108 -16 153
-9 65 -7 93 6 150 13 56 16 124 16 359 -1 579 -2 565 19 630 13 42 18 84 17
140 -2 79 -1 82 50 181 65 123 85 143 263 261 30 20 74 53 97 74 52 48 162 84
231 77 26 -3 106 -1 177 4 72 5 177 12 235 16 58 4 147 8 198 8 83 2 92 0 92
-17z m416 10 c2 -4 27 -15 55 -24 91 -30 132 -58 271 -185 28 -25 56 -49 64
-53 7 -4 28 -29 45 -55 18 -26 55 -72 84 -102 28 -30 63 -74 78 -97 15 -23 47
-56 72 -73 25 -17 45 -36 45 -43 0 -21 125 -89 151 -82 46 11 309 17 459 11
58 -2 206 -7 330 -11 124 -4 234 -7 245 -8 11 0 40 3 65 7 37 6 50 4 69 -11
21 -17 22 -22 13 -73 -8 -43 -7 -59 4 -74 8 -11 14 -30 14 -41 0 -39 -42 -190
-67 -238 -13 -26 -31 -79 -39 -118 -9 -38 -26 -83 -38 -99 -11 -16 -45 -64
-75 -107 -57 -84 -249 -285 -293 -309 -15 -8 -36 -14 -48 -14 -11 0 -39 -10
-62 -21 -61 -31 -164 -41 -292 -29 -66 7 -113 7 -120 2 -6 -5 -40 -12 -75 -14
-47 -3 -67 -9 -77 -23 -20 -28 -17 -69 7 -91 12 -10 37 -50 56 -89 19 -38 45
-84 58 -100 12 -17 39 -62 59 -100 59 -112 139 -242 167 -272 14 -15 33 -49
43 -74 9 -26 35 -75 56 -110 22 -35 56 -95 76 -134 20 -38 44 -81 54 -95 35
-50 69 -120 80 -162 6 -24 25 -62 41 -85 16 -23 29 -49 29 -58 0 -9 17 -36 38
-60 21 -24 47 -60 57 -81 11 -20 30 -47 43 -60 13 -14 22 -35 22 -53 0 -20 7
-34 20 -41 11 -6 20 -19 20 -29 0 -10 23 -60 51 -112 28 -52 71 -139 96 -194
25 -55 53 -109 64 -121 10 -11 19 -30 19 -41 0 -11 7 -26 15 -33 8 -7 15 -21
15 -32 0 -11 11 -33 24 -49 14 -16 33 -53 44 -82 23 -60 73 -148 108 -190 13
-16 24 -33 24 -39 0 -24 84 -195 110 -223 18 -20 30 -46 34 -77 5 -32 23 -71
58 -125 28 -43 67 -113 85 -157 18 -43 42 -90 52 -105 10 -14 41 -75 70 -136
29 -60 60 -119 70 -130 10 -11 21 -33 25 -50 4 -16 18 -47 32 -68 14 -21 40
-72 59 -113 19 -41 58 -116 88 -167 30 -50 87 -155 127 -232 41 -77 81 -150
90 -162 9 -12 32 -57 50 -100 18 -43 55 -107 81 -143 25 -36 54 -81 64 -100
10 -19 31 -54 47 -76 18 -25 28 -51 26 -65 -3 -22 -9 -24 -83 -30 -52 -5 -99
-2 -135 6 -41 10 -208 13 -675 14 -341 1 -631 2 -645 2 -14 0 -83 0 -153 -1
-80 -1 -133 3 -142 10 -7 6 -23 36 -35 68 -34 87 -125 289 -165 364 -20 37
-44 92 -55 123 -10 30 -37 81 -58 113 -54 80 -127 210 -141 253 -6 20 -25 57
-41 83 -17 26 -30 50 -30 54 0 4 -20 41 -45 82 -24 41 -45 82 -45 91 0 9 -16
34 -35 55 -20 21 -39 50 -42 64 -9 40 -41 97 -57 103 -7 3 -24 36 -36 74 -48
144 -313 621 -355 637 -9 3 -13 11 -10 17 4 6 -2 20 -13 32 -11 12 -32 48 -45
79 -14 32 -39 77 -56 101 -17 25 -43 78 -60 118 -38 97 -111 239 -122 239 -4
0 -13 19 -19 43 -7 23 -22 53 -35 67 -12 14 -26 36 -30 50 -4 14 -38 86 -75
161 -38 74 -79 161 -90 193 -12 32 -34 72 -50 89 -30 35 -60 89 -60 109 0 7
-23 48 -50 92 -28 43 -59 95 -70 116 -11 21 -32 51 -47 67 -15 16 -48 66 -73
112 -25 45 -59 101 -76 124 -38 51 -45 75 -33 124 5 22 5 146 0 288 -6 160 -6
327 1 465 6 118 12 458 13 755 2 364 6 560 14 603 7 35 9 72 6 83 -5 14 0 28
15 44 11 12 20 33 19 46 -4 49 2 69 30 101 15 18 31 43 35 56 10 30 74 92 96
92 9 0 25 10 36 21 37 42 92 58 192 57 51 -1 95 -5 98 -9z m-1288 -2259 c74
-15 126 -35 246 -95 134 -67 161 -84 228 -150 42 -41 94 -103 115 -138 l38
-62 3 -235 c2 -135 -1 -265 -7 -305 -8 -50 -8 -136 0 -305 6 -129 13 -282 15
-340 8 -211 15 -1046 11 -1300 -1 -69 1 -262 3 -430 4 -223 1 -328 -8 -390 -9
-59 -11 -108 -5 -160 5 -41 6 -124 3 -185 -4 -65 -2 -155 6 -220 13 -118 11
-130 -14 -140 -31 -12 -395 -13 -636 -1 -137 7 -266 9 -305 4 -36 -4 -77 -4
-91 0 -32 11 -439 -6 -466 -19 -13 -7 -78 -8 -180 -4 -87 3 -177 5 -199 5 -22
-1 -71 -2 -110 -3 l-70 -2 -16 80 c-10 44 -18 105 -18 135 -1 30 -5 81 -11
114 -6 37 -6 135 1 275 8 189 7 230 -8 331 -16 104 -22 379 -12 510 2 19 -5
73 -15 119 -15 69 -16 92 -7 135 15 65 15 55 -1 161 -7 51 -12 146 -10 217 2
69 -1 152 -7 184 -13 68 4 687 20 748 6 21 12 65 14 96 1 32 10 73 20 93 9 20
14 45 10 56 -10 32 99 382 150 481 13 25 37 75 53 112 40 88 100 175 153 222
24 21 68 59 97 85 29 25 72 64 95 86 92 88 211 161 308 188 30 9 80 28 110 41
51 23 65 25 229 25 135 1 196 -4 268 -19z m782 -642 c17 -18 47 -64 67 -103
20 -38 54 -96 76 -129 50 -75 237 -440 237 -465 0 -10 6 -24 14 -30 8 -7 29
-47 47 -89 17 -42 39 -88 49 -102 23 -34 130 -254 130 -267 0 -7 11 -24 23
-40 13 -15 27 -40 30 -54 4 -15 23 -46 42 -69 19 -23 35 -53 35 -66 0 -13 25
-60 55 -105 30 -45 55 -86 56 -93 0 -6 14 -31 29 -56 16 -25 36 -60 44 -77 8
-18 26 -48 39 -65 51 -68 157 -256 163 -289 4 -19 18 -50 31 -69 12 -19 23
-39 23 -43 0 -15 200 -358 232 -399 16 -21 47 -79 68 -129 22 -50 44 -96 49
-103 5 -6 21 -45 35 -86 15 -41 36 -84 46 -95 11 -11 29 -43 41 -70 12 -28 28
-57 35 -65 7 -9 20 -36 29 -60 9 -25 24 -54 35 -65 21 -22 76 -116 128 -215
18 -36 54 -100 79 -143 24 -42 47 -95 50 -117 l6 -40 -49 -2 c-107 -4 -520 -8
-714 -7 -113 0 -349 -5 -525 -12 -176 -6 -383 -11 -460 -10 -77 1 -149 1 -160
0 -139 -7 -155 0 -155 65 0 22 -5 59 -10 82 -6 25 -6 124 1 265 12 268 10 159
11 739 2 849 -3 1459 -14 1680 -15 317 -12 990 5 1018 11 17 14 16 47 -20z"/>
<path d="M10505 10306 c-41 -18 -83 -69 -90 -110 -12 -60 39 -124 128 -161 60
-25 83 -20 134 31 44 45 45 47 40 94 -9 72 -32 109 -80 130 -62 27 -98 31
-132 16z"/>
</g>
</svg>
