<?xml version="1.0" encoding="utf-8" ?><svg xmlns="http://www.w3.org/2000/svg" xmlns:xlink="http://www.w3.org/1999/xlink" width="1024" height="1024" viewBox="0 0 1024 1024"><path transform="scale(2 2)" d="M108.706 199.439C106.64 197.357 104.222 193.124 102.616 190.563L92.8224 174.694C87.5765 166.165 78.1656 158.507 91.4359 155.256L119.069 148.728C124.989 147.298 129.799 147.19 133.817 142.302C142.909 131.241 152.391 120.511 161.345 109.331C163.08 107.166 165.148 104.489 167.226 102.718C170.539 102.566 245.117 116.588 246.053 117.049C251.624 119.794 243.534 129.072 241.64 132.084C236.437 140.362 230.825 148.593 226.073 157.126C232.577 176.028 241.848 195.968 248.963 215.054C259.272 218.208 269.125 222.816 279.318 226.373C304.85 235.284 331.837 245.323 356.913 255.67C365.065 247.85 381.965 232.42 388.624 223.831L388.606 183.288C388.605 180.532 386.037 149.967 395.841 159.332C401.299 164.546 406.533 169.997 411.873 175.333L420.992 184.408C422.866 186.277 425.416 188.424 426.79 190.671C427.475 191.79 428.241 235.272 427.206 238.742C426.142 242.307 384.792 281.501 378.502 288.366L378.515 391.135C378.52 397.002 380.148 406.397 375.824 410.331C367.363 411.475 346.692 410.383 337.008 410.317C332.797 410.2 326.3 408.523 330.496 402.927C332.406 400.379 334.878 398.04 337.117 395.767L348.716 384.092C346.464 381.432 343.293 378.408 340.783 375.86L327.505 362.265L230.672 362.265L222.315 389.592C221.02 393.859 217.929 410.026 212.929 410.24C209.13 410.402 205.177 410.352 201.392 410.351L179.266 410.331C171.407 404.683 182.626 397.582 187.136 393.067C190.62 389.58 193.957 385.692 197.764 382.566L197.764 350.698C192.093 345.1 151.726 305.561 151.027 302.926C149.249 296.235 148.8 283.243 147.892 275.747L139.188 201.582C129.521 201.414 118.744 199.783 108.706 199.439ZM176.291 113.548C178.447 118.99 181.143 124.698 183.527 130.109L194.328 154.897C197.372 161.83 200.129 169.593 203.299 176.358C206.435 170.374 211.778 162.189 215.469 156.279C222.115 145.443 228.989 135.039 235.635 124.285C215.854 121.017 196.032 116.604 176.291 113.548ZM167.226 117.178C164.489 119.976 161.535 123.693 158.972 126.737L145.99 142.293C143.576 145.24 138.623 151.925 135.912 153.82C134.666 154.691 100.02 162.934 96.5744 163.485C101.546 171.562 109.491 182.197 113.248 190.453C121.931 191.022 131.696 192.918 140.291 192.419C141.856 187.588 147.251 165.973 154.434 177.859C155.664 179.894 150.363 191.633 149.408 194.521C161.319 195.863 190.71 209.112 203.557 213.402C210.829 215.831 206.448 224.031 202.617 222.828C184.835 217.244 166.198 209.235 148.543 203.613L151.169 224.541L155.94 264.693C156.636 270.566 157.281 277.738 158.159 283.499C185.67 261.985 212.376 238.729 239.977 217.641C236.148 204.315 225.551 179.631 219.592 166.707C216.907 171.038 204.274 200.586 198.641 188.674C194.64 180.213 170.254 120.171 167.226 117.178ZM397.98 174.611C397.715 190.555 398.19 206.615 398.011 222.572C397.946 228.411 397.583 228.634 393.435 232.651L377.001 248.381C372.855 252.425 367.802 257.666 363.509 261.442C366.602 266.973 371.083 273.557 374.533 279.065C376.46 277.164 376.947 276.64 378.502 274.421C387.489 267.989 409.293 244.356 417.827 235.585L417.827 194.521C413.449 190.189 402.487 177.7 397.98 174.611ZM246.959 223.831C241.341 227.847 234.239 234.138 228.767 238.627L168.977 286.951C165.991 289.315 162.173 291.779 159.517 294.354C159.494 295.659 159.404 297.719 159.517 298.963C170.159 311.884 185.957 325.224 197.764 337.729L197.751 316.823C197.752 312.546 197.546 307.377 198.239 303.256C199.109 298.088 206.523 298.226 207.071 304.08C207.312 306.657 207.268 308.844 207.261 311.396L207.219 324.688L207.229 365.119C207.222 380.267 206.272 380.551 210.874 394.523C216.493 375.461 222.961 355.788 229.03 336.835L257.802 247.791C259.687 241.991 261.897 235.681 263.611 229.891L246.959 223.831ZM272.295 233.732L249.468 303.458C247.109 310.881 244.253 318.28 242.268 325.775C245.803 324.03 249.41 321.637 252.868 319.62L272.519 308.361C275.293 306.795 279.431 304.345 282.244 303.12C303.056 322.693 322.75 345.026 343.235 365.173C351.391 373.166 361.206 384.033 369.396 391.288L369.418 298.782C369.425 295.874 369.643 290.204 369.059 287.152C368.742 285.489 356.175 267.08 354.72 265.103C352.549 262.155 323.476 252.738 318.055 250.744L285.367 238.633C281.119 237.058 276.518 235.191 272.295 233.732ZM280.358 314.458C266.9 322.635 251.592 332.007 237.673 339.22C236.294 343.736 234.878 348.258 233.662 352.819C245.459 353.195 259.379 352.818 271.32 352.819L317.908 352.819C314.524 349.21 281.123 314.621 280.358 314.458ZM355.875 390.503C351.731 393.814 348.763 397.339 345.03 401.041L355.875 401.041L365.962 401.041C362.97 398.276 357.876 393.9 355.875 390.503ZM199.94 393.196C197.387 395.9 194.886 398.423 192.244 401.041L195.669 401.041L203.299 401.041C202.807 399.784 200.622 393.882 199.94 393.196Z"/><path transform="scale(2 2)" d="M170.313 154.251C166.192 154.27 153.666 155.17 150.683 152.947C147.292 150.419 149.032 145.512 153.3 145.076C157.148 145.063 168.357 144.524 171.937 145.743C175.404 146.923 175.452 152.61 170.313 154.251Z"/></svg>