<?xml version="1.0" standalone="no"?>
<!DOCTYPE svg PUBLIC "-//W3C//DTD SVG 20010904//EN"
 "http://www.w3.org/TR/2001/REC-SVG-20010904/DTD/svg10.dtd">
<svg version="1.0" xmlns="http://www.w3.org/2000/svg"
 width="300.000000pt" height="225.000000pt" viewBox="0 0 300.000000 225.000000"
 preserveAspectRatio="xMidYMid meet">
<metadata>
Created by potrace 1.10, written by Peter Selinger 2001-2011
</metadata>
<g transform="translate(0.000000,225.000000) scale(0.100000,-0.100000)"
fill="#000000" stroke="none">
<path d="M1467 1673 c-8 -27 -13 -51 -10 -56 9 -15 21 3 27 43 l6 40 205 0
205 0 -5 -22 c-3 -13 -25 -121 -50 -241 -24 -120 -47 -222 -50 -227 -7 -12
-335 -12 -335 0 0 28 24 69 43 72 39 6 62 159 32 218 -18 35 -73 70 -111 70
-31 0 -90 -32 -111 -59 -16 -20 -28 -63 -59 -208 -27 -127 -28 -142 -15 -127
5 5 21 68 35 139 33 158 46 189 88 215 91 55 190 -22 167 -130 -4 -19 -10 -52
-13 -72 -6 -31 -11 -38 -30 -38 -20 0 -26 -8 -35 -46 -7 -26 -11 -48 -9 -49 7
-7 359 -8 365 -1 10 9 112 508 106 519 -2 4 -101 7 -218 7 l-214 0 -14 -47z"/>
<path d="M1570 1602 c0 -5 50 -12 111 -16 101 -6 130 -4 118 8 -9 9 -229 17
-229 8z"/>
<path d="M1604 1492 c8 -13 176 -15 176 -2 0 6 -34 10 -91 10 -49 0 -88 -4
-85 -8z"/>
<path d="M1417 1423 c-12 -20 -18 -73 -8 -73 5 0 13 16 17 35 6 34 1 55 -9 38z"/>
<path d="M1600 1400 c-11 -7 -5 -10 25 -10 22 -1 61 -3 88 -5 26 -3 47 0 47 5
0 12 8 10 -75 16 -38 2 -77 0 -85 -6z"/>
<path d="M1585 1300 c-4 -6 13 -10 43 -10 27 0 64 -3 82 -7 25 -5 32 -3 28 8
-6 17 -143 25 -153 9z"/>
<path d="M1680 1101 c0 -11 69 -20 90 -12 11 4 8 7 -10 12 -37 10 -80 10 -80
0z"/>
<path d="M1665 1020 c3 -5 30 -10 58 -10 37 0 48 3 37 10 -20 13 -103 13 -95
0z"/>
<path d="M1276 936 c-39 -15 -90 -57 -107 -89 -6 -10 -23 -68 -39 -130 -16
-62 -33 -125 -39 -140 -6 -16 -9 -33 -5 -38 3 -5 69 -9 147 -9 l143 0 16 58
c9 31 19 72 23 90 l7 32 143 0 c127 0 145 2 154 18 17 32 43 193 32 205 -15
19 -425 21 -475 3z m338 -7 l128 -1 -6 -37 c-14 -74 -31 -150 -36 -155 -3 -2
-66 -6 -140 -7 -74 -1 -140 -6 -147 -11 -6 -5 -21 -46 -33 -91 l-22 -82 -125
-1 -125 -2 5 27 c11 62 60 239 73 268 25 51 87 86 169 94 39 4 84 5 100 3 17
-2 88 -4 159 -5z"/>
</g>
</svg>
