<?xml version="1.0" encoding="utf-8" ?><svg xmlns="http://www.w3.org/2000/svg" xmlns:xlink="http://www.w3.org/1999/xlink" width="1024" height="1024" viewBox="0 0 1024 1024"><path transform="scale(2 2)" d="M334.824 255.636C328.769 257.178 321.007 259.504 315.071 261.5C311.547 262.685 309.119 266.25 304.295 267.211C291.998 269.66 281.167 262.273 278.471 250.12C277.176 243.087 280.011 231.607 281.356 224.41L288.999 184.131C295.128 150.617 303.19 146.239 332.285 135.963L365.515 124.419C377.771 120.171 389.782 117.546 392.201 102.403C392.866 98.2394 392.092 93.4811 397.341 92.5759C404.498 93.146 403.223 100.64 402.2 105.75C397.973 126.241 381.274 130.184 364.506 136.013L331.664 147.35C314.671 153.262 304.659 157.803 300.869 178.131C298.343 191.675 295.899 205.372 293.094 218.787C299.032 220.781 307.494 224.69 313.577 227.156C315.194 220.831 322.006 220.895 324.372 227.156C324.121 233.645 322.006 242.308 320.628 248.665C343.197 243.266 343.394 235.419 345.805 261.183C347.417 278.397 350.012 295.552 350.969 312.817C351.382 320.282 344.05 317.894 339.405 316.86C310.044 310.322 279.22 303.516 251.028 318.193C236.514 325.75 223.712 339.26 218.783 355.034C244.353 340.111 271.725 336.199 299.16 348.873C325.172 361.549 332.699 362.061 360.416 367.632C368.808 369.32 375.727 373.319 383.517 376.041C400.044 371.397 398.571 355.917 397.287 343.07L395.791 326.828C394.788 314.81 393.857 302.71 393.242 290.671C393.249 270.886 390.635 249.554 393.666 229.798C381.132 220.475 373.921 214.075 359.627 206.218C356.857 204.695 356.386 203.69 355.646 200.805C356.271 198.294 358.232 194.964 361.363 195.838C371.034 198.537 398.919 218.646 403.812 225.797C404.014 229.734 403.425 234.611 403.235 238.609C401.803 268.668 403.738 298.814 406.565 328.808L408.093 344.144C409.844 361.439 408.716 371.112 394.788 382.607C404.019 388.165 423.792 404.608 426.232 413.192C427.071 416.141 425.519 419.116 422.474 419.809C417.191 421.012 414.546 414.547 411.692 411.262C405.306 403.909 398.841 397.774 390.613 392.487C367.329 378.199 356.714 376.016 330.545 376.032L209.526 376.04C171.408 376.042 182.199 382.794 162.219 352.262L118.041 283.762C107.447 267.317 96.4258 251.118 86.3034 234.388C84.9521 232.155 85.0726 228.987 87.5694 227.674C98.7609 221.788 110.189 216.274 121.495 210.601C124.925 208.9 127.999 207.512 130.329 211.705C135.622 221.226 141.161 230.989 145.865 240.799C154.469 239.27 183.597 244.023 183.953 253.912C184.282 263.057 175.721 258.593 171.91 256.324C165.042 252.235 158.945 250.642 151.014 250.808C153.278 255.311 156.516 260.23 159.026 265.004L186.734 317.082C193.552 329.715 200.555 342.249 207.081 355.034C228.26 294.046 285.291 293.098 339.726 305.94C339.788 293.138 336.626 269.03 334.824 255.636ZM123.112 221.95C115.578 225.501 105.753 229.769 98.6037 233.825C105.406 246.652 115.884 260.324 123.811 272.815L162.513 332.757C168.663 342.254 174.627 352.313 181 361.602C181.829 362.828 182.72 364.077 183.405 365.385L200.789 365.385C194.774 355.009 189.425 344.729 183.738 334.254L131.091 235.779C130.248 234.212 123.984 222.183 123.112 221.95ZM290.923 229.798C290.123 234.637 288.206 242.031 288.454 246.711C288.884 254.814 299.634 260.411 306.474 254.784C310.667 250.524 310.365 243.573 311.662 237.997C306.496 236.122 295.241 230.564 290.923 229.798ZM263.65 352.141C250.256 352.616 233.506 357.62 222.455 365.385L267.136 365.385L307.906 365.385C294.071 358.206 279.848 351.133 263.65 352.141Z"/><path transform="scale(2 2)" d="M382.574 160.675C372.761 163.742 363.088 167.538 353.332 170.825C340.267 175.226 339.051 180.788 345.64 192.185C349.36 198.61 338.082 205.94 332.997 190.868C324.929 167.885 346.086 162.211 362.186 156.617L377.921 151.071C392.696 145.92 397.641 144.685 401.59 128.816C402.022 127.08 403.68 126.293 405.268 125.784C410.27 125.448 411.879 130.196 414.11 134.094C426.368 155.515 423.133 182.643 409.274 202.494C407.454 205.102 405.278 209.896 401.339 208.45C392.801 205.432 400.626 197.429 402.678 193.727C410.959 178.357 414.948 160.138 406.894 143.838C400.791 155.001 393.856 156.695 382.574 160.675Z"/><path transform="scale(2 2)" d="M245.452 285.287C233.365 290.62 210.034 306.216 198.707 291.874C192.886 284.503 187.498 279.768 177.536 279.932C169.345 280.022 168.85 270.436 177.053 269.589C201.078 268.74 201.744 286.94 213.394 287.195C220.23 287.345 240.592 272.677 246.507 274.186C252.724 275.771 251.343 282.337 245.452 285.287Z"/></svg>