<?xml version="1.0" encoding="utf-8" ?><svg xmlns="http://www.w3.org/2000/svg" xmlns:xlink="http://www.w3.org/1999/xlink" width="1024" height="1024" viewBox="0 0 1024 1024"><path transform="scale(2 2)" d="M327.213 196.483L327.011 87.6103C327.03 84.5924 328.818 83.4043 331.369 82.515C339.469 82.2015 337.981 90.021 338.199 95.7488L367.917 95.7369C382.52 95.7334 387.302 92.2794 387.321 109.236L412.627 109.216C418.632 109.201 430.452 106.848 430.396 115.939C430.327 126.958 430.548 137.994 430.331 148.99C430.235 153.812 425.836 154.055 422.243 154.307C407.135 154.24 392.007 154.477 376.905 154.17C368.937 154.007 369.785 146.868 370.103 141.05L338.199 141.05L338.199 204.994C341.683 209.812 351.799 224.746 353.444 229.283C347.598 245.988 336.889 222.473 333.288 217.22C329.641 224.666 326.673 232.522 323.184 240.064L286.351 318.051C280.072 331.513 281.292 334.1 267.551 325.149C252.927 315.623 238.62 305.221 223.898 295.883L189.498 347.474C183.169 357.145 176.882 366.963 170.361 376.502C166.043 382.819 157.844 374.654 153.734 371.884L135.506 359.577C132.127 357.271 128.207 354.34 124.757 352.308C104.654 376.42 82.1128 401.951 60.9232 425.329C54.0464 432.916 47.8605 424.57 50.7195 420.841C55.4734 414.641 60.9701 408.872 66.1049 402.948L99.4591 364.722C106.262 356.918 112.869 348.965 119.953 341.393C124.856 336.152 131.211 343.045 136.059 346.422L152.513 357.765C155.968 360.167 161.066 363.912 164.592 365.814L165.017 366.041C166.413 362.2 170.17 357.013 172.551 353.439L180.082 341.89C188.787 328.423 197.835 314.963 206.744 301.612L213.704 291.129C216.451 286.952 219.522 279.8 225.378 283.7C241.903 294.705 258.16 306.192 274.784 317.032C276.722 312.01 278.955 307.957 281.27 303.148L291.351 281.92C302.669 258.007 314.312 233.291 325.051 209.125C315.369 199.189 300.128 183.642 289.432 174.767L242.542 248.155C240.384 251.602 238.462 255.083 235.903 258.292C233.282 261.579 227.377 260.552 226.921 256.282C226.536 252.669 226.754 248.368 226.757 244.658L226.771 220.132C221.835 226.909 210.648 245.054 205.275 250.086C190.163 264.235 176.018 246.439 168.782 246.356C162.306 248.768 167.761 265.725 161.058 274.845C158.701 277.873 145.254 294.505 143.571 281.501C142.975 276.895 148.574 273.907 151.011 270.516C157.446 261.56 150.745 249.813 158.718 240.826C171.008 225.29 186.601 250.564 197.272 242.231C200.785 239.489 212.082 221.473 216.063 216.181C211.429 215.068 189.829 210.016 187.478 208.001C179.05 200.778 196.652 196.432 200.365 194.986L268.876 168.725C293.024 159.734 286.677 156.958 303.796 173.736L327.213 196.483ZM349.21 106.59L338.199 106.59C338.083 114.476 338.212 122.511 338.199 130.412L365.473 130.412L376.626 130.412L376.626 106.59L349.21 106.59ZM387.321 120.449C387.271 132.786 391.272 138.914 380.384 142.619L380.386 142.919C381.84 143.677 408.663 143.386 412.375 143.382L419.466 143.382L419.466 120.449L387.321 120.449ZM273.729 178.247C252.577 186.696 229.807 194.236 209.062 203.2L225.686 207.319C228.174 207.96 232.949 209.069 235.055 210.147C239.449 213.516 237.446 229.41 237.445 235.285C240.325 231.573 243.805 225.558 246.457 221.41L265.364 191.667C266.315 190.181 273.763 179.095 273.916 178.396L273.729 178.247Z"/><path transform="scale(2 2)" d="M370.103 278.733C368.324 278.721 365.551 278.3 364.703 276.426C360.715 267.61 357.217 258.604 352.389 250.181C349.957 245.938 351.803 243.595 355.834 241.766C363.872 241.479 372.55 264.949 374.382 271.34C375.508 275.27 374.085 277.733 370.103 278.733Z"/><path transform="scale(2 2)" d="M380.73 342.439C378.524 326.169 375.038 310.254 370.424 294.557C369.507 291.439 370.814 289.205 373.69 287.794C380.982 286.844 380.915 292.001 382.614 297.752C386.842 312.069 389.715 327.095 391.608 341.89C399.875 350.208 408.498 361.059 416.358 369.844L446.894 404.376C451.117 409.225 457.927 416.111 461.233 421.805C463.027 424.896 457.913 427.75 455.449 428.405C454.181 428.095 452.554 427.621 451.688 426.628L400.862 368.824C395.917 363.22 391.483 357.839 386.354 352.308C377.23 361.524 367.862 370.175 358.547 379.186L365.473 386.669C366.538 388.056 366.843 388.921 367.317 390.525C366.32 394.718 362.568 398.354 358.469 394.99C353.401 390.829 341.411 376.47 336.82 370.89C323.628 388.887 311.25 407.554 298.351 425.77C294.028 431.875 285.271 426.078 289.075 419.962C292.257 415.169 295.771 410.42 299.126 405.727L316.16 381.666C321.495 374.116 326.992 365.572 332.852 358.306C337.873 352.081 348.338 367.354 351.371 370.89C355.281 366.982 359.606 363.026 363.607 359.165L380.73 342.439Z"/></svg>