<?xml version="1.0" standalone="no"?>
<!DOCTYPE svg PUBLIC "-//W3C//DTD SVG 20010904//EN"
 "http://www.w3.org/TR/2001/REC-SVG-20010904/DTD/svg10.dtd">
<svg version="1.0" xmlns="http://www.w3.org/2000/svg"
 width="2048.000000pt" height="1536.000000pt" viewBox="0 0 2048.000000 1536.000000"
 preserveAspectRatio="xMidYMid meet">

<g transform="translate(0.000000,1536.000000) scale(0.100000,-0.100000)"
fill="#000000" stroke="none">
<path d="M12055 12249 c-4 -12 -6 -105 -4 -208 2 -102 2 -274 0 -381 -1 -107
3 -278 10 -380 6 -102 12 -378 14 -615 5 -861 16 -1563 25 -1672 5 -61 6 -165
3 -231 l-6 -119 -476 4 c-262 2 -510 8 -551 13 -78 11 -750 17 -1205 11 -173
-2 -287 1 -340 9 -58 9 -129 10 -260 4 -219 -10 -286 -10 -390 0 -52 6 -99 5
-132 -2 -61 -14 -109 -1 -313 80 -113 45 -132 56 -196 116 -100 94 -187 212
-228 310 -20 46 -36 92 -36 102 0 10 -4 21 -9 25 -27 16 -41 106 -46 283 -4
168 -3 182 13 182 15 1 15 2 -2 15 -15 11 -47 15 -128 14 -60 -1 -112 2 -116
6 -16 15 -20 334 -8 580 21 423 133 651 395 804 36 22 74 48 85 60 25 28 157
81 201 81 21 0 65 7 99 16 62 16 138 14 216 -6 19 -5 67 -13 105 -18 111 -15
250 -69 324 -127 99 -77 223 -188 235 -210 6 -11 20 -33 32 -50 44 -63 77
-143 89 -220 4 -22 11 -54 16 -70 15 -51 20 -111 23 -317 2 -108 7 -201 10
-206 3 -5 2 -79 -4 -163 -5 -85 -12 -263 -15 -395 -5 -212 -4 -242 9 -247 32
-12 39 36 52 358 21 502 8 924 -30 1032 -8 23 -17 61 -21 85 -11 76 -116 242
-198 313 -133 117 -284 225 -313 225 -7 0 -46 11 -87 24 -40 13 -105 27 -143
31 -38 4 -106 13 -152 22 -74 13 -92 13 -160 0 -42 -9 -97 -19 -122 -22 -61
-10 -153 -48 -198 -82 -20 -16 -69 -48 -108 -71 -92 -53 -212 -172 -258 -255
-38 -67 -84 -196 -111 -307 -27 -115 -50 -695 -34 -860 1 -14 0 -32 -2 -40 -3
-12 17 -17 119 -24 l122 -9 2 -46 c1 -25 0 -91 -1 -146 -3 -93 0 -109 33 -210
71 -211 141 -335 264 -466 80 -86 135 -119 304 -183 174 -66 249 -83 303 -68
32 9 65 9 127 1 52 -7 141 -8 238 -3 85 4 178 7 205 6 28 -1 199 -6 380 -11
324 -8 398 -8 660 5 148 7 149 7 465 -3 129 -5 240 -12 247 -16 6 -4 204 -9
440 -12 235 -3 467 -7 515 -10 120 -7 118 -13 119 231 2 317 -9 1314 -16 1394
l-6 75 44 28 c25 15 116 64 203 108 88 44 166 86 174 94 8 7 150 79 315 160
308 152 510 260 603 324 29 20 80 52 113 72 72 43 104 73 95 88 -4 6 -26 20
-49 30 -24 11 -65 35 -92 54 -53 36 -191 110 -265 141 -25 11 -74 37 -110 59
-36 22 -117 66 -180 97 -63 32 -142 71 -175 88 -243 122 -476 234 -564 272
-67 29 -109 53 -120 69 -13 20 -15 49 -14 145 1 67 0 129 -3 139 -7 24 -41 21
-49 -4z m114 -373 c9 -8 77 -41 151 -74 74 -33 158 -73 185 -88 28 -16 61 -34
75 -40 159 -72 239 -110 261 -125 14 -10 45 -26 69 -35 25 -10 72 -33 105 -51
33 -18 144 -76 247 -128 103 -52 196 -102 205 -111 10 -9 42 -31 71 -49 l53
-33 -66 -43 c-37 -24 -99 -62 -139 -84 -40 -22 -85 -50 -102 -61 -16 -12 -69
-42 -119 -67 -49 -24 -112 -56 -140 -70 -27 -15 -135 -68 -240 -118 -104 -51
-233 -117 -285 -147 -52 -30 -147 -81 -210 -114 -63 -32 -126 -66 -139 -76
l-24 -16 4 229 c3 269 -7 672 -22 868 -6 75 -8 144 -5 152 3 9 6 68 6 133 1
64 4 127 7 140 6 25 29 29 52 8z"/>
<path d="M8559 10543 c-3 -69 3 -430 7 -445 8 -26 33 -22 44 8 6 14 11 52 11
85 1 32 6 59 11 59 6 0 3 11 -6 25 -13 19 -16 51 -16 154 0 108 -3 130 -16
135 -28 11 -34 7 -35 -21z"/>
<path d="M11315 8106 c-47 -35 -11 -38 401 -40 370 -1 397 0 408 17 8 13 8 19
-1 25 -7 4 -187 9 -400 11 -332 2 -391 0 -408 -13z"/>
<path d="M11363 7601 c-48 -12 -68 -31 -51 -47 10 -10 37 -11 123 -4 60 4 113
6 118 3 13 -8 466 -11 495 -4 32 9 39 27 15 39 -23 12 -657 24 -700 13z"/>
<path d="M9375 7143 c-44 -2 -170 -8 -280 -14 -110 -6 -213 -12 -230 -11 -81
0 -264 -21 -298 -33 -20 -8 -56 -15 -78 -15 -23 0 -70 -13 -109 -30 -38 -16
-73 -30 -79 -30 -13 0 -140 -48 -161 -61 -8 -5 -35 -19 -59 -31 -25 -12 -66
-42 -91 -67 -26 -26 -73 -69 -104 -98 -42 -39 -65 -72 -92 -130 -19 -43 -46
-100 -59 -128 -46 -98 -74 -192 -103 -355 -16 -91 -30 -176 -30 -190 0 -14 -5
-99 -11 -189 -6 -90 -8 -168 -5 -172 3 -5 4 -183 4 -396 -3 -635 -3 -726 6
-988 4 -137 7 -288 7 -335 -1 -55 3 -87 10 -92 8 -5 13 -54 15 -141 l3 -134
-33 -13 c-18 -7 -123 -57 -233 -110 -110 -54 -216 -103 -235 -110 -19 -7 -40
-17 -47 -23 -23 -17 -155 -77 -170 -77 -30 0 -84 -33 -99 -62 -13 -26 -13 -29
2 -35 28 -10 93 12 204 72 58 31 125 64 149 72 24 8 81 35 125 59 45 25 110
59 146 76 36 17 196 96 357 176 160 79 307 147 325 152 18 5 80 27 138 50 58
23 176 69 262 101 86 32 180 70 208 84 29 15 118 48 199 75 140 46 276 103
287 121 3 5 12 9 21 9 9 0 49 16 89 35 40 19 76 35 81 35 4 0 62 24 128 53 66
30 147 59 180 65 33 7 101 32 151 57 93 45 273 118 374 150 30 10 94 37 141
61 47 23 123 54 170 69 166 53 196 64 327 128 73 36 176 82 230 102 53 20 120
47 147 60 54 25 189 82 270 113 136 53 198 79 290 123 55 26 120 54 145 62 72
25 156 60 300 126 74 35 153 71 175 81 22 10 76 30 120 45 44 14 91 32 105 39
14 7 43 19 65 26 22 7 45 16 50 21 6 4 33 13 60 19 69 17 117 39 137 63 22 28
6 52 -23 36 -11 -5 -54 -23 -97 -38 -42 -16 -129 -47 -192 -70 -63 -23 -176
-67 -250 -98 -74 -31 -166 -69 -204 -85 -38 -15 -71 -27 -73 -24 -2 2 -6 257
-7 567 -4 596 -14 1129 -21 1166 -7 32 -67 38 -243 24 -171 -14 -238 -14
-1072 -10 -373 3 -631 8 -640 14 -13 8 -564 14 -775 8z m645 -55 c8 0 53 -4
100 -9 47 -5 213 -10 370 -11 157 0 427 -1 600 -2 173 0 401 0 505 2 105 2
251 4 325 5 l135 2 6 -327 c4 -180 10 -367 13 -415 7 -92 7 -137 2 -673 l-2
-325 -95 -35 c-52 -20 -121 -50 -154 -68 -84 -44 -174 -82 -194 -82 -9 0 -40
29 -68 64 -29 35 -108 115 -175 177 -126 116 -180 169 -327 325 -196 206 -238
249 -281 282 -89 68 -356 311 -385 350 -33 45 -67 68 -84 58 -18 -12 -13 -21
43 -90 57 -70 160 -166 346 -323 63 -54 165 -151 225 -215 109 -117 303 -312
524 -526 63 -61 111 -116 109 -124 -5 -14 -38 -28 -393 -172 -126 -52 -286
-121 -354 -155 -68 -33 -130 -61 -137 -61 -16 0 -215 -65 -240 -78 -93 -50
-205 -94 -226 -88 -23 6 -145 121 -243 227 -48 53 -132 125 -273 237 -60 47
-108 88 -316 271 -74 65 -121 90 -138 73 -8 -8 -12 -118 -14 -374 -1 -200 -6
-472 -9 -605 l-7 -241 -87 -40 c-47 -22 -138 -56 -201 -77 -63 -20 -158 -56
-210 -80 -52 -24 -129 -56 -170 -71 -41 -14 -88 -32 -105 -39 -101 -41 -300
-116 -358 -134 -38 -12 -85 -32 -105 -45 -43 -26 -273 -136 -286 -136 -5 0 -6
24 -3 53 3 28 -1 124 -9 211 -24 286 -29 480 -27 1256 1 728 6 893 32 1010 6
25 17 88 27 140 9 52 24 115 34 140 10 25 35 87 55 137 44 113 73 170 100 193
11 10 42 38 70 62 27 23 59 54 71 68 31 36 247 140 291 140 7 0 30 8 51 19 20
10 57 22 82 26 25 3 71 15 102 26 33 11 101 21 160 25 57 3 114 7 128 8 14 2
52 6 85 10 111 12 308 19 525 18 118 -1 238 2 265 7 28 5 102 7 165 4 63 -3
122 -5 130 -5z m-440 -2033 c47 -39 120 -99 164 -135 43 -36 150 -135 236
-221 l158 -157 -27 -12 c-14 -7 -51 -21 -81 -32 -30 -11 -102 -43 -159 -70
-57 -28 -136 -59 -175 -68 -39 -10 -109 -37 -155 -59 -47 -23 -90 -41 -97 -41
-7 0 -49 -16 -94 -35 -45 -19 -82 -35 -83 -35 -8 0 -6 206 3 316 6 77 11 272
11 434 0 162 2 309 5 327 l6 32 102 -88 c55 -48 139 -118 186 -156z"/>
</g>
</svg>
