<?xml version="1.0" standalone="no"?>
<!DOCTYPE svg PUBLIC "-//W3C//DTD SVG 20010904//EN"
 "http://www.w3.org/TR/2001/REC-SVG-20010904/DTD/svg10.dtd">
<svg version="1.0" xmlns="http://www.w3.org/2000/svg"
 width="2048.000000pt" height="1536.000000pt" viewBox="0 0 2048.000000 1536.000000"
 preserveAspectRatio="xMidYMid meet">

<g transform="translate(0.000000,1536.000000) scale(0.100000,-0.100000)"
fill="#000000" stroke="none">
<path d="M9770 10704 c-45 -8 -213 -66 -301 -104 -102 -43 -347 -216 -402
-283 -61 -74 -156 -228 -187 -303 -16 -40 -37 -105 -45 -146 -19 -89 -36 -381
-28 -477 4 -45 0 -102 -11 -162 -13 -77 -17 -183 -20 -574 -2 -264 -6 -487
-10 -496 -12 -27 -110 -59 -182 -59 -43 0 -84 -8 -126 -24 -35 -13 -79 -29
-98 -36 -210 -74 -464 -192 -561 -262 -26 -18 -93 -65 -150 -105 -57 -39 -121
-89 -141 -110 -64 -67 -227 -294 -244 -342 -10 -25 -37 -72 -60 -103 -23 -32
-52 -88 -65 -125 -12 -38 -37 -99 -56 -138 -18 -38 -33 -75 -33 -81 0 -6 -12
-29 -26 -50 -23 -33 -29 -58 -40 -167 -8 -71 -16 -133 -19 -137 -3 -5 -7 -328
-10 -717 -2 -389 -7 -756 -11 -815 -7 -117 -3 -131 44 -149 18 -7 31 -5 48 6
21 14 23 18 11 38 -9 17 -11 66 -6 212 12 366 12 529 -1 605 -8 50 -9 96 -4
135 5 33 7 89 4 125 -7 83 6 508 19 620 5 52 23 124 45 184 20 54 36 107 36
117 0 10 15 39 34 64 19 24 44 69 55 100 55 146 167 332 257 425 40 41 105
111 146 154 40 43 109 106 152 138 89 66 383 218 491 253 39 13 97 35 130 48
35 15 90 28 135 32 41 4 85 13 97 21 14 9 30 11 43 6 11 -4 47 -5 80 -2 104
10 95 -47 92 643 -2 516 0 616 14 701 10 59 14 126 11 165 -4 55 -1 75 23 135
22 55 31 100 39 198 17 198 51 267 206 424 145 147 323 255 506 307 74 22 87
23 120 12 29 -10 61 -11 154 -3 86 8 133 8 180 0 34 -7 81 -12 104 -12 96 0
246 -83 361 -200 36 -36 85 -79 109 -95 25 -17 62 -52 84 -80 49 -61 160 -283
232 -460 29 -73 78 -180 108 -237 30 -56 58 -114 62 -128 4 -14 27 -68 51
-121 35 -77 42 -101 35 -120 -7 -20 -4 -30 21 -55 18 -20 35 -53 44 -90 9 -32
31 -81 49 -109 33 -48 75 -174 75 -222 0 -27 13 -26 -195 -12 -120 8 -171 8
-203 0 -71 -20 -74 -30 -77 -273 -1 -117 -3 -216 -4 -220 0 -5 -11 -8 -24 -8
-13 0 -47 -7 -75 -15 -28 -9 -98 -17 -154 -19 -59 -2 -137 -12 -183 -24 -44
-11 -123 -30 -175 -41 -119 -27 -228 -71 -356 -143 -54 -31 -130 -69 -169 -84
-64 -25 -101 -52 -122 -88 -4 -7 -28 -22 -53 -33 -25 -11 -76 -44 -114 -73
-39 -30 -103 -75 -143 -102 -97 -64 -211 -209 -289 -368 -32 -63 -72 -135 -90
-160 -18 -25 -44 -75 -58 -110 -13 -36 -41 -105 -61 -153 -22 -53 -38 -111
-41 -145 -3 -31 -10 -84 -16 -117 -8 -42 -13 -314 -15 -913 l-2 -852 22 -14
c18 -12 157 -16 782 -22 1116 -13 1318 -12 1338 5 20 16 22 56 5 68 -13 8
-958 15 -1789 13 -257 0 -302 7 -307 52 -2 14 4 62 13 105 12 59 16 123 14
263 -2 129 1 192 9 207 9 17 10 39 1 95 -7 44 -8 108 -4 163 4 49 7 113 6 140
0 28 -2 201 -4 385 l-4 335 30 95 c37 119 70 193 101 231 14 16 32 55 41 86
20 68 143 304 187 357 16 20 84 83 150 139 66 56 145 124 177 150 90 78 155
118 341 210 230 113 354 161 472 181 53 9 125 26 160 37 48 16 97 21 211 24
196 5 191 10 183 -158 -4 -67 -2 -385 4 -707 10 -564 11 -963 3 -1365 -8 -365
-10 -330 31 -430 64 -152 160 -346 216 -434 29 -47 65 -113 81 -148 19 -42 36
-66 51 -72 49 -17 400 -32 526 -21 105 8 148 7 300 -11 257 -30 686 -40 821
-20 48 7 151 9 290 5 286 -7 311 4 228 107 -23 30 -106 149 -183 264 -77 116
-161 239 -187 273 -62 84 -71 123 -61 247 10 127 6 650 -7 818 -8 106 -17 150
-53 266 -52 163 -73 214 -117 277 -18 26 -44 79 -59 118 -28 76 -234 391 -299
459 -20 21 -76 66 -126 99 -49 34 -130 92 -180 129 -54 41 -161 104 -270 159
-279 142 -422 193 -625 224 -52 8 -113 22 -135 31 -27 12 -54 15 -87 12 -43
-5 -50 -3 -64 18 -10 15 -13 35 -9 57 3 18 9 106 13 196 7 148 10 164 30 184
21 22 22 22 43 2 18 -16 40 -19 168 -22 176 -4 224 7 229 52 2 16 -10 68 -26
115 -17 47 -38 113 -47 146 -9 33 -30 91 -47 128 -16 38 -34 96 -39 130 -6 34
-26 98 -46 142 -19 44 -59 136 -88 205 -46 110 -106 237 -191 405 -14 28 -60
118 -102 200 -90 179 -101 194 -172 248 -30 22 -96 80 -146 128 -59 56 -105
91 -130 99 -22 7 -70 28 -107 47 -99 49 -211 70 -417 76 -96 3 -186 3 -200 1z
m1565 -2684 c79 -12 194 -52 452 -156 141 -58 208 -91 295 -149 169 -112 176
-117 205 -158 14 -21 54 -60 87 -86 150 -120 254 -260 414 -561 74 -139 118
-253 158 -408 34 -130 36 -147 39 -322 2 -102 7 -210 13 -240 6 -32 8 -149 5
-285 l-5 -230 26 -70 c32 -83 61 -133 134 -235 29 -41 65 -97 79 -125 14 -27
45 -79 69 -115 24 -36 46 -77 49 -91 l7 -27 -158 -7 c-87 -4 -195 -5 -242 -2
-46 3 -114 1 -150 -4 -71 -9 -345 3 -514 22 -68 8 -111 8 -146 0 -34 -7 -75
-7 -138 1 -49 5 -212 12 -362 13 -298 4 -308 6 -330 62 -6 15 -18 55 -28 88
-10 33 -42 105 -71 160 -101 191 -143 280 -157 335 -20 80 -32 528 -17 645 16
121 17 1051 2 1305 -6 107 -12 206 -11 220 3 269 8 378 18 397 10 18 23 23 70
26 114 7 138 6 207 -3z"/>
<path d="M10375 9528 c-10 -6 -40 -27 -65 -46 -91 -70 -196 -99 -297 -83 -33
5 -102 28 -155 50 -87 37 -155 51 -171 35 -15 -16 19 -46 105 -92 70 -37 118
-55 193 -71 165 -35 208 -27 363 65 121 71 132 81 132 114 0 39 -58 55 -105
28z"/>
<path d="M8223 5447 c-12 -14 -13 -37 -22 -392 -5 -211 -4 -277 6 -302 24 -59
85 -33 65 26 -7 20 -7 73 -1 163 13 178 15 381 5 446 -8 55 -34 84 -53 59z"/>
<path d="M7648 5443 c-1 -5 -3 -75 -4 -158 -6 -324 -11 -451 -18 -487 -7 -30
-4 -40 13 -57 23 -23 51 -27 69 -9 9 9 12 92 12 312 0 290 -1 303 -22 353 -20
46 -44 68 -50 46z"/>
</g>
</svg>
