<?xml version="1.0" encoding="utf-8" ?><svg xmlns="http://www.w3.org/2000/svg" xmlns:xlink="http://www.w3.org/1999/xlink" width="1024" height="1024" viewBox="0 0 1024 1024"><path transform="scale(2 2)" d="M197.413 135.735C177.653 134.808 151.055 113.99 139.96 98.6482C136.837 94.3311 131.95 87.0435 140.432 85.0343C146.324 84.6903 148.146 91.7232 151.595 95.8346C168.348 115.803 177.38 117.457 199.05 125.406C204.522 128.224 202.663 134.206 197.413 135.735Z"/><path transform="scale(2 2)" d="M230.493 190.763C228.796 187.953 226.646 185.067 225.117 182.16C208.227 150.035 210.914 105.49 253.203 100.847C272.621 99.2318 290.234 112.119 295.721 130.566C302.461 153.227 292.115 171.979 281.824 190.763C288.272 208.267 318.7 208.996 331.235 233.796C336.362 243.941 344.217 278.28 344.919 291.392C345.648 305.026 337.967 318.23 325.744 324.305C308.805 332.722 295.059 324.212 278.374 319.593C271.603 317.565 264.549 315.531 258 313.445C255.977 312.915 252.782 311.755 250.708 311.071C240.317 316.032 215.991 325.884 206.4 327.517C191.311 329.655 176.713 321.187 170.175 307.521C163.691 293.969 169.512 278.157 171.899 264.2C179.225 226.767 182.309 223.926 216.299 204.664C224.247 200.159 227.132 199.838 230.493 190.763ZM255.44 111.613C240.386 112.375 225.473 124.951 226.532 140.981C229.677 143.939 232.377 146.08 237.021 145.714C254.604 144.331 248.417 163.644 226.532 154.671C231.296 169.713 238.102 193.923 258 193.177C274.464 190.641 281.985 168.664 285.79 154.671C262.343 163.207 261.507 143.467 273.976 145.531C279.755 146.488 282.332 144.157 286.677 140.981C285.129 123.868 272.865 111.636 255.44 111.613ZM238.737 198.493C229.854 218.053 199.834 216.722 188.731 241.561C184.587 250.832 175.763 291.676 179.289 300.927C184.944 315.763 199.386 319.766 213.373 314.275C237.472 304.815 265.584 293.958 288.773 282.547C278.802 278.968 280.709 279.31 270.053 280.511L223.073 286.063C217.564 286.761 211.696 286.99 206.65 289.228C202.984 290.737 199.391 294.833 195.148 293.638C192.446 292.877 190.84 289.026 192.033 286.768C195.111 280.947 205.565 277.658 211.292 276.135L211.248 262.297C211.237 258.275 210.311 249.664 216.644 250.023C225.189 250.507 222.011 268.975 222.001 275.682C223.383 275.443 225.174 275.079 226.532 274.921C239.381 273.181 252.123 271.559 265.008 270.183C276.85 268.919 278.39 267.112 289.775 271.344C289.761 267.063 288.699 254.7 291.876 251.353C294.308 248.791 298.357 250.723 300.419 253.47C300.779 260.557 300.136 268.514 300.419 275.682C305.317 278.152 320.892 284.813 317.443 291.711C314.18 298.237 305.565 290.935 301.587 289.06C290.145 293.823 276.931 299.058 265.89 304.513C276.095 307.315 302.543 316.675 310.048 316.941C320.59 317.314 330.43 309.734 333.148 299.619C336.051 288.818 326.435 246.89 320.899 237.384C309.925 218.535 280.139 214.734 273.075 198.493C260.897 206.261 250.9 205.89 238.737 198.493Z"/><path transform="scale(2 2)" d="M198.75 159.731C185.638 160.159 148.794 147.938 141.397 135.615C139.764 132.895 143.35 129.689 146.182 128.775C148.326 128.902 150.28 130.275 152.017 131.431C164.563 139.785 177.853 146.745 193.185 148.022C206.221 149.107 206.5 157.594 198.75 159.731Z"/><path transform="scale(2 2)" d="M383.851 188.201C380.269 188.915 379.06 187.468 376.479 185.115C358.684 168.892 336.26 159.27 313.048 153.78C307.261 152.411 306.896 146.143 312.251 143.551C328.069 141.624 366.901 163.064 379.005 173.02C383.562 176.768 393.502 182.899 383.851 188.201Z"/><path transform="scale(2 2)" d="M362.395 214.606C357.808 215.326 355.531 211.698 352.892 208.463C344.669 198.383 335.34 189.341 323.576 183.495C318.883 180.683 312.476 179.499 307.902 176.851C303.562 174.339 305.559 168.887 309.31 166.783C323.073 165.818 351.446 189.707 359.734 199.353C363.33 203.537 370.951 210.717 362.395 214.606Z"/><path transform="scale(2 2)" d="M439.745 350.565L70.3461 350.662C63.4328 350.723 59.9759 340.521 72.034 339.752L441.646 339.724C448.86 339.785 451.739 350.486 439.745 350.565Z"/><path transform="scale(2 2)" d="M393.033 377.618C376.587 378.115 367.856 384.533 354.283 390.865C335.46 399.646 314.115 399.832 294.959 392.084C277.579 385.055 273.067 376.096 249.932 378.664C238.481 379.729 233.205 383.485 223.79 388.774C203.398 400.232 177.723 400.484 156.508 391.104C145.532 386.25 139.676 379.555 126.942 378.017C108.317 375.766 107.672 382.785 107.723 397.629L107.787 414.761C107.834 429.343 98.0453 424.129 97.3747 421.142C95.7888 414.078 97.4141 399.805 96.9923 391.429C96.265 376.988 105.336 367.247 119.844 366.757C137.448 365.197 145.684 374.036 159.189 380.377C184.757 392.383 203.219 387.334 225.757 374.903C244.519 364.555 268.184 365.244 286.906 375.268C309.673 387.457 328.67 392.685 353.879 379.005C367.074 371.844 377.169 367.014 393.046 366.78C405.684 366.593 414.587 375.979 414.716 388.409C414.799 396.434 415.677 413.816 414.616 421.175C413.882 426.271 406.553 427.205 404.485 422.573C403.05 419.358 403.803 398.448 403.82 393.462C403.85 384.761 403.468 378.056 393.033 377.618Z"/></svg>