<?xml version="1.0" standalone="no"?>
<!DOCTYPE svg PUBLIC "-//W3C//DTD SVG 20010904//EN"
 "http://www.w3.org/TR/2001/REC-SVG-20010904/DTD/svg10.dtd">
<svg version="1.0" xmlns="http://www.w3.org/2000/svg"
 width="2048.000000pt" height="1536.000000pt" viewBox="0 0 2048.000000 1536.000000"
 preserveAspectRatio="xMidYMid meet">

<g transform="translate(0.000000,1536.000000) scale(0.100000,-0.100000)"
fill="#000000" stroke="none">
<path d="M9185 11550 c-71 -4 -159 -14 -193 -23 -35 -9 -70 -13 -78 -10 -15 6
-143 -13 -188 -28 -16 -5 -77 -16 -135 -25 -146 -21 -311 -60 -374 -88 -29
-12 -77 -31 -107 -40 -81 -27 -123 -45 -255 -112 -66 -34 -143 -69 -171 -78
-32 -10 -74 -37 -116 -74 -36 -31 -78 -66 -94 -77 -88 -62 -234 -216 -271
-287 -31 -59 -63 -176 -75 -278 -15 -127 -19 -540 -7 -660 14 -146 20 -295 24
-655 2 -170 9 -377 14 -460 14 -189 22 -1115 13 -1335 -4 -91 -3 -203 1 -250
6 -71 22 -827 18 -925 -14 -451 -21 -613 -30 -675 -7 -48 -7 -95 -1 -130 5
-30 12 -102 15 -160 9 -156 24 -259 44 -315 28 -75 41 -119 41 -139 0 -9 16
-56 36 -104 28 -69 51 -104 110 -170 41 -46 84 -98 96 -115 11 -18 52 -57 90
-87 38 -30 100 -80 138 -111 130 -108 206 -146 397 -203 45 -14 92 -30 105
-37 26 -14 79 -26 186 -40 40 -5 82 -14 93 -19 13 -7 111 -7 311 1 161 6 462
9 668 6 206 -3 420 -4 475 -3 183 2 298 -1 555 -14 140 -7 320 -11 400 -9 345
9 936 4 980 -8 31 -8 217 -14 593 -19 507 -6 548 -5 573 11 15 10 22 21 17 26
-5 5 -121 11 -258 14 -138 2 -389 7 -560 10 -170 4 -377 12 -460 19 -179 15
-636 13 -854 -4 -85 -6 -169 -9 -188 -5 -70 13 -428 29 -673 31 -140 0 -394 2
-565 3 -170 2 -456 -1 -635 -5 -395 -9 -341 -10 -490 13 -74 12 -147 31 -180
45 -30 14 -89 35 -130 48 -145 43 -207 74 -305 155 -27 23 -81 63 -118 90 -38
28 -89 76 -113 109 -24 32 -55 67 -68 77 -42 33 -124 144 -141 190 -9 24 -22
69 -30 99 -14 59 -31 113 -46 145 -5 11 -18 108 -29 215 -11 107 -23 218 -27
245 -4 28 -6 64 -5 80 10 128 18 436 27 1030 5 306 3 443 -5 505 -7 49 -11
161 -10 265 3 169 3 275 3 830 0 121 0 236 0 255 1 103 -6 241 -19 370 -8 80
-16 273 -19 430 -2 157 -4 292 -4 300 0 8 -1 67 -1 130 -1 63 -6 187 -13 275
-7 88 -10 194 -7 235 l5 75 24 -50 c13 -27 46 -97 74 -155 44 -94 58 -113 141
-194 50 -49 107 -99 126 -111 19 -12 44 -32 54 -44 11 -11 25 -21 32 -21 8 0
35 -16 60 -36 26 -19 65 -45 88 -56 23 -11 75 -44 117 -72 42 -28 92 -60 110
-71 19 -11 54 -32 79 -47 25 -16 61 -35 80 -43 19 -9 42 -20 51 -25 9 -5 45
-14 80 -20 57 -10 153 -35 301 -76 56 -15 322 -33 578 -38 102 -3 214 -9 251
-16 36 -6 102 -9 150 -6 126 9 309 10 444 3 66 -3 152 -1 190 4 73 10 512 20
892 19 125 0 224 4 227 9 6 9 23 8 117 -5 27 -4 54 -2 67 5 15 8 30 7 62 -4
23 -8 46 -13 50 -10 7 4 150 11 415 20 44 2 211 3 370 2 367 0 451 2 620 17
33 3 120 9 194 13 110 7 136 11 145 25 5 9 7 21 2 25 -18 18 -172 15 -286 -7
-94 -18 -160 -23 -360 -26 -135 -2 -276 -3 -315 -2 -119 3 -133 3 -385 -6
-135 -4 -321 -7 -415 -5 -311 5 -997 -5 -1315 -21 -102 -5 -210 -6 -240 -4
-30 3 -134 4 -230 3 -528 -7 -1173 20 -1231 51 -8 5 -80 25 -160 45 -240 60
-273 73 -396 156 -40 27 -76 49 -81 49 -5 0 -15 7 -22 15 -7 9 -43 32 -79 52
-136 74 -285 180 -406 289 -80 71 -104 110 -166 269 -11 28 -29 70 -41 95 -32
71 -60 259 -47 323 56 271 62 282 198 416 154 150 291 253 369 276 26 8 95 41
154 74 59 33 156 76 215 96 59 20 124 45 144 56 40 20 177 53 269 64 30 4 100
17 155 30 55 13 127 27 160 30 33 3 119 15 190 26 83 14 150 19 184 15 30 -4
111 -1 179 5 96 9 165 9 305 -1 100 -7 263 -16 362 -20 99 -5 216 -16 260 -25
44 -9 107 -21 140 -26 33 -5 110 -23 170 -39 61 -17 128 -35 150 -41 113 -30
300 -120 505 -243 166 -100 208 -150 264 -316 21 -65 25 -96 27 -212 2 -132 1
-138 -26 -185 -15 -26 -57 -100 -92 -163 -71 -127 -108 -162 -234 -221 -117
-56 -360 -112 -529 -124 -52 -3 -108 -8 -125 -11 -16 -2 -86 -7 -155 -9 -69
-3 -172 -9 -230 -14 -159 -12 -615 -1 -760 18 -129 17 -188 30 -268 57 -40 13
-78 24 -86 24 -7 0 -49 12 -92 26 -98 32 -264 140 -301 196 -23 34 -25 45 -20
101 12 119 24 139 138 242 57 52 135 88 314 145 96 30 248 44 520 46 154 2
306 3 338 3 43 1 59 5 64 17 12 33 -26 38 -287 37 -344 -2 -599 -27 -680 -67
-14 -7 -41 -16 -60 -20 -19 -3 -55 -16 -80 -27 -118 -53 -155 -77 -223 -150
-83 -87 -104 -136 -106 -244 l-2 -70 47 -53 c157 -177 470 -286 914 -318 243
-18 524 -24 563 -13 16 5 99 9 185 10 151 2 192 5 402 28 52 6 117 13 143 16
46 5 76 12 282 68 149 40 266 109 320 189 12 18 43 74 70 123 26 50 53 97 60
105 20 23 65 129 60 143 -2 7 -6 64 -9 127 -9 228 -89 394 -235 487 -212 136
-476 262 -641 306 -180 49 -225 59 -358 82 -74 13 -148 28 -165 34 -61 18
-810 33 -1052 21z"/>
<path d="M12204 8549 c-10 -16 12 -32 48 -37 92 -11 272 -16 343 -10 44 4 172
3 285 -3 113 -6 241 -9 285 -7 72 3 80 5 83 24 3 20 -2 21 -210 29 -117 4
-265 6 -328 4 -191 -6 -392 -4 -447 3 -33 4 -55 3 -59 -3z"/>
<path d="M12171 8007 c-11 -14 -10 -18 10 -26 41 -17 179 -30 206 -20 14 5
152 9 306 8 301 0 367 -2 462 -13 46 -6 65 -4 80 8 38 28 4 39 -147 49 -109 6
-553 4 -723 -4 -11 -1 -56 2 -100 6 -68 6 -82 5 -94 -8z"/>
<path d="M11156 7548 c-23 -13 -45 -82 -51 -160 l-7 -77 -36 -3 c-20 -2 -57 1
-82 5 -27 5 -84 3 -141 -4 -62 -8 -184 -10 -348 -7 -239 5 -279 1 -230 -22 8
-4 28 -14 44 -22 25 -12 59 -13 195 -7 91 4 168 5 173 2 4 -2 60 1 125 7 83 9
143 9 207 2 50 -6 102 -8 117 -5 31 6 37 23 47 140 11 125 -9 117 291 109 140
-4 289 -9 330 -12 41 -2 130 -6 196 -8 67 -2 125 -6 130 -9 5 -3 60 -13 122
-22 113 -16 137 -24 263 -84 36 -17 71 -31 76 -31 6 0 39 -21 74 -47 35 -26
86 -58 113 -71 112 -54 249 -234 324 -422 52 -132 72 -212 72 -285 0 -31 5
-86 11 -123 10 -59 8 -76 -11 -147 -12 -44 -28 -105 -35 -135 -46 -186 -101
-284 -217 -380 -124 -102 -181 -133 -306 -163 -61 -15 -120 -27 -132 -27 -12
0 -29 -4 -39 -9 -27 -15 -112 -22 -347 -30 -170 -5 -236 -3 -294 7 -52 10
-172 15 -395 17 -176 1 -505 9 -730 18 -226 9 -421 14 -433 10 -37 -9 -25 -30
21 -37 23 -3 161 -11 307 -16 146 -5 303 -14 350 -20 47 -5 200 -10 340 -10
140 0 323 -6 405 -12 224 -16 559 -20 640 -8 39 7 106 20 150 30 44 10 107 23
140 30 151 32 231 70 331 161 29 26 62 52 73 59 28 15 115 149 142 218 11 31
30 91 40 132 11 41 27 102 36 135 30 110 10 434 -32 515 -7 14 -32 71 -55 128
-75 181 -199 337 -313 392 -31 16 -79 46 -105 67 -39 33 -154 93 -176 93 -3 0
-44 18 -90 40 -71 34 -98 41 -187 50 -57 6 -117 15 -134 20 -16 5 -127 12
-245 15 -118 4 -217 8 -221 10 -5 4 -41 5 -189 6 -47 0 -131 1 -188 2 -57 1
-109 -1 -116 -5z"/>
<path d="M11553 6473 c-22 -8 -15 -42 10 -47 54 -11 350 -28 435 -25 89 4 111
12 112 42 0 4 -38 7 -85 7 -46 0 -128 4 -182 10 -123 12 -274 18 -290 13z"/>
<path d="M12157 4932 c-22 -4 -22 -25 1 -45 16 -15 58 -17 393 -16 206 1 404
-2 440 -6 47 -5 68 -4 73 4 30 48 -101 64 -535 65 -195 1 -363 0 -372 -2z"/>
<path d="M12150 4411 c-13 -9 -12 -13 5 -30 18 -18 40 -20 250 -26 127 -3 280
-8 340 -10 133 -6 238 3 262 21 38 28 0 35 -208 39 -112 2 -301 7 -419 10
-139 4 -220 2 -230 -4z"/>
</g>
</svg>
