<?xml version="1.0" encoding="utf-8" ?><svg xmlns="http://www.w3.org/2000/svg" xmlns:xlink="http://www.w3.org/1999/xlink" width="1024" height="1024" viewBox="0 0 1024 1024"><path transform="scale(2 2)" d="M99.3691 243.24C77.8361 245.44 49.1222 217.586 46.6081 197.991C43.9415 177.207 57.0291 160.788 77.8029 158.092C97.4981 156.21 103.05 166.159 114.636 177.356C123.468 185.891 130.434 193.583 130.817 206.598C131.996 225.688 118.806 242.174 99.3691 243.24ZM80.3231 167.851C61.3383 169.574 51.4746 186.115 58.7622 203.777C70.2768 189.049 63.9568 196.421 75.9479 194.736C79.6031 194.223 81.972 192.395 85.4318 191.597C93.2144 194.317 90.3163 201.024 83.768 203.118C78.8049 204.705 75.753 204.977 70.518 205.44C68.2331 207.554 66.6646 210.122 64.9115 212.702C67.073 215.601 69.8971 218.056 72.5653 220.497C80.7635 228.277 85.64 233.605 97.8269 233.469C111.723 233.281 121.467 221.28 121.045 207.739C120.682 196.09 114.539 191.275 107.018 183.734C98.9937 175.689 93.371 166.867 80.3231 167.851Z"/><path transform="scale(2 2)" d="M163.545 197.722C171.717 184.078 178.907 166.502 196.003 164.341C209.507 162.766 221.66 171.888 224.732 184.985C228.021 199.002 219.865 208.414 213.044 219.522C220.301 224.77 245.535 242.858 253.615 243.822C265.63 245.256 284.894 243.413 299.403 246.405C320.752 232.059 337.743 220.762 362.275 211.277C375.984 205.977 396.417 201.645 402.191 186.363C403.763 182.202 401.679 174.955 409.191 176.404C412.234 177.438 415.322 183.836 416.966 186.527C429.41 206.895 431.059 229.073 425.232 251.614C456.509 285.899 440.473 319.53 463.539 345.427C477.927 361.582 433.6 359.88 417.484 332.825C410.227 320.638 407.516 312.066 390.456 309.027C375.385 306.343 370.214 313.471 356.294 316.422C358.018 329.164 365.145 351.355 368.726 364.236C370.203 369.55 369.197 372.507 364.697 375.799C363.077 376.611 361.705 376.795 359.908 376.799L308.623 376.814C302.276 376.838 293.26 377.184 293.345 368.135C293.492 352.526 296.193 336.326 296.319 320.808C268.01 322.229 246.458 319.695 219.143 317.397C231.489 344.731 207.426 367.651 183.884 354.998C176.309 350.927 168.053 346.701 160.243 342.898L112.994 319.728C104.456 315.61 96.1486 311.96 87.5883 307.594C64.3711 297.302 63.7033 263.645 88.94 255.932C101.64 252.05 111.595 258.743 122.241 264.495C118.982 260.379 109.183 249.926 105.266 246.405C108.88 245.067 111.936 243.995 115.381 242.183C118.354 245.858 125.23 252.933 128.67 256.341C130.527 253.712 132.441 250.23 134.081 247.41L142.103 233.626C147.234 224.853 152.959 216.03 157.902 207.165C147.123 208.138 142.718 211.583 133.482 217.081C133.778 213.762 133.978 208.657 133.482 205.44C145.358 198.417 150.022 197.051 163.545 197.722ZM197.634 174.322C186.247 175.97 183.786 183.568 178.428 192.478L141.161 255.072C138.557 259.521 134.814 265.07 132.516 269.435C139.549 273.159 147.349 277.126 154.564 280.604C156.969 281.797 160.195 283.502 162.597 284.481C165.616 278.734 169.897 272.347 173.212 266.504C185.043 245.881 197.774 226.138 209.805 205.805C213.442 199.657 217.335 194.095 215.012 186.601C212.722 179.212 205.488 173.74 197.634 174.322ZM409.614 194.175C401.254 210.228 371.34 219.12 353.62 226.189C362.355 225.879 370.717 226.763 379.307 228.231C395.012 231.347 403.665 235.182 416.851 244.234C419.585 231.876 418.667 204.147 409.614 194.175ZM207.766 228.231C205.253 231.831 202.546 236.815 200.267 240.674L178.923 276.753C176.489 280.902 173.658 285.031 171.298 289.214L186.461 297.055C206.82 307.673 238.756 311.494 261.145 310.782C270.026 312.157 287.299 311.43 296.319 310.782C296.931 284.026 273.241 264.343 251.143 253.993C238.15 247.907 228.837 242.897 217.085 234.655C214.206 232.636 210.725 229.797 207.766 228.231ZM352.223 236.49C338.111 236.863 322.447 241.837 311.233 250.494C317.012 253.163 320.626 254.982 325.609 259.13C327.881 260.982 329.317 262.367 331.351 264.495C343.144 259.446 355.627 248.421 360.664 236.49C357.645 236.278 355.245 236.177 352.223 236.49ZM371.801 237.452C365.275 252.204 353.008 265.581 338.346 272.506C347.357 286.941 347.948 292.533 353.62 306.85C361.295 304.809 366.147 302.842 373.331 299.358C391.353 290.136 407.533 274.455 414.319 255.091C398.555 242.237 390.15 240.822 371.801 237.452ZM271.618 254.06C287.818 264.686 301.001 280.043 305.158 299.426C308.899 316.873 304.535 340.063 303.789 358.107C308.135 354.549 327.068 336.956 331.201 336.998C334.399 338.035 340.275 343.636 342.889 345.824C347.26 349.506 351.762 353.126 356.294 356.611C354.295 347.61 351.037 337.265 348.674 328.015C342.172 302.553 337.39 278.33 313.597 262.8C299.703 253.731 286.906 255.221 271.618 254.06ZM421.509 262.382C415.31 278.337 405.589 288.872 392.44 299.358C420.204 304.116 418.171 321.05 431.732 334.784C437.669 340.198 442.565 342.99 450.467 344.798C446.192 336.323 442.708 329.292 440.689 319.912C436.311 299.579 436.624 278.758 421.509 262.382ZM94.3105 264.495C83.6662 267.907 77.7238 276.09 81.0407 287.437C83.6606 296.4 92.3175 298.216 99.6295 302.203L178.19 340.79C186.195 344.807 189.891 347.276 198.714 348.912C215.814 343.34 218.363 323.892 202.555 315.94L114.591 271.68C107.164 267.956 102.935 264.634 94.3105 264.495ZM330.555 348.912C323.705 355.031 316.121 361.014 308.976 366.789C316.726 366.633 324.798 366.8 332.591 366.789C338.212 366.793 348.367 367.164 353.62 366.789C349.871 364.321 332.549 349.637 330.555 348.912Z"/></svg>