<?xml version="1.0" standalone="no"?>
<!DOCTYPE svg PUBLIC "-//W3C//DTD SVG 20010904//EN"
 "http://www.w3.org/TR/2001/REC-SVG-20010904/DTD/svg10.dtd">
<svg version="1.0" xmlns="http://www.w3.org/2000/svg"
 width="2048.000000pt" height="1536.000000pt" viewBox="0 0 2048.000000 1536.000000"
 preserveAspectRatio="xMidYMid meet">

<g transform="translate(0.000000,1536.000000) scale(0.100000,-0.100000)"
fill="#000000" stroke="none">
<path d="M8915 11670 c-16 -4 -55 -8 -85 -9 -30 0 -80 -10 -110 -21 -72 -27
-74 -28 -83 -26 -5 0 -13 -7 -18 -17 -6 -9 -15 -15 -20 -11 -5 3 -8 0 -7 -8 2
-7 -3 -12 -9 -10 -7 1 -13 -4 -13 -12 0 -7 -18 -29 -40 -49 -22 -19 -40 -42
-40 -51 0 -10 -4 -15 -9 -11 -8 5 -19 -15 -27 -50 -18 -77 -32 -170 -27 -178
3 -6 1 -7 -5 -3 -8 5 -12 -4 -12 -29 0 -21 4 -34 10 -30 6 3 7 -1 4 -10 -8
-20 15 -77 29 -68 6 3 7 1 3 -5 -33 -53 242 -312 331 -312 18 0 33 -4 33 -9 0
-4 17 -7 38 -5 20 2 62 -2 92 -8 30 -6 59 -11 64 -9 5 1 32 7 60 12 28 5 67
21 86 34 19 14 36 21 38 16 1 -4 -6 -32 -18 -60 -11 -28 -20 -63 -20 -76 0
-13 -5 -27 -10 -30 -6 -4 -8 -10 -5 -15 3 -4 -2 -13 -10 -20 -9 -8 -15 -30
-15 -59 0 -25 -7 -68 -15 -96 -9 -27 -18 -75 -20 -105 -2 -30 -5 -55 -5 -55
-1 0 -3 -47 -5 -105 -4 -111 3 -213 14 -206 9 6 7 -66 -2 -81 -4 -6 -3 -15 3
-18 6 -4 10 -32 9 -63 -1 -31 -2 -100 -1 -152 0 -52 0 -104 0 -115 0 -11 3
-40 7 -65 9 -57 9 -118 0 -252 -9 -124 -1 -202 20 -194 10 3 12 0 8 -12 -3 -9
-4 -15 0 -12 3 3 12 24 20 47 16 48 16 394 -1 687 -11 190 -7 208 49 220 44 9
254 114 276 138 10 11 41 31 70 43 62 28 125 69 118 78 -3 4 -2 5 1 2 11 -8
63 25 95 60 17 19 46 39 64 45 17 6 37 21 43 33 14 30 26 70 24 80 -1 5 2 6 8
2 5 -3 13 1 16 9 3 9 13 16 22 16 8 0 13 3 9 6 -3 4 1 13 9 21 34 35 83 123
77 140 -5 12 -2 15 10 10 11 -4 17 -1 17 8 0 8 9 19 20 25 14 8 20 21 20 46 0
19 7 49 16 65 8 17 13 37 10 45 -3 7 -1 13 4 11 5 -1 15 7 23 18 14 19 16 18
51 -13 35 -30 64 -43 51 -22 -3 6 1 7 10 4 11 -5 13 -10 5 -19 -8 -10 0 -25
30 -60 41 -47 71 -99 85 -145 4 -14 18 -48 31 -76 12 -29 27 -74 32 -100 8
-43 37 -160 46 -189 2 -5 4 -14 4 -18 1 -4 8 -14 15 -22 8 -7 28 -69 46 -137
28 -109 62 -212 103 -316 19 -49 -3 -62 -106 -62 -71 -1 -85 -4 -111 -25 l-30
-25 -5 -142 c-4 -100 -9 -149 -19 -165 -8 -11 -44 -40 -80 -64 -36 -24 -68
-45 -71 -49 -3 -3 -17 -11 -32 -17 -16 -7 -28 -17 -28 -23 0 -6 -5 -8 -10 -5
-15 9 -41 -21 -34 -39 4 -11 -2 -17 -23 -22 -15 -4 -39 -17 -53 -29 -36 -32
-141 -103 -219 -149 -36 -21 -68 -42 -71 -45 -14 -19 -78 -60 -83 -54 -4 3 -7
-1 -7 -10 0 -10 -3 -16 -7 -15 -15 4 -54 -23 -48 -33 4 -5 3 -8 -2 -7 -11 4
-83 -44 -83 -54 0 -5 -6 -8 -13 -8 -7 0 -22 -7 -32 -15 -11 -8 -45 -31 -75
-52 -30 -20 -57 -40 -58 -45 -2 -4 -7 -6 -11 -4 -4 3 -34 -16 -67 -42 -32 -26
-72 -54 -89 -64 -16 -9 -29 -21 -27 -28 1 -6 -2 -9 -7 -6 -5 4 -29 -9 -53 -26
-24 -18 -63 -46 -88 -62 -25 -16 -56 -37 -70 -48 -14 -10 -35 -23 -48 -28 -37
-16 -139 -88 -174 -123 -18 -18 -49 -41 -69 -50 -20 -9 -42 -23 -49 -32 -7 -8
-21 -15 -32 -15 -10 0 -16 -4 -13 -10 3 -5 -2 -10 -13 -10 -10 0 -29 -11 -42
-25 -13 -14 -29 -25 -37 -25 -7 0 -12 -3 -12 -7 4 -23 -4 -33 -25 -33 -13 0
-27 -7 -30 -16 -3 -8 -10 -12 -16 -9 -5 3 -10 3 -10 -2 0 -4 -12 -14 -27 -20
-16 -7 -46 -29 -67 -48 -22 -19 -48 -35 -57 -35 -10 0 -23 -9 -29 -20 -6 -11
-15 -18 -21 -15 -5 4 -9 2 -9 -4 0 -5 -17 -20 -37 -32 -21 -13 -47 -33 -58
-46 -11 -13 -26 -23 -33 -23 -7 0 -12 -4 -12 -9 0 -5 -13 -14 -29 -21 -20 -8
-28 -17 -24 -27 4 -9 0 -13 -8 -12 -19 4 -59 -10 -59 -21 0 -5 -14 -19 -32
-31 -17 -13 -28 -17 -23 -9 5 8 -4 5 -19 -8 -16 -12 -33 -22 -38 -22 -5 0 -14
-5 -21 -10 -25 -21 -88 -60 -97 -60 -6 0 -10 -4 -10 -10 0 -5 -3 -9 -7 -8 -17
4 -82 -36 -86 -53 -3 -12 -11 -16 -26 -12 -13 3 -21 1 -21 -6 0 -7 -5 -9 -11
-5 -8 4 -9 0 -4 -15 5 -15 2 -21 -9 -21 -9 0 -16 5 -16 12 0 19 -40 -25 -44
-49 -4 -17 -1 -20 12 -14 89 40 138 65 144 74 4 7 8 8 8 3 0 -5 10 0 23 11 34
32 255 172 314 200 29 14 83 51 121 83 37 31 93 73 124 93 31 19 59 40 62 45
3 6 24 13 46 17 28 5 40 12 40 24 0 10 12 20 33 26 21 7 32 16 31 28 -1 10 5
17 16 17 10 0 53 27 94 60 65 52 358 248 536 360 30 19 84 58 120 87 36 29 88
64 115 79 28 15 68 42 90 59 22 18 72 53 110 78 39 25 90 64 115 86 25 23 83
61 130 86 47 25 106 62 133 82 26 21 88 70 137 108 66 52 89 75 86 88 -3 13 0
17 11 13 18 -7 96 47 85 59 -4 5 -1 5 6 1 8 -5 26 5 48 23 19 17 41 32 49 33
8 0 21 1 28 2 17 1 36 19 30 29 -2 4 -1 6 4 5 13 -4 93 64 87 74 -3 4 0 8 7 8
8 0 9 10 5 30 -3 18 -2 29 4 25 5 -3 7 10 4 32 -4 29 -3 34 5 23 8 -11 11 2
12 55 3 89 3 92 12 101 4 4 7 15 7 25 0 31 33 40 120 33 74 -6 82 -5 100 14
26 28 25 77 -1 132 -11 23 -22 55 -24 71 -6 46 -26 113 -40 135 -7 11 -16 34
-19 50 -17 88 -27 126 -36 143 -5 11 -10 30 -10 43 0 13 -7 33 -15 44 -8 10
-15 29 -15 42 0 13 -7 30 -15 38 -8 9 -15 24 -15 34 0 10 -4 22 -10 25 -5 3
-10 23 -10 45 0 24 -5 40 -15 44 -8 3 -15 14 -15 24 0 10 -5 23 -12 30 -9 9
-9 12 2 12 11 0 11 2 -1 13 -9 6 -22 32 -29 57 -16 52 -71 144 -106 178 -13
13 -24 20 -24 16 0 -3 -7 -1 -15 6 -8 7 -12 17 -8 24 3 6 3 8 -1 4 -4 -3 -25
12 -46 34 -22 22 -46 41 -54 42 -9 1 -30 15 -48 31 -18 16 -37 30 -43 32 -5 1
-44 10 -85 21 -150 39 -252 49 -300 29 -8 -3 -40 -8 -70 -10 -30 -3 -71 -8
-90 -13 -19 -4 -45 -8 -57 -8 -13 -1 -23 -3 -23 -6 0 -3 -12 -7 -26 -8 -20 -1
-25 2 -20 14 3 9 9 28 13 42 3 15 12 35 19 46 7 10 10 34 8 55 -14 104 -29
167 -50 209 -13 26 -24 55 -24 66 0 25 -119 140 -172 167 -24 12 -50 27 -58
34 -39 32 -167 51 -235 35z m78 -44 c31 -3 66 -10 76 -16 11 -5 34 -10 52 -10
39 0 109 -45 109 -69 0 -10 -5 -22 -12 -29 -18 -18 6 -39 39 -35 40 6 71 -31
83 -98 4 -30 16 -69 25 -87 15 -28 19 -31 33 -20 14 12 14 10 3 -10 -7 -13
-15 -47 -18 -75 -3 -29 -12 -70 -20 -92 -8 -22 -18 -55 -23 -73 -4 -18 -13
-39 -20 -47 -6 -8 -8 -20 -4 -26 4 -8 3 -9 -5 -5 -15 10 -43 -13 -34 -27 3 -5
1 -7 -4 -4 -6 4 -16 1 -22 -6 -20 -25 -173 -90 -222 -95 -47 -4 -49 -4 -49 21
0 14 -5 29 -12 33 -7 5 -8 3 -3 -7 8 -12 6 -12 -8 0 -12 9 -17 10 -17 2 0 -7
-11 -23 -24 -36 l-25 -24 -57 19 c-32 11 -65 26 -73 33 -9 8 -42 26 -74 42
-64 32 -95 64 -104 107 -5 25 -48 65 -65 60 -4 -1 -5 5 -2 13 4 10 2 13 -8 10
-11 -5 -16 2 -16 22 -1 15 -4 80 -8 144 -6 112 -5 116 15 122 17 4 21 13 21
42 0 31 8 45 54 91 29 30 60 54 68 54 9 0 22 10 30 22 17 26 131 52 159 37 12
-6 21 -4 30 7 7 8 18 13 26 10 8 -3 16 1 20 9 3 10 9 12 17 6 6 -5 37 -12 69
-15z m882 -636 c83 -9 171 -42 217 -80 32 -27 32 -29 16 -47 -10 -10 -32 -50
-49 -88 -17 -39 -53 -97 -79 -130 -26 -33 -70 -95 -98 -137 -28 -42 -79 -100
-114 -130 -34 -29 -75 -65 -91 -80 -16 -16 -32 -28 -35 -28 -4 0 -13 -9 -19
-19 -7 -11 -23 -21 -35 -23 -16 -2 -22 -9 -20 -21 3 -15 0 -17 -17 -8 -24 13
-54 14 -47 2 8 -12 -13 -28 -47 -36 -22 -6 -27 -12 -24 -26 4 -14 0 -19 -16
-19 -12 0 -36 -8 -52 -19 -17 -10 -47 -23 -68 -30 -20 -7 -37 -16 -37 -20 0
-8 -65 -41 -80 -41 -6 0 -10 7 -10 14 0 8 -13 35 -30 59 -34 51 -36 59 -14 50
14 -5 15 1 9 48 -4 30 -11 56 -16 57 -16 6 -10 22 9 23 14 1 14 2 1 6 -14 3
-13 13 3 95 22 111 43 152 82 156 33 4 33 35 -1 40 -17 3 -20 7 -14 20 5 9 14
46 21 82 6 36 15 70 18 76 18 31 212 200 249 216 23 10 65 21 95 24 29 2 78
11 108 19 30 8 69 12 85 9 17 -3 62 -9 100 -14z m-725 -516 c0 -8 -4 -12 -10
-9 -5 3 -10 10 -10 16 0 5 5 9 10 9 6 0 10 -7 10 -16z m900 -1444 c0 -5 -4
-10 -10 -10 -5 0 -10 5 -10 10 0 6 5 10 10 10 6 0 10 -4 10 -10z m-490 -350
c0 -5 -4 -10 -9 -10 -6 0 -13 5 -16 10 -3 6 1 10 9 10 9 0 16 -4 16 -10z
m-1490 -1020 c0 -5 -7 -10 -16 -10 -8 0 -12 5 -9 10 3 6 10 10 16 10 5 0 9 -4
9 -10z"/>
<path d="M9489 10869 c-10 -6 -10 -9 -1 -9 6 0 12 -5 12 -11 0 -5 -6 -7 -12
-3 -10 5 -10 4 -1 -6 14 -15 43 -6 43 14 0 18 -23 27 -41 15z"/>
<path d="M9660 10863 c0 -5 4 -14 9 -22 11 -17 31 -6 30 17 -1 15 -2 15 -6 -1
-2 -9 -9 -15 -14 -11 -5 3 -7 10 -4 15 4 5 1 9 -4 9 -6 0 -11 -3 -11 -7z"/>
<path d="M9930 10855 c0 -8 4 -15 8 -15 5 0 9 7 9 15 0 8 -4 15 -9 15 -4 0 -8
-7 -8 -15z"/>
<path d="M10211 10029 c-37 -20 -69 -29 -101 -29 -46 0 -100 18 -100 33 0 5
-4 5 -10 2 -5 -3 -10 -2 -10 2 0 5 -8 9 -19 10 -17 1 -20 -11 -12 -48 4 -20
77 -40 148 -40 93 -1 117 8 163 56 23 24 28 34 16 29 -14 -5 -17 -4 -12 4 10
17 -1 13 -63 -19z"/>
<path d="M12864 9475 c-15 -14 -23 -25 -18 -25 5 -1 -3 -8 -18 -16 -16 -8 -28
-19 -28 -25 0 -6 -4 -7 -10 -4 -5 3 -10 2 -10 -2 0 -8 -57 -47 -70 -48 -3 0
-21 -16 -40 -34 -19 -18 -50 -39 -67 -47 -18 -8 -33 -19 -33 -24 0 -6 -5 -10
-11 -10 -7 0 -32 -17 -58 -37 -25 -21 -41 -31 -36 -24 4 8 -7 3 -26 -11 -19
-14 -50 -28 -70 -32 -20 -3 -44 -15 -54 -26 -10 -11 -21 -17 -25 -15 -4 2 -26
-13 -48 -35 -22 -22 -47 -40 -55 -40 -9 0 -37 -17 -64 -37 -26 -21 -68 -49
-93 -62 -25 -13 -56 -33 -69 -43 -13 -10 -28 -18 -34 -18 -6 0 -25 -11 -43
-25 -18 -14 -44 -25 -59 -25 -38 0 -91 -25 -137 -64 -23 -20 -44 -33 -49 -30
-4 2 -14 -2 -21 -9 -7 -8 -20 -12 -30 -9 -10 2 -18 -1 -18 -7 0 -6 -9 -11 -19
-11 -11 0 -33 -11 -49 -25 -17 -14 -35 -25 -41 -25 -6 0 -11 -4 -11 -10 0 -5
-6 -10 -14 -10 -8 0 -18 -5 -22 -12 -4 -7 -3 -8 4 -4 7 4 10 2 7 -6 -3 -8 -17
-15 -32 -16 -15 -1 -30 -8 -35 -15 -4 -6 -8 -9 -8 -4 0 4 -9 -2 -20 -13 -11
-11 -27 -20 -35 -20 -8 0 -15 -5 -15 -11 0 -5 -4 -7 -10 -4 -5 3 -10 -2 -11
-12 0 -10 -3 -13 -5 -7 -6 15 -74 -48 -74 -68 0 -9 -11 -19 -25 -22 -14 -4
-25 -11 -25 -16 0 -6 -4 -10 -10 -10 -15 0 -49 -37 -42 -45 4 -3 -1 -3 -10 0
-10 4 -25 -2 -37 -14 -12 -12 -23 -21 -26 -21 -3 0 -8 0 -12 0 -5 0 -1 -4 7
-10 8 -5 11 -12 7 -16 -3 -4 -12 -2 -19 3 -9 8 -26 2 -60 -22 -27 -17 -45 -35
-40 -40 4 -5 1 -5 -7 0 -7 4 -16 4 -20 -1 -3 -5 -19 -17 -36 -26 -106 -60
-155 -91 -155 -99 0 -5 -6 -9 -13 -9 -6 0 -30 -17 -53 -37 -28 -26 -52 -39
-75 -40 -19 -2 -35 -7 -37 -13 -2 -6 -8 -8 -12 -5 -12 7 -33 -32 -25 -45 3 -6
0 -10 -8 -10 -8 0 -20 -7 -27 -15 -13 -16 -163 -107 -255 -155 -33 -17 -67
-38 -75 -48 -8 -9 -28 -26 -45 -36 -16 -11 -34 -25 -38 -33 -4 -7 -13 -13 -20
-13 -7 0 -23 -10 -37 -23 -14 -13 -50 -36 -80 -51 -52 -26 -76 -38 -110 -58
-8 -4 -21 -11 -29 -15 -8 -3 -33 -25 -56 -47 -57 -55 -63 -60 -114 -75 -30 -8
-63 -32 -107 -76 -36 -34 -86 -73 -112 -86 -26 -13 -56 -34 -67 -46 -11 -13
-26 -23 -33 -23 -21 0 -113 -68 -99 -73 6 -3 -1 -6 -16 -6 -20 -1 -27 -6 -25
-18 2 -10 -11 -26 -32 -40 -19 -12 -40 -27 -47 -33 -7 -5 -17 -10 -23 -10 -20
0 -60 -32 -53 -43 4 -6 0 -8 -10 -4 -10 3 -17 2 -17 -3 0 -6 -7 -10 -15 -10
-8 0 -15 -5 -15 -11 0 -5 -4 -8 -9 -5 -8 6 -143 -90 -149 -106 -2 -4 -8 -8
-14 -8 -6 0 -37 -16 -70 -36 -45 -28 -58 -41 -56 -57 4 -24 -19 -36 -24 -12
-3 14 -5 14 -23 0 -39 -29 -96 -65 -105 -65 -6 0 -10 -4 -10 -9 0 -5 -9 -13
-20 -16 -11 -4 -18 -11 -15 -16 4 -5 -1 -9 -9 -9 -8 0 -21 -6 -28 -12 -20 -19
-76 -58 -83 -58 -3 0 -18 -12 -34 -26 -16 -14 -33 -26 -38 -27 -14 -2 -31 -22
-25 -31 3 -5 0 -6 -6 -2 -6 3 -16 0 -24 -7 -7 -7 -42 -31 -78 -54 -36 -23 -72
-48 -80 -55 -8 -7 -18 -12 -23 -10 -4 1 -10 -5 -13 -13 -4 -9 -34 -32 -68 -51
-33 -20 -63 -39 -66 -43 -3 -4 -22 -19 -42 -33 -21 -13 -36 -27 -33 -30 2 -2
-17 -16 -43 -30 l-47 -26 2 -53 c2 -35 8 -58 18 -65 9 -7 15 -16 14 -20 -4
-21 2 -35 11 -29 6 3 10 1 10 -5 0 -6 5 -8 13 -4 8 5 8 3 -2 -9 -11 -14 -11
-18 3 -23 10 -4 15 -13 12 -20 -3 -8 3 -22 12 -31 10 -10 24 -27 32 -37 13
-18 13 -19 0 -12 -8 4 -6 -1 5 -11 11 -10 27 -32 36 -48 10 -17 26 -34 38 -40
12 -5 21 -17 21 -26 0 -9 7 -19 15 -23 8 -3 14 -9 13 -13 -4 -14 23 -54 33
-48 5 4 9 2 9 -3 0 -5 11 -22 25 -38 14 -16 25 -32 25 -36 0 -5 7 -8 15 -8 8
0 15 -7 15 -15 0 -8 3 -15 8 -15 4 0 25 -16 47 -35 22 -20 57 -50 78 -68 22
-18 63 -56 93 -85 30 -29 54 -47 55 -40 0 7 4 3 9 -9 5 -12 37 -41 72 -64 35
-23 65 -45 68 -48 16 -19 100 -81 109 -81 6 0 11 -5 11 -12 0 -6 3 -9 6 -5 4
3 13 -1 21 -9 8 -8 19 -12 24 -9 5 4 9 1 9 -4 0 -6 7 -11 16 -11 14 0 32 -12
91 -60 7 -6 14 -10 15 -9 7 5 145 -45 159 -58 9 -7 25 -15 35 -17 11 -3 32 -9
47 -15 16 -6 38 -11 51 -11 12 0 34 -12 47 -27 25 -28 25 -29 22 -198 -3 -205
-6 -245 -15 -238 -5 2 -8 -38 -9 -89 0 -51 -2 -105 -4 -121 -2 -15 -1 -25 3
-23 4 2 6 -13 4 -35 -2 -21 0 -39 4 -39 5 0 10 -14 11 -30 1 -18 -2 -28 -7
-25 -6 4 -10 -8 -9 -27 1 -30 2 -31 8 -8 l7 25 11 -32 c7 -20 8 -43 3 -60 l-8
-28 -3 30 c-1 21 -3 24 -6 10 -5 -25 23 -95 38 -95 5 0 8 -3 6 -7 -3 -5 59 -8
136 -8 78 0 163 -3 189 -7 41 -7 46 -5 41 9 -5 13 -2 15 11 10 10 -4 20 -7 22
-7 2 0 4 -6 4 -14 0 -10 27 -15 118 -20 64 -4 139 -9 166 -12 34 -5 47 -3 42
5 -10 15 17 14 32 -1 10 -10 17 -10 32 0 14 8 27 9 47 1 28 -10 153 -11 153 0
0 3 48 7 106 7 59 1 110 6 116 12 8 8 14 7 23 -2 15 -14 75 -9 75 6 0 5 5 6
12 2 6 -4 8 -3 4 4 -3 6 -2 14 4 17 8 5 8 11 0 20 -8 10 -8 19 0 35 7 14 10
47 6 88 -8 98 -8 102 1 167 9 64 7 98 -7 90 -9 -6 -7 36 5 79 5 17 4 27 -1 23
-6 -3 -6 39 -1 106 4 62 5 130 2 152 -10 77 -12 125 -3 125 4 0 7 19 7 43 -2
48 14 87 36 87 8 0 15 4 15 8 0 4 12 9 26 10 14 1 32 8 40 17 8 8 30 17 49 21
20 3 38 10 41 15 3 5 10 7 15 4 5 -4 9 -1 9 5 0 6 5 8 10 5 6 -3 10 -1 10 6 0
7 3 9 7 6 3 -4 13 -1 21 5 7 7 23 13 34 15 11 2 29 9 41 15 12 7 28 11 35 10
7 -2 15 4 18 13 4 9 19 15 39 15 19 0 37 5 40 10 4 6 10 8 15 5 13 -8 41 6 33
18 -4 6 0 8 10 4 10 -4 21 3 32 19 9 14 20 22 26 19 5 -4 12 1 15 9 3 9 15 16
25 16 10 0 19 5 19 11 0 5 5 7 12 3 6 -4 17 1 25 11 7 11 13 15 13 11 0 -4 17
9 38 28 20 20 40 36 45 36 4 0 7 9 7 20 0 11 -7 20 -16 20 -25 0 -55 -20 -48
-32 4 -6 3 -8 -4 -4 -12 7 -62 -13 -62 -26 0 -5 -4 -6 -10 -3 -5 3 -10 0 -10
-8 0 -8 -36 -33 -80 -57 -44 -24 -77 -47 -73 -53 3 -6 1 -7 -5 -3 -12 7 -94
-22 -162 -59 -25 -13 -67 -29 -95 -36 -27 -7 -75 -23 -105 -37 -61 -27 -70
-29 -117 -19 l-32 6 1 88 c1 51 6 91 12 96 8 5 7 10 -3 16 -9 6 -12 22 -7 57
12 109 11 168 -4 159 -6 -4 -9 12 -9 42 l2 48 7 -40 c5 -28 7 -11 6 57 0 53 2
94 7 91 8 -5 9 17 9 176 -1 66 4 120 10 131 7 10 8 25 3 36 -4 11 -9 24 -10
29 -1 6 -3 15 -5 20 -1 6 -2 63 0 129 1 80 -2 116 -9 112 -7 -4 -8 6 -5 31 14
100 16 175 3 167 -9 -5 -10 -2 -6 10 4 10 7 33 7 52 0 30 4 37 30 45 17 6 30
15 30 21 0 5 4 7 9 4 4 -3 16 3 25 13 10 11 43 29 74 42 63 25 84 38 77 48 -2
4 1 8 8 8 18 0 67 33 67 46 0 6 3 7 7 4 6 -6 150 67 163 82 3 3 25 17 50 30
57 30 222 136 275 176 22 17 60 37 85 45 25 8 68 34 96 59 28 26 86 68 130 96
43 27 97 63 120 80 23 16 50 36 60 43 10 7 13 10 7 7 -7 -3 -13 -1 -13 4 0 6
10 10 23 9 20 -2 157 67 157 78 0 3 -6 2 -12 -2 -8 -4 -9 -3 -5 2 5 5 14 9 20
9 7 1 37 13 67 27 101 48 95 50 108 -51 15 -108 15 -218 2 -376 -11 -123 -54
-366 -71 -398 -5 -10 -7 -22 -4 -27 9 -15 -44 -196 -80 -274 -49 -108 -59
-130 -57 -138 1 -5 -3 -8 -9 -8 -6 0 -8 -7 -5 -16 4 -10 2 -13 -6 -8 -8 5 -9
2 -5 -10 4 -9 3 -14 -2 -11 -12 7 -24 -31 -15 -46 4 -7 3 -9 -3 -6 -6 4 -15
-5 -21 -18 -6 -13 -23 -43 -38 -67 -15 -24 -26 -43 -23 -44 2 0 -2 -8 -9 -17
-8 -9 -11 -21 -7 -27 3 -5 2 -10 -4 -10 -5 0 -13 -10 -17 -22 -4 -13 -9 -25
-13 -28 -3 -3 -25 -30 -48 -60 -23 -30 -63 -77 -87 -105 -25 -27 -46 -56 -46
-63 0 -7 -15 -28 -32 -45 -18 -18 -57 -58 -86 -90 -29 -31 -56 -57 -59 -57
-13 0 -41 -43 -36 -55 3 -9 -4 -16 -20 -20 -14 -4 -28 -13 -31 -22 -3 -8 -11
-11 -17 -7 -7 4 -10 1 -7 -7 9 -25 51 -15 85 20 18 19 33 39 33 44 0 6 3 8 6
4 12 -11 198 193 227 249 9 19 22 34 27 34 14 0 72 67 96 110 12 22 23 37 26
34 3 -2 8 9 12 26 3 18 10 29 16 25 6 -4 9 -3 8 2 -4 14 13 53 23 53 5 0 9 8
9 19 0 10 7 24 15 31 8 7 15 19 15 26 0 8 5 14 10 14 6 0 10 6 10 14 0 8 7 16
15 20 8 3 12 11 9 19 -3 8 2 20 11 27 8 7 15 19 15 28 0 8 11 30 26 49 14 18
22 38 19 43 -3 6 0 13 9 16 9 3 12 12 9 21 -4 11 -2 14 5 9 7 -4 12 -1 12 8 0
8 -4 18 -10 21 -15 9 -12 25 5 25 8 0 15 5 15 11 0 5 4 8 9 5 5 -3 9 0 8 7 -1
35 4 58 12 53 8 -5 26 64 24 94 -3 28 29 180 36 176 4 -3 7 18 6 45 -1 29 4
54 11 60 7 6 10 18 7 26 -5 12 -3 14 7 8 10 -6 12 0 7 28 -4 25 -2 37 6 37 7
0 6 4 -3 10 -10 7 -12 12 -4 18 13 8 26 234 29 498 1 100 5 186 9 192 3 5 33
19 66 32 33 12 71 33 85 46 14 13 32 24 40 24 7 0 51 25 96 55 46 31 93 58
106 61 13 4 23 10 23 15 0 5 3 8 8 7 7 -3 23 8 63 45 10 9 24 17 29 17 6 0 13
7 16 15 4 8 9 13 13 10 4 -2 8 2 8 10 0 18 -2 18 -30 1 -12 -8 -41 -16 -65
-17 -33 -2 -56 -14 -110 -54 -37 -28 -93 -63 -124 -78 -32 -14 -58 -31 -58
-37 0 -6 -4 -9 -9 -5 -5 3 -15 -1 -23 -8 -7 -7 -21 -16 -31 -20 -11 -4 -15
-12 -11 -18 4 -7 3 -9 -3 -6 -6 4 -29 -1 -51 -10 -25 -9 -48 -12 -59 -8 -10 5
-21 8 -25 7 -9 -2 -27 55 -20 64 4 4 2 4 -5 0 -13 -7 -28 28 -18 44 3 5 1 10
-5 10 -6 0 -8 5 -5 10 3 6 1 10 -5 10 -6 0 -10 10 -8 23 4 35 -13 128 -22 122
-5 -3 -12 10 -16 30 -3 19 -11 35 -16 35 -5 0 -7 13 -3 30 5 22 1 37 -14 57
-14 16 -19 33 -15 46 5 14 2 19 -7 15 -10 -4 -15 3 -16 20 0 14 -9 32 -19 39
-10 7 -14 13 -10 13 5 0 3 7 -4 15 -6 8 -13 25 -14 38 -2 14 -13 35 -24 48
-12 12 -22 27 -22 31 0 5 -4 7 -8 4 -4 -2 -8 3 -9 12 -3 39 -7 61 -12 57 -5
-6 -51 47 -51 58 0 5 -5 5 -12 1 -7 -4 -8 -3 -4 5 8 12 -30 81 -45 81 -5 0 -9
7 -9 15 0 8 -7 15 -15 15 -8 0 -12 6 -9 13 3 8 -2 20 -11 27 -8 7 -15 19 -15
26 0 8 -4 14 -9 14 -14 0 -42 49 -46 80 -3 25 3 34 43 63 26 19 79 46 117 61
99 38 142 60 156 79 3 5 13 7 20 5 15 -3 72 36 64 44 -2 2 8 5 22 6 15 1 30 8
35 15 4 6 8 8 8 2 0 -5 6 -3 13 6 7 8 41 33 77 55 36 21 71 46 78 54 9 10 11
10 7 1 -5 -9 1 -8 19 4 14 9 23 21 20 26 -3 5 -1 8 4 7 13 -4 102 53 102 65 0
5 6 7 14 4 8 -3 17 1 20 10 5 11 9 13 20 4 10 -9 30 2 87 49 40 33 77 60 82
60 4 0 7 8 5 17 -2 13 7 19 39 25 32 7 42 14 45 31 2 14 29 39 79 73 103 69
107 70 123 34 7 -17 15 -28 18 -25 10 11 13 -379 3 -425 -4 -19 -3 -21 4 -10
7 10 9 -1 4 -39 -4 -37 -3 -52 4 -48 8 5 10 -7 6 -35 -3 -32 -2 -39 6 -28 8
12 10 11 8 -7 0 -12 -5 -19 -9 -16 -5 2 -6 -8 -3 -24 5 -21 4 -24 -4 -13 -7 9
-11 10 -11 3 0 -6 5 -15 11 -19 6 -3 9 -15 6 -25 -3 -11 -1 -17 4 -13 5 3 9 0
9 -5 0 -6 -5 -11 -11 -11 -7 0 -8 -7 -4 -17 20 -52 25 -721 5 -708 -4 2 -21
-9 -39 -25 -18 -17 -38 -30 -44 -30 -7 0 -18 -9 -25 -20 -7 -11 -19 -20 -27
-20 -19 0 -74 -60 -75 -80 0 -12 2 -13 9 -1 5 7 14 10 20 7 6 -4 14 0 17 8 3
9 9 14 14 11 4 -2 16 3 26 13 11 9 39 28 64 41 109 60 133 122 127 318 -3 76
-10 151 -16 166 -6 16 -9 32 -7 36 15 23 0 484 -15 489 -5 2 -9 8 -9 13 0 6 6
7 13 3 6 -4 4 2 -6 13 -16 18 -17 31 -12 80 4 32 11 63 15 68 8 10 6 62 -3
105 -3 14 -8 87 -11 162 -7 169 -13 184 -71 187 -34 1 -49 -3 -71 -24z m123
-207 c-3 -8 -6 -5 -6 6 -1 11 2 17 5 13 3 -3 4 -12 1 -19z m0 -370 c-3 -7 -5
-2 -5 12 0 14 2 19 5 13 2 -7 2 -19 0 -25z m-1412 -296 c6 -4 36 -42 69 -84
32 -43 62 -78 67 -78 5 0 8 -3 7 -7 -5 -13 43 -83 52 -78 5 3 12 0 16 -6 4 -8
3 -9 -4 -5 -7 4 -12 2 -12 -4 0 -6 7 -13 15 -16 8 -4 13 -10 10 -14 -3 -4 2
-11 11 -14 9 -4 14 -9 11 -13 -4 -3 2 -18 12 -32 10 -14 21 -34 24 -44 4 -11
12 -15 18 -11 7 4 9 3 6 -3 -7 -11 52 -155 65 -161 4 -2 4 -10 1 -18 -3 -8 0
-21 7 -29 7 -8 10 -15 7 -15 -4 0 4 -15 17 -34 14 -22 30 -70 41 -128 10 -51
26 -112 36 -136 11 -26 16 -54 12 -72 -5 -25 -2 -30 21 -36 21 -5 25 -11 20
-26 -3 -11 0 -33 6 -49 11 -25 10 -32 -3 -42 -9 -7 -21 -24 -26 -39 -6 -17
-24 -33 -48 -43 -72 -31 -108 -54 -105 -67 2 -7 0 -10 -3 -6 -8 8 -106 -64
-139 -101 -11 -11 -29 -21 -40 -21 -12 0 -33 -7 -48 -15 -63 -34 -75 -41 -103
-61 -17 -12 -40 -25 -52 -28 -13 -4 -29 -13 -36 -19 -7 -7 -26 -19 -42 -28
-17 -9 -29 -21 -27 -28 1 -7 -2 -10 -6 -7 -13 8 -103 -64 -95 -77 3 -5 2 -7
-4 -4 -5 3 -36 -12 -69 -34 -32 -21 -63 -39 -68 -39 -20 0 -133 -60 -159 -84
-15 -14 -52 -37 -83 -52 -30 -14 -52 -30 -48 -35 3 -5 1 -8 -4 -7 -11 4 -102
-62 -102 -74 0 -4 -4 -7 -8 -6 -11 4 -82 -33 -106 -54 -10 -10 -23 -15 -28
-12 -4 3 -8 2 -8 -3 0 -4 -13 -14 -30 -21 -16 -8 -30 -20 -30 -28 0 -8 -10
-14 -22 -14 -19 0 -20 -2 -8 -10 12 -8 11 -10 -7 -10 -12 0 -29 -7 -37 -16 -9
-8 -16 -12 -16 -7 0 4 -5 1 -10 -7 -5 -8 -15 -15 -22 -15 -8 0 -13 -14 -13
-38 0 -21 -6 -42 -14 -46 -9 -6 -12 -31 -9 -90 2 -44 -1 -81 -6 -81 -5 0 -4
-6 1 -12 5 -7 10 -42 12 -78 2 -36 7 -87 11 -114 4 -26 4 -65 -1 -85 -4 -20
-9 -260 -11 -534 l-3 -499 -30 -24 c-17 -13 -43 -24 -60 -24 -28 0 -92 -14
-125 -27 -8 -3 -18 -6 -21 -5 -3 1 -30 -6 -60 -14 -30 -8 -108 -16 -174 -19
-66 -3 -141 -8 -168 -10 -26 -3 -65 -1 -86 5 -22 6 -66 12 -98 15 -83 6 -162
16 -204 25 -19 4 -48 6 -62 4 -17 -2 -25 1 -21 7 4 7 -13 10 -47 8 -103 -4
-116 11 -106 136 4 58 2 75 -9 79 -8 3 -14 11 -14 18 0 9 3 8 10 -2 7 -10 8 4
5 45 -3 39 -1 55 5 45 7 -10 10 0 9 35 0 35 -3 44 -8 30 -6 -14 -8 -7 -8 25 1
25 0 160 -2 300 -1 140 0 382 2 538 4 208 2 282 -7 284 -33 4 -42 2 -48 -12
-12 -27 -9 -267 4 -295 9 -21 9 -28 -1 -35 -15 -9 -7 -95 10 -105 5 -4 0 -20
-12 -37 -21 -29 -22 -37 -16 -207 3 -111 11 -202 22 -246 16 -69 32 -106 23
-52 -3 15 -1 27 4 27 15 0 6 -82 -13 -120 -14 -28 -17 -53 -14 -121 2 -48 9
-105 16 -127 13 -46 6 -104 -17 -123 -46 -38 -285 32 -399 116 -16 13 -50 33
-75 45 -24 13 -79 49 -121 82 -66 51 -80 58 -105 52 -23 -5 -27 -4 -17 6 17
18 7 35 -41 65 -24 15 -51 40 -60 56 -9 16 -22 29 -28 29 -6 0 -33 16 -59 35
-27 19 -53 35 -59 35 -5 0 -7 7 -4 15 4 9 -10 29 -37 52 -24 21 -64 60 -89 87
-70 77 -132 131 -144 128 -6 -2 -8 0 -4 3 4 4 -4 24 -17 44 -14 19 -25 42 -25
50 0 8 -11 27 -25 41 -13 14 -35 47 -48 73 -14 26 -36 56 -51 68 -21 16 -26
29 -26 63 0 41 2 43 59 76 33 19 57 39 54 44 -4 5 5 6 19 3 18 -5 30 -1 43 13
9 10 49 38 89 61 39 24 101 64 139 91 37 26 70 48 75 48 12 1 72 59 72 70 0 5
3 9 8 8 11 -3 92 51 92 62 0 6 9 10 20 10 12 0 32 11 46 25 14 14 29 23 33 21
4 -3 43 19 87 49 157 109 186 127 222 140 20 8 33 14 29 14 -18 2 91 100 118
107 17 4 40 17 53 30 13 12 38 29 56 38 18 9 62 36 96 62 35 25 99 68 144 94
82 48 219 153 311 236 28 25 71 58 97 72 112 64 271 164 314 196 26 20 53 36
60 36 7 0 36 21 66 46 29 25 86 64 126 86 40 22 78 47 85 56 7 10 37 30 67 46
30 16 65 39 78 52 12 13 41 28 63 34 26 7 56 27 83 54 22 24 57 48 76 55 19 6
67 38 105 71 39 33 81 63 95 67 14 3 39 16 55 28 17 11 42 27 56 34 14 7 43
28 65 48 21 19 53 42 69 50 17 9 48 34 70 56 22 21 59 52 82 69 24 16 43 33
43 38 0 10 17 20 169 101 98 53 93 51 106 41z m-2428 -3134 c-3 -8 -6 -5 -6 6
-1 11 2 17 5 13 3 -3 4 -12 1 -19z m0 -60 c-3 -8 -6 -5 -6 6 -1 11 2 17 5 13
3 -3 4 -12 1 -19z m0 -80 c-3 -7 -5 -2 -5 12 0 14 2 19 5 13 2 -7 2 -19 0 -25z
m10 -460 c-3 -8 -6 -5 -6 6 -1 11 2 17 5 13 3 -3 4 -12 1 -19z m1280 -188 c-3
-11 1 -27 9 -34 11 -12 11 -15 0 -19 -17 -7 -29 -205 -14 -224 6 -8 8 -35 4
-65 -3 -29 -6 -123 -6 -208 0 -85 0 -172 0 -193 -1 -28 3 -37 11 -31 9 5 10 1
5 -17 -5 -13 -11 -47 -15 -75 -10 -78 -18 -83 -109 -78 -42 3 -79 6 -82 7 -16
3 -227 -16 -252 -24 -20 -5 -49 -3 -87 7 -42 11 -135 16 -366 20 -170 3 -326
10 -346 15 -36 9 -36 10 -44 76 -12 97 -11 172 5 303 8 63 15 203 15 310 0
107 2 203 3 213 2 16 12 18 80 16 42 -1 84 -5 92 -10 8 -4 41 -10 72 -13 31
-3 64 -9 73 -12 9 -4 27 -1 41 6 19 11 29 11 51 1 40 -18 270 -33 393 -26 143
9 150 10 227 34 66 20 158 37 217 40 24 1 27 -2 23 -19z m-1290 -182 c-3 -8
-6 -5 -6 6 -1 11 2 17 5 13 3 -3 4 -12 1 -19z m-30 -285 c-3 -10 -5 -2 -5 17
0 19 2 27 5 18 2 -10 2 -26 0 -35z"/>
<path d="M7907 7112 c-15 -10 -25 -22 -22 -25 3 -4 2 -5 -1 -3 -8 6 -85 -42
-101 -63 -7 -9 -13 -12 -13 -8 0 5 -17 -5 -37 -21 -21 -16 -53 -37 -72 -47
-57 -29 -169 -118 -164 -131 5 -14 43 -7 43 8 0 5 6 8 13 5 18 -6 87 31 87 48
0 8 6 15 13 15 7 0 29 12 48 26 19 14 87 57 152 95 99 59 117 73 117 94 0 30
-23 33 -63 7z"/>
<path d="M7889 6692 c-18 -24 -18 -25 -2 -39 17 -13 17 -14 -4 -10 -22 5 -80
-24 -99 -51 -6 -8 -15 -12 -21 -9 -5 3 -27 -11 -49 -32 -22 -20 -48 -40 -57
-44 -9 -3 -17 -11 -17 -17 0 -6 -5 -8 -10 -5 -6 3 -13 -1 -16 -9 -3 -9 -12
-16 -20 -16 -7 0 -21 -14 -29 -30 l-16 -31 38 16 c33 14 69 38 83 57 3 3 39
26 80 50 111 64 249 169 243 185 -9 24 -82 13 -104 -15z"/>
<path d="M10492 5065 c0 -16 2 -22 5 -12 2 9 2 23 0 30 -3 6 -5 -1 -5 -18z"/>
</g>
</svg>
