<?xml version="1.0" encoding="utf-8" ?><svg xmlns="http://www.w3.org/2000/svg" xmlns:xlink="http://www.w3.org/1999/xlink" width="1024" height="1024" viewBox="0 0 1024 1024"><path transform="scale(2 2)" d="M181.054 144.504C179.381 136.611 172.849 120.148 169.222 112.716C163.165 100.303 140.297 93.3566 130.493 85.7412C122.82 78.0484 145.688 72.0266 150.788 72.3225C158.496 68.7296 166.387 76.0728 172.628 77.9884C179.724 80.1665 184.704 77.0988 191.184 83.3315C199.85 91.6684 196.17 101.47 199.538 111.679C201.23 116.389 213.465 138.763 216.914 144.091L217.185 144.504C221.536 143.337 227.6 143.218 232.164 142.819C249.814 141.276 267.282 138.843 284.73 135.832C306.213 132.125 316.294 130.836 335.023 144.943C353.34 158.152 378.632 173.125 377.446 198.981C375.428 226.578 348.941 260.055 329.712 277.914C342.322 292.738 358.282 312.038 369.808 327.831C374.697 334.531 373.918 344.519 374.568 352.562L380.226 421.585C381.88 441.288 354.155 446.634 349.363 429.671C347.503 423.084 346.755 415.785 345.599 409.033L336.696 354.99C335.023 344.846 327.677 340.967 319.904 334.58C310.662 326.985 301.29 319.812 291.593 312.859L286.133 317.428C276.093 325.639 265.363 333.034 255.217 341.147C226.511 364.091 207.738 397.574 203.209 434.048C202.657 438.498 199.968 441.585 195.114 439.098C187.839 435.372 203.906 392.128 206.715 386.353C210.914 377.692 215.096 374.534 215.082 364.376C215.051 341.43 210.07 333.565 200.449 315.157C185.836 286.195 184.914 256.296 194.691 225.805C190.946 214.211 191.966 207.081 191.057 195.348C190.015 181.883 188.043 167.099 184.32 154.099C180.674 153.63 176.685 153.676 172.895 153.414C145.181 151.495 117.775 146.961 90.7185 140.789C85.7135 139.647 85.3024 133.701 89.352 131.47C92.0772 129.969 100.628 133.064 103.669 133.403C124.789 137.718 145.984 141.186 167.449 143.152C172.039 143.572 176.573 143.346 181.054 144.504ZM151.905 81.3223C149.672 81.6628 148.316 82.0794 146.166 82.8191C178.22 101.163 181.694 108.982 191.536 144.504L201.092 144.504C202.688 144.466 204.07 144.442 205.669 144.504C200.927 133.74 193.76 124.193 189.702 113.117C187.3 106.558 189.974 92.9508 182.762 89.6101C179.727 88.2044 173.726 89.126 170.38 87.9896C163.938 86.0761 159.196 80.5336 151.905 81.3223ZM300.883 143.507C295.712 143.854 290.542 144.852 285.444 145.778C263.956 149.678 242.792 151.838 221.059 153.582C222.281 156.867 223.963 160.676 225.045 163.827C253.526 162.883 287.389 154.333 314.317 161.727L314.317 171.823C292.74 166.445 281.015 169.518 260.404 170.587C274.014 181.913 289.038 187.863 302.576 202.482C313.398 215.902 315.981 231.467 303.599 244.872C309.204 253.948 316.959 262.006 323.348 270.559C340.943 251.471 367.238 222.933 367.469 196.117C367.621 178.564 343.739 163.17 330.907 154.143C322.36 148.131 312.059 140.568 300.883 143.507ZM201.092 154.099C198.933 154.129 196.853 154.159 194.691 154.099C195.237 157.744 196.256 161.624 197.131 165.231C200.709 165.48 204.501 165.315 208.103 165.231C210.22 165.09 212.702 164.987 214.781 164.736C213.602 161.597 211.98 156.912 210.332 154.099L201.092 154.099ZM239.223 172.602C235.69 172.948 232.025 173.398 228.482 173.267C234.144 201.475 240.825 210.806 264.47 227.949C277.658 225.17 282.678 226.862 293.99 233.686C294.974 234.857 296.136 236.254 297.204 237.333C311.216 218.205 290.412 203.81 276.188 193.527C270.023 189.071 245.827 171.816 239.223 172.602ZM217.185 174.657C210.669 175.019 205.282 175.323 198.739 175.238C204.077 209.95 195.449 241.397 238.306 254.133L243.249 255.212C243.885 247.591 248.328 237.679 255.103 233.686C252.17 231.381 249.026 229.349 246.156 227.054C227.155 211.862 225.216 196.23 218.515 175.034C218.328 174.441 217.734 174.561 217.185 174.657ZM272.507 237.333C252.438 237.756 246.079 264.371 260.367 276.512C269.034 283.877 282.182 293.75 291.593 299.907L293.99 297.826C300.211 292.564 310.862 283.862 316.138 277.914C313.966 274.292 310.18 269.925 307.477 266.54C299.258 256.25 287.845 235.011 272.507 237.333ZM201.092 239.901C193.614 264.277 198.716 290.314 210.406 312.505C219.316 329.418 222.729 337.094 225.045 357.277C234.501 346.191 241.909 338.654 253.62 329.573C263.204 322.081 274.566 314.44 283.541 306.584C268.517 294.906 247.302 284.657 243.249 265.193C225.573 262.169 212.581 255.972 201.792 240.9C201.7 240.771 201.187 240.001 201.092 239.901ZM323.348 285.026C316.694 290.437 305.59 300.162 299.577 306.584C308.406 311.672 320.367 321.921 328.133 328.491C341.381 339.699 344.006 339.528 347.034 357.316L349.597 372.401C352.312 388.123 355.109 403.861 357.573 419.625C360.432 438.208 370.578 428.15 370.293 423.408C370.163 421.232 369.96 419.135 369.782 416.992L364.591 350.346C364.202 344.794 364.319 336.739 360.79 332.307C351.835 321.058 329.517 296.796 323.348 285.026Z"/><path transform="scale(2 2)" d="M345.152 123.737C339.892 125.688 334.567 130.853 330.364 131.74C323.935 133.097 317.496 127.285 316.385 121.239C315.446 116.127 318.912 95.2091 320.596 89.7519C323.519 80.274 331.197 74.0514 340.988 72.3225C354.184 71.188 365.359 78.234 368.688 91.2424C372.49 106.1 360.607 113.184 355.509 125.324C353.168 130.899 353.269 136.9 353.291 142.789L343.66 142.789C343.495 139.971 343.551 137.046 343.66 134.226C343.763 131.48 344.684 126.573 345.152 123.737ZM343.66 82.8191C336.2 82.8735 332.063 86.7218 329.712 93.5075C336.739 95.3095 346.289 98.1836 350.814 104.243C351.923 105.919 352.408 106.843 353.291 108.663C366.407 95.8251 354.949 79.7686 343.66 82.8191ZM328.2 102.654C327.34 106.509 325.765 115.607 326.025 119.424C326.874 120.905 327.014 121.101 328.2 122.323C331.736 119.505 333.14 118.335 337.185 116.367C339.402 115.36 343.128 113.795 345.152 112.683C340.638 106.904 334.873 105.515 328.2 102.654Z"/></svg>