<?xml version="1.0" standalone="no"?>
<!DOCTYPE svg PUBLIC "-//W3C//DTD SVG 20010904//EN"
 "http://www.w3.org/TR/2001/REC-SVG-20010904/DTD/svg10.dtd">
<svg version="1.0" xmlns="http://www.w3.org/2000/svg"
 width="2048.000000pt" height="1536.000000pt" viewBox="0 0 2048.000000 1536.000000"
 preserveAspectRatio="xMidYMid meet">

<g transform="translate(0.000000,1536.000000) scale(0.100000,-0.100000)"
fill="#000000" stroke="none">
<path d="M7872 11615 c-15 -12 -33 -40 -40 -61 -14 -39 -57 -116 -118 -211
-19 -28 -34 -59 -34 -68 0 -9 -18 -47 -40 -85 -22 -38 -49 -88 -59 -112 -10
-24 -45 -91 -78 -148 -33 -58 -66 -121 -73 -140 -7 -19 -22 -44 -32 -56 -10
-11 -25 -42 -33 -70 -8 -27 -26 -67 -40 -89 -13 -22 -32 -56 -41 -75 -38 -81
-141 -275 -169 -320 -12 -19 -28 -53 -36 -75 -7 -22 -23 -53 -35 -70 -12 -16
-41 -73 -64 -125 -23 -52 -47 -101 -52 -108 -6 -6 -39 -67 -73 -135 -187 -368
-286 -560 -327 -632 -74 -131 -168 -316 -193 -380 -37 -97 -201 -413 -239
-463 -20 -25 -36 -55 -36 -66 0 -12 -11 -38 -24 -57 -29 -42 -136 -250 -136
-263 0 -5 -13 -30 -28 -55 -16 -25 -38 -71 -50 -101 -12 -31 -36 -71 -53 -90
-36 -42 -54 -73 -75 -135 -8 -26 -29 -68 -45 -95 -16 -26 -35 -65 -43 -86 -7
-22 -27 -67 -44 -101 -19 -37 -29 -68 -25 -82 3 -13 1 -21 -7 -21 -6 0 -10
-10 -8 -22 4 -32 30 -35 433 -43 193 -3 407 -8 478 -10 73 -2 130 1 133 7 3 5
19 6 37 2 18 -4 131 -9 252 -11 121 -1 235 -3 253 -3 17 0 40 0 50 0 9 1 97 0
195 -2 99 -2 180 -1 182 2 2 3 75 5 164 5 140 0 162 -2 178 -18 20 -20 20 4
29 -1347 3 -399 5 -745 5 -770 1 -25 0 -61 -1 -80 -5 -67 9 -846 15 -861 17
-45 12 -45 -1035 -34 -1203 13 -1680 7 -1680 -20 0 -7 8 -16 18 -20 13 -6 152
-17 317 -25 8 -1 280 9 340 11 11 1 34 1 50 1 17 -1 53 -1 80 -1 28 0 126 -3
218 -7 119 -4 181 -3 212 6 30 9 48 9 62 1 17 -8 171 -13 393 -10 19 0 224 -3
455 -6 676 -9 2036 -11 2087 -3 26 4 60 3 75 -2 26 -8 638 -21 863 -18 52 1
111 1 130 1 67 -1 155 -3 185 -2 17 0 235 -3 485 -6 250 -4 628 -8 840 -11
212 -2 397 -4 413 -5 33 0 195 -1 722 -3 220 0 405 -4 411 -8 6 -4 25 -1 42 8
26 13 41 13 99 2 61 -11 176 -13 373 -7 36 2 173 -2 305 -6 132 -5 260 -9 285
-8 25 1 63 2 85 3 22 0 138 0 258 0 119 -1 226 1 236 5 26 8 32 27 17 56 -9
20 -21 25 -66 29 -46 4 -1173 4 -1281 -1 -20 -1 -58 8 -84 20 l-48 21 8 88 c4
48 6 182 5 297 -1 116 -1 233 -1 260 8 351 8 554 -1 577 -6 15 -7 36 -2 45 11
24 12 50 15 258 l2 180 40 75 c69 127 77 144 77 159 0 8 37 73 82 145 45 72
128 219 184 326 106 205 196 372 271 504 25 43 75 142 112 220 37 77 93 182
124 233 31 51 83 145 116 210 33 65 81 150 106 188 49 75 59 100 53 136 -7 49
-20 50 -509 33 -250 -8 -490 -14 -534 -14 -44 1 -156 -1 -250 -4 -425 -14
-571 -23 -592 -34 -12 -6 -24 -25 -28 -42 -4 -17 -18 -43 -31 -59 -13 -16 -35
-53 -48 -83 -13 -30 -31 -60 -39 -67 -9 -7 -28 -44 -42 -82 -15 -38 -31 -71
-36 -75 -5 -3 -16 -22 -24 -41 -9 -20 -24 -43 -35 -50 -25 -18 -50 -65 -50
-96 0 -13 -12 -39 -26 -58 -14 -19 -55 -92 -90 -162 -35 -71 -74 -141 -86
-156 -13 -14 -41 -67 -62 -116 -22 -50 -63 -126 -92 -170 -28 -44 -55 -90 -58
-101 -4 -12 -15 -29 -26 -39 -12 -11 -20 -31 -20 -49 0 -17 -10 -47 -23 -66
-13 -19 -33 -54 -45 -78 -12 -24 -40 -67 -61 -95 -21 -29 -75 -127 -121 -219
-80 -162 -84 -168 -129 -190 -42 -21 -61 -23 -211 -25 -91 -1 -178 -1 -195 -1
-50 2 -88 2 -130 -1 -22 -2 -116 -3 -210 -3 -173 0 -214 -1 -460 -11 -77 -4
-383 -9 -680 -12 -297 -3 -592 -11 -655 -17 l-115 -11 -88 -112 c-48 -62 -100
-132 -116 -157 -16 -25 -36 -48 -44 -51 -9 -3 -39 -41 -68 -84 -29 -43 -80
-107 -114 -143 -34 -36 -72 -81 -85 -100 -13 -19 -39 -51 -59 -71 -48 -48 -98
-118 -106 -149 -3 -14 -19 -33 -35 -42 -16 -9 -36 -31 -46 -50 -14 -28 -33
-53 -83 -113 -5 -5 -17 -17 -27 -26 -18 -15 -47 -52 -119 -153 -16 -23 -51
-61 -77 -85 -27 -24 -48 -49 -48 -55 0 -7 -20 -36 -45 -65 -25 -29 -45 -60
-45 -68 0 -8 -17 -31 -37 -49 -37 -35 -66 -44 -62 -22 1 7 -1 29 -5 48 -4 19
-8 685 -9 1479 l-2 1444 23 15 c22 14 47 16 167 14 65 -1 111 -1 280 0 77 1
158 0 180 -2 22 -1 60 -3 85 -3 144 0 510 2 540 3 44 2 133 2 185 0 22 -1 159
0 305 2 214 2 271 0 294 -11 25 -12 44 -12 115 -2 49 7 111 9 145 5 l59 -7 -6
42 c-3 23 -17 58 -32 77 -15 20 -40 69 -56 109 -15 41 -48 109 -72 152 -24 43
-67 119 -95 168 -28 50 -75 144 -105 210 -63 139 -171 351 -210 412 -15 24
-67 128 -117 233 -49 105 -116 239 -149 298 -32 59 -73 141 -90 182 -17 41
-44 95 -61 120 -16 25 -30 50 -30 56 0 6 -11 28 -25 48 -14 20 -25 45 -25 54
0 9 -16 37 -35 61 -19 24 -35 48 -35 52 0 5 -26 61 -57 124 -32 64 -64 128
-71 143 -7 15 -19 38 -27 52 -7 14 -50 98 -95 187 -45 89 -88 167 -96 174 -8
6 -21 34 -29 62 -8 27 -34 84 -58 126 -24 42 -72 128 -107 191 -35 63 -72 131
-83 150 -11 19 -39 82 -64 140 -38 91 -64 141 -140 270 -19 33 -46 94 -67 151
-9 25 -34 73 -56 107 -22 34 -40 65 -40 70 0 4 -17 37 -39 73 -21 35 -42 80
-46 99 -4 19 -20 53 -36 74 -16 22 -29 45 -29 51 0 7 -9 20 -20 30 -11 10 -20
23 -20 30 0 23 -58 102 -79 108 -14 3 -31 -3 -49 -18z m97 -399 c6 -7 20 -54
30 -103 11 -50 27 -108 36 -129 9 -22 32 -95 50 -164 44 -165 78 -281 120
-415 44 -142 71 -240 80 -290 3 -22 12 -49 19 -60 7 -11 16 -33 19 -50 3 -16
13 -52 22 -80 45 -140 57 -179 80 -280 14 -60 43 -165 65 -232 22 -67 48 -162
59 -212 11 -50 29 -111 40 -135 10 -24 22 -63 26 -87 4 -24 18 -63 31 -86 13
-23 24 -50 24 -61 0 -11 14 -64 31 -118 16 -55 39 -144 51 -199 11 -55 29
-122 40 -149 10 -27 33 -99 49 -160 17 -61 40 -131 51 -156 12 -25 24 -67 28
-95 4 -27 19 -77 33 -110 14 -33 64 -198 111 -366 47 -168 95 -328 106 -354
12 -27 19 -54 16 -62 -4 -10 -78 -13 -368 -13 -481 1 -797 -5 -830 -14 -51
-15 -50 -40 -50 869 0 275 -2 604 -4 730 -3 127 -5 237 -5 245 0 8 1 159 2
335 3 444 3 1198 1 1643 -1 308 1 372 12 372 7 0 19 -6 25 -14z m148 -67 c6
-13 29 -62 51 -109 21 -47 53 -107 70 -134 18 -28 32 -62 32 -78 0 -19 9 -34
30 -49 22 -17 32 -35 41 -78 7 -36 22 -69 41 -91 39 -46 105 -159 114 -196 4
-16 15 -41 25 -56 11 -14 19 -35 19 -45 0 -10 9 -26 20 -36 11 -9 20 -25 20
-35 0 -11 19 -48 41 -83 23 -35 48 -81 56 -103 15 -46 69 -143 125 -230 21
-33 38 -68 38 -79 0 -11 15 -43 33 -71 18 -28 46 -80 62 -116 15 -36 36 -76
45 -90 9 -14 30 -53 45 -87 15 -34 36 -69 46 -79 10 -9 30 -48 45 -88 15 -39
41 -96 59 -126 18 -30 38 -72 44 -92 7 -21 17 -40 22 -44 5 -3 16 -21 24 -40
8 -19 21 -37 30 -40 8 -3 15 -16 15 -28 0 -11 23 -59 50 -106 28 -47 50 -94
50 -106 0 -11 11 -41 25 -65 13 -24 45 -83 70 -131 24 -48 58 -102 74 -120 15
-18 54 -85 86 -148 32 -63 77 -149 100 -190 24 -41 50 -99 59 -129 9 -29 32
-78 52 -108 20 -30 93 -167 163 -306 117 -231 154 -297 196 -352 31 -40 7 -44
-260 -46 -152 -2 -275 2 -314 9 -37 7 -70 8 -80 3 -9 -5 -86 -8 -171 -7 l-154
1 -23 34 c-12 18 -25 50 -28 70 -3 20 -10 44 -16 53 -5 10 -9 31 -9 48 0 17
-6 46 -14 64 -16 39 -106 357 -170 603 -52 198 -75 276 -161 558 -35 116 -68
230 -74 255 -10 45 -28 107 -57 190 -9 25 -24 81 -34 125 -11 44 -28 104 -40
133 -11 30 -36 117 -55 195 -18 78 -50 193 -69 256 -20 62 -47 157 -61 210
-13 53 -33 117 -44 141 -11 25 -32 95 -46 155 -15 61 -36 133 -47 160 -11 28
-28 88 -38 135 -10 47 -32 123 -50 170 -43 117 -90 275 -90 304 0 14 -16 75
-35 136 -28 88 -33 116 -24 127 16 18 31 12 46 -18z m-243 -186 c-1 -78 2
-143 8 -150 6 -7 6 -19 0 -30 -5 -10 -8 -115 -6 -234 1 -119 5 -776 9 -1460 3
-684 8 -1414 10 -1621 4 -333 3 -379 -11 -392 -28 -29 -52 -36 -91 -29 -39 7
-90 7 -198 3 -219 -9 -846 -2 -858 9 -10 10 21 142 38 161 8 9 12 25 9 35 -2
11 16 82 40 157 25 75 50 164 55 197 5 33 17 71 26 85 10 14 27 72 40 128 53
239 78 336 101 393 43 104 94 275 94 315 0 21 6 43 15 50 8 7 15 24 15 39 0
15 16 65 35 112 19 47 39 116 44 155 6 38 15 83 20 99 5 17 15 62 21 100 7 39
18 77 24 85 7 8 18 47 24 86 6 39 25 111 41 160 16 49 32 115 36 146 3 32 17
78 31 103 13 25 24 58 24 72 0 14 13 64 29 112 17 47 37 117 45 154 9 37 22
80 30 95 7 15 16 50 19 77 3 28 17 84 30 125 14 41 28 99 32 127 4 29 17 68
29 86 16 23 25 54 29 104 3 40 17 100 31 135 14 34 28 83 32 108 4 25 12 56
19 70 7 14 15 50 18 80 3 30 13 72 23 93 17 35 19 36 29 17 6 -12 10 -74 9
-157z m-148 80 c-4 -9 -10 -38 -13 -63 -3 -25 -12 -57 -19 -72 -8 -15 -14 -40
-14 -56 0 -28 -18 -75 -75 -197 -15 -32 -26 -79 -30 -130 -9 -113 -28 -194
-75 -325 -23 -63 -72 -239 -111 -390 -38 -151 -78 -297 -89 -325 -11 -27 -27
-84 -35 -126 -17 -94 -100 -380 -120 -419 -8 -16 -15 -39 -15 -51 0 -52 -83
-374 -116 -450 -17 -41 -24 -74 -24 -123 0 -53 -5 -77 -24 -109 -13 -23 -26
-64 -30 -91 -3 -27 -21 -95 -40 -150 -19 -56 -42 -135 -50 -176 -9 -41 -26
-106 -36 -145 -11 -38 -29 -104 -41 -145 -11 -41 -36 -129 -55 -195 -19 -67
-34 -143 -34 -171 0 -30 -5 -56 -12 -61 -27 -20 -126 -36 -175 -28 -26 5 -61
8 -78 8 -196 -5 -703 -2 -747 3 -54 6 -75 23 -49 39 5 3 12 18 16 34 3 16 17
41 31 56 13 14 24 33 24 42 0 9 20 50 44 92 24 42 51 101 61 131 10 30 31 67
47 83 15 16 28 34 28 41 0 6 4 16 9 21 18 20 199 381 205 411 4 18 16 40 28
50 11 11 33 46 48 79 15 33 48 91 74 129 25 39 48 86 51 105 12 75 18 86 66
133 27 26 49 55 49 65 1 33 27 92 68 155 22 35 50 86 61 114 11 29 38 81 59
117 22 35 66 122 96 193 31 71 69 145 85 164 15 19 36 58 45 87 10 29 29 69
43 89 13 21 42 74 62 118 21 45 45 87 54 95 9 7 17 22 17 33 0 24 14 51 57
107 18 24 38 61 43 83 6 21 23 53 39 71 15 17 97 172 182 342 84 171 165 330
180 355 15 25 34 68 44 95 10 28 31 67 47 87 15 20 28 43 28 51 0 27 82 137
102 137 15 0 18 -5 14 -17z m7112 -3323 l55 0 -20 -22 c-11 -13 -26 -41 -33
-63 -7 -22 -36 -80 -65 -130 -28 -49 -59 -110 -69 -134 -9 -24 -27 -57 -40
-75 -13 -17 -46 -78 -73 -136 -27 -58 -98 -190 -158 -295 -59 -104 -137 -246
-172 -315 -98 -191 -118 -228 -137 -249 -9 -10 -22 -36 -27 -57 -6 -22 -21
-50 -34 -64 -13 -14 -40 -63 -59 -110 -56 -132 -188 -371 -218 -393 -23 -17
-46 -21 -165 -24 -76 -2 -158 -4 -183 -3 -107 1 -164 0 -314 -8 -90 -5 -179
-5 -205 0 -27 5 -109 4 -201 -2 -85 -5 -250 -10 -366 -10 -128 0 -223 -4 -243
-11 -24 -8 -35 -8 -46 1 -28 23 -17 69 38 158 57 91 157 282 157 298 0 5 28
52 62 104 33 52 84 145 113 205 29 61 71 141 95 179 23 39 57 99 75 135 48 97
86 163 107 187 10 11 43 70 74 130 31 60 101 197 156 304 55 107 111 206 124
221 13 14 24 32 24 40 0 25 49 88 82 105 26 13 67 15 277 13 135 -1 346 3 469
10 172 10 234 10 272 1 27 -6 53 -9 59 -6 5 3 91 8 191 10 100 2 185 7 188 11
4 4 40 4 81 1 41 -3 99 -6 129 -6z m-1161 -2156 c24 -3 45 -9 48 -14 6 -10
-79 -184 -129 -262 -18 -29 -49 -84 -69 -123 -19 -38 -55 -103 -80 -143 -25
-40 -62 -112 -82 -160 -21 -48 -75 -154 -121 -237 -155 -281 -244 -450 -324
-613 -65 -133 -84 -164 -107 -173 -26 -10 -527 -16 -775 -9 -103 3 -113 10
-104 74 8 51 16 225 20 451 2 88 9 199 16 247 9 67 9 96 0 122 -6 20 -8 46 -4
58 5 13 9 70 9 128 4 263 17 558 26 592 5 20 14 40 20 44 16 9 172 12 769 14
295 1 542 5 549 10 14 8 257 4 338 -6z m-2202 -14 c89 -7 155 -6 209 2 61 8
90 8 132 -2 30 -7 54 -17 54 -22 0 -37 -27 -102 -50 -121 -16 -14 -30 -38 -34
-59 -3 -19 -16 -44 -27 -54 -12 -10 -34 -46 -49 -80 -15 -34 -33 -64 -39 -68
-6 -4 -11 -20 -11 -36 0 -19 -10 -38 -30 -57 -16 -15 -30 -36 -30 -46 0 -10
-11 -33 -25 -51 -13 -18 -41 -68 -61 -112 -20 -43 -49 -97 -64 -119 -15 -22
-41 -69 -58 -105 -16 -36 -46 -87 -66 -115 -24 -33 -36 -61 -36 -82 0 -23 -7
-37 -23 -48 -14 -9 -35 -44 -52 -86 -15 -39 -40 -85 -55 -103 -15 -17 -33 -49
-40 -71 -13 -41 -33 -80 -98 -195 -51 -89 -72 -96 -247 -81 -72 6 -155 8 -185
3 -84 -12 -822 5 -831 19 -12 20 4 52 48 94 23 23 43 47 43 54 0 23 28 67 110
171 46 58 91 125 102 150 11 25 30 56 43 70 12 14 56 74 96 133 144 211 195
284 245 353 29 38 68 103 89 144 20 41 61 107 90 145 29 39 88 124 130 190
117 185 87 169 339 175 118 3 218 8 222 13 9 8 -3 9 159 -3z m-702 -29 c14
-14 0 -43 -54 -107 -73 -86 -136 -177 -143 -209 -4 -16 -25 -49 -47 -72 -22
-24 -64 -81 -95 -128 -30 -47 -59 -85 -64 -85 -5 0 -33 -37 -63 -82 -31 -46
-90 -132 -132 -193 -42 -60 -91 -139 -111 -175 -19 -36 -61 -94 -94 -130 -33
-36 -78 -100 -100 -143 -27 -50 -51 -82 -69 -92 -18 -9 -30 -25 -34 -43 -3
-16 -22 -48 -41 -71 -20 -24 -36 -48 -36 -55 0 -19 -51 -63 -93 -81 -20 -8
-63 -15 -95 -15 -352 1 -862 10 -919 16 -39 3 -173 1 -298 -5 -239 -13 -255
-11 -255 30 0 11 20 39 44 62 86 82 309 371 413 535 38 60 108 146 229 281 23
25 81 100 129 165 48 66 108 145 135 175 26 31 67 85 90 121 51 76 150 205
201 263 l36 40 456 1 c251 1 459 5 464 10 12 12 533 0 546 -13z m1132 -194
c13 -21 14 -44 5 -169 -14 -195 -31 -853 -30 -1110 l2 -207 -42 -11 c-22 -6
-60 -8 -83 -5 -68 10 -249 9 -287 -2 -20 -5 -44 -6 -55 -2 -11 4 -84 8 -163 8
-190 1 -239 24 -176 82 14 13 50 71 78 129 86 173 164 311 190 339 14 15 32
46 41 70 8 24 44 94 80 155 35 61 87 158 115 216 73 152 106 210 145 253 19
21 35 44 35 53 0 27 110 224 125 224 2 0 11 -11 20 -23z m1816 -14 c4 -41 8
-65 16 -108 5 -27 8 -93 6 -145 -2 -52 -4 -351 -4 -663 l-1 -568 -23 -15 c-20
-13 -33 -14 -77 -5 -55 11 -185 14 -493 12 -116 -1 -189 2 -207 10 -47 19 -46
50 5 121 40 57 129 218 194 353 13 28 34 68 45 90 12 22 40 76 62 120 23 44
51 94 62 110 12 17 36 59 53 94 17 35 38 73 48 83 9 10 42 69 73 131 128 256
203 387 222 387 10 0 18 -3 19 -7z"/>
</g>
</svg>
