<?xml version="1.0" encoding="utf-8" ?><svg xmlns="http://www.w3.org/2000/svg" xmlns:xlink="http://www.w3.org/1999/xlink" width="1024" height="1024" viewBox="0 0 1024 1024"><path transform="scale(2 2)" d="M119.432 129.759C111.152 129.58 111.248 112.928 118.215 111.299C126.197 111.178 125.378 128.236 119.432 129.759Z"/><path transform="scale(2 2)" d="M88.5603 143.015C84.1226 143.961 69.7986 132.809 79.2625 127.293C84.897 126.818 98.0551 138.492 88.5603 143.015Z"/><path transform="scale(2 2)" d="M150.727 143.015C138.066 141.152 148.975 128.885 154.877 127.293C166.269 126.991 157.82 140.55 150.727 143.015Z"/><path transform="scale(2 2)" d="M120.638 203.986C101.355 205.107 84.8367 190.335 83.8056 171.047C82.7745 151.76 97.6238 135.311 116.916 134.37C136.081 133.436 152.398 148.166 153.422 167.326C154.446 186.486 139.793 202.871 120.638 203.986ZM117.058 144.62C103.468 145.46 93.1583 157.2 94.0806 170.784C95.0029 184.368 106.805 194.607 120.383 193.602C133.846 192.606 143.978 180.927 143.064 167.458C142.15 153.99 130.531 143.787 117.058 144.62Z"/><path transform="scale(2 2)" d="M367.978 217.691C363.703 216.147 358.612 214.733 354.196 213.285L324.055 203.333C318.017 201.358 306.332 198.14 300.672 194.98C295.642 192.172 305.633 181.486 307.532 179.516C323.208 163.255 344.331 153.642 366.96 153.192C410.143 149.484 449.802 188.04 450.848 231.187C450.894 234.297 452.074 245.647 445.384 243.505C422.978 236.331 400.504 228.168 378.093 221.074L373.112 237.442C372.085 240.778 370.737 244.777 369.992 248.133C381.778 259.151 374.562 269.675 368.257 280.197L346.851 316.11C342.97 322.676 340.182 328.316 334.897 333.898C376.748 338.658 403.772 344.858 446.109 326.644C448.025 325.82 464.703 315.628 461.282 330.178C460.816 332.161 448.746 336.845 445.739 338.03C409.528 352.296 379.65 350.747 342.646 345.216C312.514 340.712 282.39 338.229 251.909 339.599C221.407 340.97 191.157 346.265 160.788 349.057C156.9 349.415 152.081 349.465 148.344 350.42C115.842 350.459 86.2109 348.967 55.1647 337.164C48.8254 334.753 48.6621 328.639 55.2053 326.324C58.4935 326.733 68.1799 330.617 72.3261 331.766C85.7622 335.489 97.5708 337.773 111.466 338.986C104.468 318.247 122.446 310.238 137.069 298.723L148.403 289.633C166.071 275.35 171.486 273.691 194.438 278.287L284.567 296.474C292.002 297.955 309.158 304.304 313.007 298.511C318.02 290.965 322.369 282.982 327.257 275.332L289.037 275.346C282.94 275.345 276.681 275.488 270.597 275.151C266.703 274.936 258.75 264.694 278.806 264.759L334.074 264.781C340.421 251.993 344.919 242.892 360.145 243.768C363.156 235.446 366.089 226.342 367.978 217.691ZM365.097 163.792C346.664 164.508 325.137 174.695 313.251 188.984C328.405 193.669 343.281 198.656 358.342 203.557L401.74 217.691C414.621 221.78 427.325 226.742 440.276 230.547C438.925 211.856 430.961 193.36 416.612 180.932C405.176 171.027 380.333 159.969 365.097 163.792ZM355.115 254.042C350.147 255.641 347.7 262.126 345.168 266.276L330.543 290.146C318.315 310.496 319.286 314.955 292.518 309.135L271.193 304.556L191.372 288.549C171.984 284.405 169.425 286.532 154.118 298.796L142.751 307.871C138.557 311.186 123.024 322.377 121.166 325.979C117.391 333.3 124.538 341.133 131.884 337.311C135.573 335.088 139.938 331.431 143.46 328.734L163.837 313.164C169.072 309.201 174.807 302.979 181.975 304.754C187.725 306.177 213.198 320.06 220.261 323.871C238.337 333.624 236.209 329.785 258.13 329.019C270.54 328.585 283.039 328.709 295.436 329.401C316.284 330.566 322.977 335.583 334.491 316.03L357.125 278.247C359.247 274.701 364.06 267.67 365.199 263.893C366.962 258.05 361.192 253.391 355.115 254.042ZM179.283 314.992C168.468 322.823 157.365 332.152 146.403 339.375C155.263 339.962 169.651 337.742 178.485 336.465L198.516 333.999C203.626 333.417 208.749 332.677 213.85 333.233C209.285 329.863 203.503 327.462 198.437 324.784L185.795 318.107C184.305 317.334 180.694 315.372 179.283 314.992Z"/><path transform="scale(2 2)" d="M171.563 174.285C168.192 174.345 162.827 174.961 159.911 173.211C155.626 170.639 158.187 164.508 163.988 163.792C166.545 163.77 172.816 163.406 174.681 164.872C178.924 168.21 176.554 173.517 171.563 174.285Z"/><path transform="scale(2 2)" d="M74.9423 174.285C70.852 174.239 62.2809 175.245 61.0715 170.371C60.1888 166.814 62.2023 164.548 65.5357 163.792C68.9543 163.974 77.344 162.775 78.8685 166.732C80.2543 170.33 78.2934 172.911 74.9423 174.285Z"/><path transform="scale(2 2)" d="M83.0299 211.02C75.0369 213.013 74.0299 201.497 86.0245 195.77C98.3773 194.092 91.2046 207.142 83.0299 211.02Z"/><path transform="scale(2 2)" d="M156.775 211.02C152.166 211.738 138.373 200.69 148.344 195.77C153.047 195.42 167.087 205.762 156.775 211.02Z"/><path transform="scale(2 2)" d="M119.432 227.931C111.606 228.337 111.021 210.973 118.215 208.777C126.203 208.493 125.562 225.929 119.432 227.931Z"/><path transform="scale(2 2)" d="M428.312 390.142C393.703 376.141 371.033 410.352 328.125 387.238C316.73 381.099 298.871 381.658 287.017 386.376C269.393 393.399 252.144 396.019 233.611 388.54C205.455 377.176 204.986 376.81 175.353 388.494C139.114 402.783 118.619 370.132 86.6161 381.398C81.8281 383.083 73.7093 388.035 72.074 379.223C70.7903 372.307 93.8206 368.875 98.3853 368.747C121.617 364.436 140.592 389.591 172.541 378.355C188.418 372.005 206.206 365.625 223.448 372.458C238.358 378.366 254.835 386.158 271.617 380.568C289.272 374.687 310.824 366.17 329.508 376.333C352.046 388.592 367.173 385.575 389.754 379.272C407.88 374.212 438.187 376.739 450.652 392.595C452.893 395.777 448.241 400.456 445.299 399.05C439.294 396.182 434.617 392.693 428.312 390.142Z"/></svg>