<?xml version="1.0" standalone="no"?>
<!DOCTYPE svg PUBLIC "-//W3C//DTD SVG 20010904//EN"
 "http://www.w3.org/TR/2001/REC-SVG-20010904/DTD/svg10.dtd">
<svg version="1.0" xmlns="http://www.w3.org/2000/svg"
 width="2048.000000pt" height="1536.000000pt" viewBox="0 0 2048.000000 1536.000000"
 preserveAspectRatio="xMidYMid meet">

<g transform="translate(0.000000,1536.000000) scale(0.100000,-0.100000)"
fill="#000000" stroke="none">
<path d="M7145 10923 c-3 -10 -10 -97 -15 -193 -6 -96 -12 -192 -15 -213 -3
-21 2 -82 10 -135 14 -80 22 -428 15 -622 0 -8 2 -76 5 -150 3 -74 7 -189 9
-255 2 -66 5 -120 6 -120 3 0 12 -78 11 -95 0 -8 -3 -134 -5 -280 -3 -146 -10
-317 -16 -380 -7 -75 -7 -178 -2 -295 5 -99 5 -188 0 -197 -11 -23 -10 -132 2
-144 6 -6 9 -75 9 -164 -2 -311 -2 -606 1 -640 1 -19 -1 -100 -4 -180 -3 -80
-8 -237 -11 -350 -15 -621 -15 -591 2 -616 10 -16 13 -35 8 -63 -3 -21 -2 -65
4 -97 9 -48 19 -66 54 -102 23 -24 58 -52 78 -62 19 -10 58 -39 85 -64 28 -24
63 -48 77 -51 15 -4 27 -11 27 -16 0 -10 61 -67 115 -107 22 -17 54 -43 72
-60 17 -16 51 -39 75 -51 24 -11 61 -37 82 -56 21 -19 42 -35 46 -35 8 0 53
-36 92 -73 11 -10 35 -25 53 -33 18 -7 54 -32 80 -54 26 -22 63 -49 83 -60 58
-32 76 -44 89 -62 7 -9 38 -28 67 -41 30 -14 61 -35 68 -46 7 -12 19 -21 27
-21 8 0 38 -20 67 -45 28 -25 59 -45 67 -45 7 0 22 -9 33 -21 10 -12 32 -28
49 -36 16 -9 48 -30 70 -48 78 -63 184 -112 250 -116 6 -1 100 2 211 6 132 5
211 4 231 -2 20 -7 35 -7 47 -1 19 11 151 13 386 8 86 -2 153 1 165 7 51 26
856 22 1385 -7 91 -5 246 -12 345 -15 99 -3 221 -8 270 -10 137 -8 238 -5 254
8 10 8 83 12 242 12 125 0 231 4 235 8 15 15 20 310 11 732 -2 110 0 211 5
224 9 24 21 155 20 222 0 42 -11 39 153 38 44 0 101 4 126 10 26 6 101 11 167
12 150 1 158 5 155 86 -2 32 -4 132 -6 223 -2 91 -5 199 -6 240 -3 74 5 314
14 437 3 35 0 74 -5 87 -12 33 -14 327 -4 541 5 94 8 231 7 305 -1 74 -2 206
-3 292 -1 87 2 163 5 168 12 20 7 123 -7 137 -16 16 -392 22 -518 8 -130 -14
-135 -14 -132 15 1 14 4 169 6 345 2 176 6 340 10 365 4 27 0 84 -10 140 -13
75 -15 132 -10 275 4 104 3 186 -3 194 -8 13 -175 46 -189 37 -4 -2 -70 0
-147 5 -122 7 -814 13 -855 8 -37 -5 -49 2 -59 37 -6 23 -7 43 -1 54 10 18 10
32 7 135 -4 146 5 725 12 775 14 86 13 280 0 296 -16 20 -53 17 -91 -6 -18
-11 -40 -20 -48 -20 -18 0 -346 -164 -369 -184 -9 -7 -59 -34 -111 -59 -52
-26 -102 -51 -110 -56 -8 -5 -35 -18 -60 -29 -99 -44 -129 -59 -220 -111 -52
-30 -170 -91 -262 -137 -92 -46 -210 -110 -262 -143 -52 -34 -98 -61 -102 -61
-10 0 -216 -100 -244 -119 -14 -9 -54 -30 -90 -46 -56 -26 -159 -93 -212 -139
-9 -8 -27 -17 -40 -21 -12 -4 -52 -24 -88 -46 -74 -43 -147 -77 -178 -82 -12
-2 -25 -6 -28 -10 -14 -14 -51 -6 -70 14 -10 12 -35 29 -54 39 -19 10 -79 58
-132 107 -169 154 -296 256 -417 333 -65 41 -131 85 -147 98 -16 13 -43 33
-61 45 -69 48 -139 105 -198 162 -35 33 -76 67 -91 75 -35 18 -78 50 -147 110
-81 71 -269 215 -303 233 -17 9 -51 37 -75 62 -36 37 -49 45 -80 45 -26 0 -39
-5 -44 -17z m91 -118 c13 -14 32 -25 43 -25 18 0 40 -17 117 -90 12 -11 26
-20 33 -20 6 0 43 -28 80 -62 92 -84 131 -117 139 -118 4 0 34 -22 67 -48 33
-27 71 -55 85 -64 14 -8 44 -34 68 -57 23 -22 48 -41 55 -41 7 0 26 -14 43
-31 16 -17 58 -51 94 -74 36 -23 76 -54 89 -69 14 -14 31 -26 38 -26 8 0 25
-11 39 -25 14 -14 29 -23 34 -20 5 3 12 0 15 -5 4 -6 26 -23 50 -38 24 -15 71
-53 105 -86 33 -32 90 -78 127 -101 63 -41 95 -66 191 -151 26 -23 61 -49 77
-58 17 -8 42 -26 57 -38 l26 -23 -3 -460 c-2 -253 -3 -476 -3 -495 2 -87 2
-861 0 -910 -1 -30 -1 -76 1 -103 1 -26 -2 -48 -6 -50 -5 -1 -3 -15 3 -31 7
-20 9 -121 5 -320 -9 -525 -7 -864 6 -903 7 -22 10 -66 6 -114 -3 -43 -1 -79
3 -81 7 -3 15 -115 10 -143 -1 -5 -2 -63 -1 -129 0 -65 -4 -126 -9 -136 -5
-10 -7 -20 -3 -23 12 -12 19 -428 10 -589 -2 -37 -10 -74 -17 -82 -9 -12 -10
-26 0 -65 8 -36 9 -59 0 -90 -6 -23 -10 -56 -9 -74 2 -17 2 -78 1 -134 -2
-110 -10 -124 -48 -82 -18 20 -110 86 -202 144 -26 17 -57 40 -70 53 -12 12
-29 22 -37 22 -8 0 -15 4 -15 8 0 11 -135 112 -183 137 -21 11 -43 28 -48 37
-5 10 -23 24 -38 33 -16 8 -35 20 -43 27 -14 15 -67 42 -83 43 -15 1 -103 64
-151 108 -23 20 -44 37 -48 37 -15 0 -426 326 -441 350 -3 5 -31 23 -63 40
-72 38 -181 130 -205 173 -15 26 -18 47 -14 114 3 45 2 85 -2 88 -8 9 -13 396
-4 415 3 8 7 137 9 285 1 149 6 299 9 335 4 36 6 72 4 80 -3 28 0 720 4 728 2
4 -2 54 -9 112 -7 62 -9 122 -4 145 8 41 5 269 -5 315 -9 48 -6 116 10 210 13
73 14 99 5 116 -9 17 -9 67 3 220 15 197 15 583 0 607 -9 15 -11 55 -17 422
-3 165 -10 333 -16 373 -11 78 -15 346 -5 361 3 5 0 13 -6 16 -7 5 -8 29 -3
74 9 92 13 96 50 56z m4178 -180 c-4 -82 -8 -168 -9 -190 -3 -49 -15 -499 -18
-690 -1 -77 -6 -143 -10 -146 -10 -7 -727 -2 -847 6 -47 3 -114 8 -150 11 -36
3 -72 6 -80 5 -8 0 -132 -1 -275 -1 -143 -1 -318 -7 -390 -14 -80 -8 -139 -10
-154 -4 -13 5 -98 9 -188 10 -109 1 -162 5 -160 12 2 6 18 15 35 20 18 5 32
13 32 17 0 5 9 9 19 9 29 0 174 86 238 141 18 16 52 33 75 39 23 7 57 23 75
37 18 14 33 22 33 19 0 -4 15 4 33 17 44 33 92 57 115 57 11 0 25 7 32 15 7 8
21 15 30 15 24 0 75 28 112 63 43 39 151 98 227 123 35 12 66 26 70 32 3 5 67
37 141 72 74 35 148 73 163 86 16 13 41 27 55 30 15 4 38 12 52 19 14 7 36 18
50 24 14 6 40 23 59 36 19 14 45 25 59 25 13 0 39 13 57 29 19 16 60 39 92 51
32 11 75 34 95 51 20 16 44 29 53 29 10 0 30 11 46 25 16 13 46 27 66 31 21 4
62 22 93 40 79 47 83 40 74 -151z m-2054 -1085 c203 -17 269 -18 273 -7 5 17
705 17 786 -1 40 -8 87 -11 125 -7 37 4 73 2 90 -4 19 -8 32 -8 40 -1 13 10
594 5 604 -5 3 -3 10 -1 16 4 7 5 25 4 46 -3 31 -10 35 -16 42 -56 4 -25 4
-69 -2 -98 -6 -35 -6 -61 1 -80 6 -15 10 -83 9 -152 -1 -69 0 -226 3 -350 2
-124 0 -277 -6 -340 -5 -63 -9 -143 -9 -177 l2 -61 -378 4 c-207 3 -393 4
-412 3 -68 -3 -176 -2 -240 1 -93 5 -345 -7 -415 -19 -33 -6 -80 -11 -104 -11
-54 0 -118 -18 -150 -42 -13 -10 -29 -18 -35 -18 -39 -1 -126 -141 -126 -203
0 -55 91 -277 114 -277 14 0 66 -58 66 -75 0 -9 -16 -25 -35 -36 -19 -12 -35
-27 -35 -34 0 -7 -11 -28 -24 -47 -13 -19 -26 -48 -29 -64 -3 -16 -13 -49 -22
-73 -22 -60 -12 -136 26 -196 16 -25 32 -45 37 -45 4 0 15 -13 25 -29 9 -16
46 -48 82 -72 35 -24 65 -47 65 -50 0 -8 -81 -29 -113 -29 -13 0 -32 -9 -42
-20 -10 -11 -26 -22 -36 -25 -11 -4 -19 -15 -19 -26 0 -10 -4 -19 -10 -19 -5
0 -20 -19 -32 -42 -17 -33 -22 -59 -21 -113 1 -89 5 -118 19 -136 6 -8 14 -27
18 -43 8 -31 129 -156 151 -156 7 0 18 -6 24 -14 9 -11 3 -21 -31 -50 -23 -20
-52 -39 -64 -42 -13 -3 -39 -34 -65 -75 -24 -39 -50 -77 -58 -85 -8 -10 -14
-42 -15 -92 -1 -73 1 -81 38 -142 48 -82 113 -163 146 -183 72 -43 244 -54
685 -46 307 6 734 3 820 -5 74 -8 78 -9 60 -23 -43 -33 -596 -293 -738 -347
-32 -13 -62 -27 -65 -33 -4 -5 -24 -13 -44 -17 -20 -4 -91 -34 -158 -66 -67
-33 -165 -78 -218 -101 -83 -34 -229 -102 -335 -155 -16 -8 -34 -14 -41 -14
-6 0 -51 -20 -99 -45 -48 -25 -98 -45 -110 -45 -12 0 -31 -6 -42 -14 -11 -7
-45 -21 -75 -29 -30 -9 -120 -38 -200 -65 -80 -28 -147 -48 -149 -46 -2 2 -5
31 -7 63 -1 33 -5 64 -8 70 -4 5 1 30 9 55 9 25 15 73 14 108 -1 35 1 108 5
163 12 178 18 309 17 340 -1 17 -3 179 -5 360 -1 182 -6 411 -10 510 -5 99 -9
206 -11 238 -1 31 -5 60 -8 63 -3 4 -2 15 3 25 6 10 7 20 3 22 -5 3 -7 139 -6
304 1 164 2 332 1 373 -1 41 -2 93 -2 115 1 22 1 153 2 290 0 138 1 261 1 275
3 140 1 312 -4 320 -3 5 -1 11 4 14 5 4 7 56 4 124 -7 143 -7 149 -4 292 1 63
2 176 1 250 -3 258 7 556 19 578 11 20 19 22 101 20 49 -1 93 1 97 6 4 4 19 5
33 1 14 -3 77 -10 140 -15z m2719 -25 c282 -5 351 -9 377 -21 18 -9 38 -13 45
-9 19 12 99 15 127 4 l25 -10 -5 -132 c-3 -73 -1 -159 3 -192 13 -85 16 -247
6 -268 -4 -10 -8 -165 -8 -344 l0 -325 -26 7 c-14 3 -45 19 -67 34 -23 16 -60
38 -83 50 -24 12 -43 25 -43 30 0 5 -21 18 -48 29 -26 11 -65 35 -86 52 -22
16 -73 49 -115 72 -42 22 -85 49 -96 59 -11 10 -41 25 -65 34 -25 9 -70 34
-102 55 -31 22 -62 40 -70 40 -8 0 -18 4 -24 9 -5 5 -47 29 -94 53 -142 74
-240 129 -246 140 -24 39 -40 601 -17 623 6 7 40 13 74 14 34 1 65 4 68 7 3 3
33 3 66 0 33 -3 215 -8 404 -11z m-519 -775 c31 -21 80 -48 108 -59 83 -33
170 -79 268 -142 53 -35 102 -59 118 -59 15 0 29 -7 33 -16 3 -8 37 -31 75
-50 38 -19 120 -66 181 -105 61 -38 116 -69 122 -69 6 0 24 -13 40 -30 16 -16
39 -30 51 -30 12 0 27 -6 34 -14 6 -8 21 -16 33 -18 16 -2 24 -15 33 -53 7
-27 9 -54 5 -60 -4 -5 -9 -73 -9 -150 -1 -77 -5 -203 -8 -280 -3 -77 0 -205 6
-285 6 -80 10 -163 9 -185 -4 -78 0 -171 11 -240 10 -64 23 -270 22 -337 0
-16 0 -57 0 -93 0 -36 0 -95 0 -132 -4 -219 -1 -398 6 -405 10 -10 5 -189 -6
-200 -5 -5 -87 -13 -183 -19 -97 -6 -188 -17 -206 -24 -24 -10 -104 -14 -305
-16 -150 -1 -316 -6 -368 -11 -109 -10 -94 -10 -185 -4 -38 2 -77 0 -86 -5
-10 -5 -67 -4 -135 2 -165 14 -181 14 -524 9 -160 -2 -198 -5 -225 -16 -11 -4
-56 -8 -100 -7 -327 2 -401 4 -486 12 -53 5 -111 17 -129 26 -43 22 -95 75
-147 150 -40 56 -43 65 -43 126 0 55 4 73 26 105 15 21 35 45 46 53 11 7 35
28 53 47 19 18 46 36 62 39 15 3 44 11 63 17 20 6 135 12 270 14 129 2 296 6
370 9 74 3 144 6 155 5 90 -5 475 -11 625 -10 183 2 220 8 220 34 0 31 -64 38
-290 34 -19 0 -134 2 -255 5 -263 7 -378 8 -505 3 -302 -11 -512 -4 -556 19
-16 8 -36 15 -45 15 -16 0 -143 91 -167 119 -24 29 -64 122 -69 161 -11 78 23
125 154 212 28 18 106 30 228 34 44 2 91 4 105 4 14 1 120 -2 235 -6 209 -6
557 -9 775 -6 137 2 251 -3 302 -13 32 -6 40 -4 63 19 15 15 25 32 22 39 -7
22 -266 32 -692 25 -71 -1 -195 1 -275 6 -80 4 -254 11 -387 16 -240 8 -242 9
-292 37 -28 15 -51 33 -51 40 0 6 -9 14 -19 18 -22 7 -75 65 -109 120 -21 34
-22 43 -13 105 15 111 69 201 140 233 43 20 62 21 331 20 157 -1 344 -3 415
-6 72 -2 261 -7 420 -10 160 -3 334 -9 387 -13 82 -6 101 -4 123 10 20 13 23
20 15 35 -9 17 -29 19 -207 25 -109 4 -243 9 -298 12 -265 13 -358 15 -725 18
-291 2 -404 7 -430 16 -55 20 -118 70 -129 101 -5 16 -19 39 -31 51 -30 32
-43 94 -36 167 3 35 7 64 8 65 2 1 28 24 59 52 92 85 99 86 769 92 311 3 603
4 650 2 234 -10 316 -1 356 41 18 19 24 32 18 41 -9 13 -9 88 2 193 3 33 7
110 8 170 2 97 6 131 22 183 5 18 13 15 74 -28z m1703 -596 c44 -7 45 -10 32
-114 -6 -50 -6 -100 1 -305 7 -194 7 -208 0 -400 -9 -284 -16 -394 -27 -422
-6 -18 -7 -35 0 -52 19 -50 31 -226 25 -356 -3 -71 -5 -141 -4 -155 2 -14 2
-36 2 -50 -4 -124 4 -494 12 -511 4 -10 3 -20 -2 -23 -22 -14 -160 -25 -337
-27 l-190 -3 -1 89 c-3 156 -14 324 -24 351 -7 17 -6 32 1 46 6 11 8 30 5 42
-3 13 -3 26 0 29 10 10 6 515 -4 534 -11 22 -24 127 -21 168 7 84 -5 387 -21
560 -1 6 3 28 9 49 7 27 6 55 -1 87 -8 34 -8 84 1 185 7 76 15 167 17 200 l6
62 116 7 c121 8 262 8 269 1 3 -2 19 2 36 9 18 8 39 12 47 10 8 -2 32 -7 53
-11z m-567 -2556 c-4 -35 -9 -88 -12 -118 -7 -92 -4 -409 6 -505 11 -104 13
-265 4 -380 l-7 -80 -86 3 c-47 2 -198 -4 -336 -13 -177 -12 -258 -13 -277 -6
-15 6 -118 10 -235 11 -114 0 -273 5 -353 12 -80 6 -248 13 -375 15 -126 2
-273 6 -325 10 -52 3 -106 5 -120 4 -14 -1 -88 -3 -165 -5 -77 -2 -230 -9
-340 -15 -110 -7 -276 -12 -370 -12 -256 0 -489 -6 -530 -13 -45 -9 -127 3
-122 17 2 6 25 18 53 27 27 10 108 38 179 63 170 59 454 175 483 198 13 10 37
20 55 24 39 7 177 75 177 87 0 4 6 8 13 8 24 0 218 79 289 118 40 22 89 43
108 47 19 4 40 11 45 15 6 4 34 15 64 24 30 10 115 48 190 85 75 37 152 74
171 81 19 7 49 23 65 35 26 20 95 56 270 143 28 14 87 37 133 53 45 15 95 37
111 49 18 12 32 16 36 10 4 -7 12 -7 25 0 10 5 42 10 71 10 548 6 598 8 689
25 90 17 233 30 364 33 l59 2 -7 -62z"/>
</g>
</svg>
