<?xml version="1.0" encoding="utf-8" ?><svg xmlns="http://www.w3.org/2000/svg" xmlns:xlink="http://www.w3.org/1999/xlink" width="1024" height="1024" viewBox="0 0 1024 1024"><path transform="scale(2 2)" d="M320.486 214.544C328.086 197.12 335.807 183.747 331.633 163.817C328.025 146.595 318.9 133.58 304.242 123.943C280.429 108.288 255.568 112.387 231.653 124.519C226.911 126.924 215.221 136.802 212.479 128.091C210.673 122.357 218.232 119.609 222.076 117.405C235.818 110.342 250.5 103.784 266.168 103.233C267.867 102.915 270.676 102.962 272.416 103.004C316.764 104.075 353.797 148.155 341.292 192.355C338.564 201.997 333.308 212.916 329.248 222.154L313.459 258.139C309.777 256.71 307.062 255.281 303.666 253.383C308.755 240.692 314.89 227.129 320.486 214.544Z"/><path transform="scale(2 2)" d="M101.148 263.245C91.1901 247.728 86.5438 235.646 84.8317 216.881C81.748 185.41 100.562 158.733 111.909 130.823C116.407 119.759 119.006 110.191 132.666 109.301C142.923 107.74 168.408 116.251 178.201 120.699C192.313 127.108 213.617 138.866 219.565 154.187C231.779 143.954 244.498 154.267 252.344 145.899C251.962 140.094 250.704 136.549 257.345 134.573C259.787 135.239 260.639 135.676 262.127 137.704C264.538 150.479 268.954 160.381 284.277 162.208C287.203 162.557 290.292 162.416 293.211 162.976C297.21 166.129 297.027 169.929 293.211 173.251C276.826 174.121 266.827 169.352 256.726 156.709C237.438 167.74 229.615 146.594 215.934 178.49L177.467 267.027C185.264 275.421 198.788 291.471 209.99 290.741C225.595 289.723 241.106 288.352 256.726 287.474C244.95 276.574 232.601 262.695 221.665 250.884C213.654 242.232 218.189 224.34 230.581 221.397C241.875 218.716 246.66 224.181 255.528 229.986L278.509 245.104C304.657 262.524 318.468 269.995 329.151 302.493C333.734 316.435 329.886 321.433 344.348 329.269C348.005 327.896 356.19 323.714 360.051 321.897L393.816 306.091C398.103 304.117 402.686 301.747 406.966 299.988C408.346 303.11 410.219 306.496 411.831 309.549C407.32 311.916 347.654 340.933 344.999 340.908C338.296 340.844 326.297 330.863 323.525 325.035C322.723 323.349 321.034 314.702 320.437 312.272C313.244 282.971 302.896 274.995 280.286 259.692C271.163 253.808 261.984 246.911 252.645 241.42C246.846 238.01 236.069 226.718 230.237 234.258C224.947 241.095 232.113 245.887 236.297 250.373L261.717 277.265C269.961 286.01 283.667 296.302 261.684 297.604C244.703 298.962 227.907 300.745 210.912 301.741C197.104 302.55 190.448 295.415 181.084 286.502L159.175 264.801C155.164 260.821 151.513 255.228 145.688 254.106C139.022 252.822 132.47 261.775 136.297 267.519C137.969 270.027 141.667 273.094 143.97 275.413C159.141 290.684 174.551 305.751 189.855 320.892C192.408 323.417 195.332 326.125 197.567 328.908L197.854 329.269C196.282 331.105 192.211 334.729 190.192 336.782C186.747 333.282 183.081 329.879 179.597 326.405L141.569 288.554C134.892 281.931 128.398 274.704 121.271 268.544C114.044 263.681 103.421 273.161 108.424 280.464C110.338 283.258 114.449 286.98 117.068 289.614L160.296 332.653C173.897 346.392 188.338 360.864 208.212 365.031C211.32 365.683 218.74 365.543 222.148 365.543L258.098 365.537C268.777 365.434 274.21 365.3 282.017 373.277C286.493 377.851 301.416 393.92 306.192 396.765C310.73 395.907 314.863 393.976 319.252 392.745C354.057 382.981 390.721 372.601 425.912 364.537C427.094 367.872 428.613 371.105 429.81 374.548C426.563 375.673 421.905 376.771 418.498 377.686L395.227 383.748C364.891 391.408 334.865 400.753 304.524 408.368C301.468 409.135 296.778 403.434 294.651 401.31L279.882 386.747C270.374 377.408 271.759 376.462 258.26 376.481L227.686 376.498C221.821 376.498 211.33 376.814 206.062 375.701C183.59 370.955 171.187 359.209 155.89 343.943L110.061 298.152C100.231 288.398 88.9532 277.924 101.148 263.245ZM132.666 120.542C126.254 121.783 125.356 127.729 122.966 133.078L106.588 169.418C92.8295 199.68 89.8835 227.28 110.038 256.869C114.995 255.969 120.764 255.426 125.269 258.139C128.188 246.874 139.269 241.223 150.398 244.002C156.274 245.469 159.335 249.163 163.382 253.383L168.918 258.694L197.286 193.028C201.22 183.852 205.791 174.749 209.231 165.377C216.788 144.79 149.63 117.715 132.666 120.542Z"/></svg>